<svg width="461" height="461" viewBox="0 0 461 461" fill="none" xmlns="http://www.w3.org/2000/svg">
<mask id="mask0_700_438" style="mask-type:alpha" maskUnits="userSpaceOnUse" x="0" y="0" width="461" height="461">
<rect width="461" height="461" fill="#D9D9D9"/>
</mask>
<g mask="url(#mask0_700_438)">
<g clip-path="url(#clip0_700_438)">
<path fill-rule="evenodd" clip-rule="evenodd" d="M429.669 467.932H53.2317C56.0393 449.833 64.7648 428.923 86.5375 424.377C97.7678 422.036 123.889 418.95 144.726 415.066C159.948 412.201 174.509 408.702 177.977 404.239C191.547 386.8 192.813 347.929 183.207 311.041L279.683 312.308C276.986 369.031 279.904 396.911 312.907 410.272C350.204 425.397 418.604 409.225 429.669 467.932Z" fill="white"/>
<path d="M183.207 311.041L279.683 312.308C276.986 369.031 279.904 396.911 312.906 410.272C350.203 425.397 418.604 409.225 429.669 467.932H53.2316C56.0392 449.833 64.7647 428.923 86.5374 424.377C97.7677 422.036 123.889 418.95 144.726 415.066C159.948 412.201 174.509 408.702 177.977 404.239C191.547 386.8 192.813 347.929 183.207 311.041ZM179.628 308.231L180.537 311.729C190.281 349.113 188.326 386.442 175.802 402.531C173.463 405.534 162.838 408.84 144.203 412.338C133.386 414.349 121.109 416.168 110.264 417.766C100.162 419.253 91.4369 420.548 85.9593 421.677C60.4708 426.994 52.7912 452.67 50.5066 467.519L50.0111 470.687H432.972L432.367 467.409C424.247 424.35 386.289 419.666 352.818 415.562C338.395 413.798 324.798 412.118 313.925 407.71C282.051 394.817 279.793 367.461 282.408 312.418L282.546 309.581H279.711L183.234 308.286L179.628 308.231Z" fill="#231F20"/>
<path fill-rule="evenodd" clip-rule="evenodd" d="M183.207 311.041C192.318 350.601 193.171 389.115 175.582 406.801C216.843 420.934 262.287 373.77 278.307 337.653C278.169 326.937 278.995 326.578 279.683 312.28L183.207 311.041Z" fill="#DEDEDE"/>
<path fill-rule="evenodd" clip-rule="evenodd" d="M183.207 311.041C185.051 318.148 186.455 325.173 187.418 332.006L193.914 311.179L183.207 311.041ZM174.013 407.132C161.159 412.09 157.966 412.201 153.452 414.239C151.112 415.286 120.696 537.604 121.632 541.46C140.983 621.077 137.735 651.271 141.038 595.126C142.662 567.549 206.301 590.856 170.352 548.237L152.323 526.832C162.838 472.12 176.738 463.938 174.013 407.132Z" fill="#DEDEDE"/>
<path fill-rule="evenodd" clip-rule="evenodd" d="M152.268 441.651C176.353 446.83 200.961 438.455 214.668 441.954C223.917 444.295 231.762 455.012 240.817 453.992C246.13 453.386 247.946 447.326 258.021 443.193C267.627 439.254 285.629 445.177 315.824 439.144C285.629 441.706 266.141 433.882 256.534 437.16C253.782 438.097 251.607 439.557 249.846 441.651C253.066 415.727 251.194 389.996 250.506 364.073C249.185 390.63 248.662 417.352 241.808 443C225.513 444.157 228.761 440.08 215.549 438.124C195.566 435.176 179.326 445.315 152.268 441.678V441.651Z" fill="#DEDEDE"/>
<path fill-rule="evenodd" clip-rule="evenodd" d="M253.479 437.628C268.233 426.251 283.537 444.047 320.641 436.637L321.302 421.099C301.704 442.835 264.544 417.518 253.479 437.656V437.628Z" fill="#F2F2F2"/>
<path fill-rule="evenodd" clip-rule="evenodd" d="M182.986 317.625C197.465 340.821 189.455 433.689 167.49 518.099C123.917 685.459 117.531 678.82 -18.83 714.909C81.4727 681.575 88.4367 645.981 121.495 523.636C81.5828 659.012 37.0742 703.559 -38.896 709.564C53.149 681.685 13.017 617.358 53.3142 480.825C76.876 401.016 176.023 376.111 170.6 301.233C172.83 304.787 181.858 315.834 182.959 317.625H182.986Z" fill="#212121"/>
<path fill-rule="evenodd" clip-rule="evenodd" d="M182.986 317.625C196.777 339.719 190.171 424.901 170.572 505.867C180.95 441.375 185.381 398.096 181.885 327.24C177.867 348.81 163.829 391.566 144.121 429.226C155.186 396.856 175.665 352.64 175.527 323.217C167.132 343.989 158.847 356.083 143.02 372.585C127.826 388.426 106.879 406.939 89.0697 422.091C126.091 382.09 174.481 354.127 170.628 301.233C172.857 304.787 181.885 315.834 182.986 317.625Z" fill="#0F0F0F"/>
<path fill-rule="evenodd" clip-rule="evenodd" d="M182.051 316.798C196.281 492.809 193.556 628.846 65.4529 693.173C199.667 639.673 202.585 495.426 186.565 325.476L182.051 316.771V316.798Z" fill="#0F0F0F"/>
<path fill-rule="evenodd" clip-rule="evenodd" d="M47.5614 669.012C88.8495 634.962 113.87 540.028 147.892 450.879C67.2146 545.731 92.1801 600.608 47.5614 669.012Z" fill="#141414"/>
<path fill-rule="evenodd" clip-rule="evenodd" d="M172.527 336.606C136.414 398.206 93.8317 416.608 72.1141 446.306C35.0924 496.969 68.8661 612.812 40.7351 672.621C71.6462 632.565 72.6096 565.263 103.466 507.162C137.515 443.111 160.003 385.643 172.527 336.579V336.606Z" fill="url(#paint0_linear_700_438)"/>
<path fill-rule="evenodd" clip-rule="evenodd" d="M154.8 369.362C29.5047 499.09 98.098 642.896 26.5044 674.357C89.6753 643.805 20.7516 510.192 154.8 369.362Z" fill="#666666"/>
<path fill-rule="evenodd" clip-rule="evenodd" d="M145.442 366.69C100.025 408.454 76.986 423.936 60.1129 457.243C8.06235 559.918 55.2685 662.593 -14.9214 694.412C51.5525 657.387 -3.19555 556.915 54.9932 454.295C73.1875 422.228 96.3639 399.886 145.469 366.69H145.442Z" fill="#141414"/>
<path fill-rule="evenodd" clip-rule="evenodd" d="M154.222 368.205C52.1857 476.527 59.3423 449.309 59.3423 594.933C69.5267 464.433 75.4172 464.626 154.222 368.205Z" fill="url(#paint1_linear_700_438)"/>
<path fill-rule="evenodd" clip-rule="evenodd" d="M164.902 358.177C129.064 437.38 100.878 504.021 72.6921 586.255C80.2066 449.777 125.981 423.082 164.902 358.177Z" fill="url(#paint2_linear_700_438)"/>
<path fill-rule="evenodd" clip-rule="evenodd" d="M154.8 379.39C70.9304 519.807 83.3995 558.623 72.6095 603.446C79.656 565.538 70.1873 499.476 154.8 379.39Z" fill="#999999"/>
<path fill-rule="evenodd" clip-rule="evenodd" d="M152.131 372.723C50.892 482.368 64.0216 497.795 55.9016 606.807C64.2969 532.782 30.7709 485.453 152.131 372.723Z" fill="#999999"/>
<path fill-rule="evenodd" clip-rule="evenodd" d="M151.91 421.981C80.0964 543.885 112.824 621.463 21.6049 684.164C114.696 631.187 103.878 524.325 151.91 421.981Z" fill="#0F0F0F"/>
<path fill-rule="evenodd" clip-rule="evenodd" d="M179.986 357.764C186.235 461.403 192.263 676.313 23.6143 702.87C131.789 639.342 135.753 472.781 179.986 357.764Z" fill="url(#paint3_linear_700_438)"/>
<path fill-rule="evenodd" clip-rule="evenodd" d="M169.334 423.496C156.947 509.559 142.166 625.044 65.563 684.109C170.077 653.337 167.214 499.145 169.334 423.496Z" fill="url(#paint4_linear_700_438)"/>
<path fill-rule="evenodd" clip-rule="evenodd" d="M63.5261 679.453C147.258 580.084 150.121 513.498 168.453 391.181C132.808 509.559 121.247 565.511 63.5261 679.453Z" fill="url(#paint5_linear_700_438)"/>
<path fill-rule="evenodd" clip-rule="evenodd" d="M163.994 456.94C157.388 602.95 109.191 666.946 65.563 684.109C142.111 657.607 165.095 550.166 163.994 456.94Z" fill="#999999"/>
<path fill-rule="evenodd" clip-rule="evenodd" d="M159.975 420.823C117.283 560.139 97.1622 628.846 72.2517 667.387C112.714 619.479 125.679 547.494 159.975 420.823Z" fill="#999999"/>
<path fill-rule="evenodd" clip-rule="evenodd" d="M313.815 267.348C317.393 256.852 319.981 244.51 322.651 226.603C326.614 200.046 329.917 172.414 325.541 147.372C321.99 127.096 314.393 108.859 302.97 94.4781C303.603 97.1504 305.254 99.8777 304.731 102.633C302.97 111.531 304.209 143.433 311.971 171.395C321.797 206.795 313.787 232.113 313.815 267.348Z" fill="#F2F2F2"/>
<path fill-rule="evenodd" clip-rule="evenodd" d="M271.618 58.3615C289.84 41.9148 317.586 49.3806 334.542 70.6484C374.949 121.394 335.698 174.26 325.403 227.65C311.228 301.013 306.273 309.884 278.5 336C278.555 333.961 279.849 326.496 278.5 320.27C272.196 284.869 292.18 234.675 296.171 196.795C300.272 157.676 288.602 94.4231 262.59 62.3561L271.618 58.334V58.3615Z" fill="#212121"/>
<path fill-rule="evenodd" clip-rule="evenodd" d="M139.469 188.393C130.468 174.949 119.898 184.095 123.174 200.377C125.844 213.628 131.954 228.724 135.34 243.849C137.652 254.207 141.396 261.563 150.479 259.634L149.488 216.493L139.469 188.393Z" fill="white"/>
<path fill-rule="evenodd" clip-rule="evenodd" d="M141.34 216.906C135.12 209.936 132.89 214.371 135.808 221.92C137.955 227.512 139.882 238.697 145.524 239.634L141.34 216.906Z" fill="#878787"/>
<path fill-rule="evenodd" clip-rule="evenodd" d="M134.019 190.238C129.807 187.153 126.587 189.522 125.734 194.509C124.495 201.809 131.652 215.859 133.964 224.454C133.331 212.608 126.091 201.093 127.578 194.729C128.486 190.789 131.652 190.128 134.9 193.682C134.597 192.525 134.294 191.396 134.019 190.266V190.238Z" fill="#DEDEDE"/>
<path fill-rule="evenodd" clip-rule="evenodd" d="M129.973 217.925C136.166 231.617 137.955 239.028 145.001 241.838L148.69 257.045C139.992 260.516 136.579 242.609 135.808 238.559C134.762 232.884 131.514 227.071 129.973 217.925Z" fill="#DEDEDE"/>
<path fill-rule="evenodd" clip-rule="evenodd" d="M319.127 258.257C314.255 295.806 301.841 323.272 278.362 339.609V341.978C306.603 328.727 323.779 282.362 319.127 258.257Z" fill="#0F0F0F"/>
<path fill-rule="evenodd" clip-rule="evenodd" d="M327.055 188.393C336.055 174.949 346.625 184.095 343.35 200.377C340.68 213.628 334.569 228.724 331.183 243.849C328.871 254.207 325.128 261.563 316.044 259.634L317.035 216.493L327.055 188.393Z" fill="white"/>
<path fill-rule="evenodd" clip-rule="evenodd" d="M271.618 58.3615C279.133 51.5844 288.271 48.8571 297.63 49.5183C287.17 51.4192 279.959 55.1658 283.234 57.8656C285.216 59.491 293.116 61.447 301.483 65.2487C319.43 73.3757 328.513 85.9931 333 103.349C323.091 83.8994 320.201 82.9627 301.428 73.9267C306.355 81.0068 307.897 87.894 310.512 95.0843C317.503 114.231 330.908 160.21 322.651 181.12L296.611 192.194C299.392 152.882 287.638 93.211 262.618 62.4112L271.646 58.389L271.618 58.3615Z" fill="#0F0F0F"/>
<path fill-rule="evenodd" clip-rule="evenodd" d="M270.187 331.262C281.252 321.399 289.675 312.17 300.162 295.228C312.576 275.144 317.476 261.342 322.651 226.603C326.614 200.046 329.917 172.414 325.541 147.372C317.063 98.6932 285.023 61.6398 233.248 61.8327C175.912 62.0255 147.892 84.781 139.496 139.686C133.991 175.527 136.221 198.668 142.276 228.917C148.993 262.389 154.8 281.26 169.004 301.261C177.977 313.906 184.968 322.391 193.997 330.242C212.384 346.221 222.32 353.301 232.56 353.301C242.799 353.301 253.837 345.863 270.187 331.317V331.262Z" fill="white"/>
<path fill-rule="evenodd" clip-rule="evenodd" d="M167.848 80.4006C152.736 92.9905 143.708 112.357 139.496 139.686C133.991 175.527 136.221 198.668 142.276 228.917C148.993 262.389 154.8 281.26 169.004 301.261C177.977 313.906 184.968 322.391 193.997 330.242C202.805 337.901 209.686 343.521 215.577 347.295C188.96 319.664 184.555 284.539 171.096 263.491C132.064 202.47 133.716 164.756 167.848 80.4282V80.4006Z" fill="#DEDEDE"/>
<path fill-rule="evenodd" clip-rule="evenodd" d="M266.664 209.716C264.407 212.636 261.241 216.245 259.893 218.504C258.406 221.011 257.966 222.691 260.03 223.6C262.535 224.702 266.939 223.848 271.426 223.628C283.977 223.022 283.317 223.6 295.125 219.606L281.087 209.192L266.691 209.688L266.664 209.716Z" fill="#BFBFBF"/>
<path fill-rule="evenodd" clip-rule="evenodd" d="M261.269 216.768C269.444 185.004 310.512 191.946 322.403 187.428C319.871 204.261 304.814 217.953 293.776 220.294C284.335 222.278 272.885 218.173 261.269 216.768Z" fill="#B5B5B5"/>
<path fill-rule="evenodd" clip-rule="evenodd" d="M260.14 218.118C265.673 205.528 275.334 199.137 282.849 197.594C292.538 195.555 307.512 196.823 316.788 195.005C309.383 208.035 300.438 218.421 293.501 220.239C290.391 221.066 286.4 221.121 281.913 220.928C275.637 220.625 268.04 219.578 261.929 220.928C260.278 221.286 259.149 220.432 260.168 218.118H260.14Z" fill="#050505"/>
<path fill-rule="evenodd" clip-rule="evenodd" d="M260.581 218.972C269.169 208.779 277.399 203.82 284.17 202.525C290.749 201.258 299.832 202.608 308.723 203.131C302.062 214.867 296.364 218.669 290.143 220.294C287.335 221.038 283.757 221.093 279.711 220.9C274.068 220.625 267.242 219.688 261.709 220.9C260.223 221.231 259.122 220.68 260.581 218.944V218.972Z" fill="white"/>
<mask id="mask1_700_438" style="mask-type:luminance" maskUnits="userSpaceOnUse" x="259" y="201" width="50" height="20">
<path d="M260.581 218.972C269.169 208.779 277.399 203.82 284.17 202.525C290.749 201.258 299.832 202.608 308.723 203.131C302.062 214.867 296.364 218.669 290.143 220.294C287.335 221.038 283.757 221.093 279.711 220.9C274.068 220.625 267.242 219.688 261.709 220.9C260.223 221.231 259.122 220.68 260.581 218.944V218.972Z" fill="white"/>
</mask>
<g mask="url(#mask1_700_438)">
<path fill-rule="evenodd" clip-rule="evenodd" d="M286.152 220.57C292.345 220.57 297.382 215.528 297.382 209.33C297.382 203.131 292.345 198.09 286.152 198.09C279.959 198.09 274.922 203.131 274.922 209.33C274.922 215.528 279.959 220.57 286.152 220.57Z" fill="#616161"/>
<path fill-rule="evenodd" clip-rule="evenodd" d="M280.895 205.859L277.399 207.622C276.243 216.768 284.06 220.46 289.73 218.421C294.024 216.878 297.823 211.231 294.63 203.93L291.492 204.316C294.52 208.779 292.042 213.325 288.354 214.482C285.023 215.528 280.344 213.931 280.922 205.886L280.895 205.859Z" fill="#5C5C5C"/>
<path fill-rule="evenodd" clip-rule="evenodd" d="M286.73 212.691C289.482 212.691 291.712 210.459 291.712 207.704C291.712 204.95 289.482 202.718 286.73 202.718C283.977 202.718 281.748 204.95 281.748 207.704C281.748 210.459 283.977 212.691 286.73 212.691Z" fill="#050505"/>
<path fill-rule="evenodd" clip-rule="evenodd" d="M281.5 212.829C283.096 212.829 284.39 211.534 284.39 209.936C284.39 208.338 283.096 207.043 281.5 207.043C279.904 207.043 278.61 208.338 278.61 209.936C278.61 211.534 279.904 212.829 281.5 212.829Z" fill="white"/>
<path fill-rule="evenodd" clip-rule="evenodd" d="M293.474 216.327C295.18 216.327 296.557 214.922 296.557 213.242C296.557 211.561 295.18 210.156 293.474 210.156C291.767 210.156 290.391 211.561 290.391 213.242C290.391 214.922 291.795 216.327 293.474 216.327Z" fill="#7D7D7D"/>
</g>
<path fill-rule="evenodd" clip-rule="evenodd" d="M301.346 197.208C308.09 195.914 310.347 194.839 313.677 190.955C312.384 194.536 311.448 195.969 307.594 198.09L301.318 197.208H301.346Z" fill="#050505"/>
<path fill-rule="evenodd" clip-rule="evenodd" d="M295.51 197.208C302.282 196.106 304.594 195.087 308.007 191.285C306.603 194.839 305.64 196.244 301.731 198.255L295.483 197.208H295.51Z" fill="#050505"/>
<path fill-rule="evenodd" clip-rule="evenodd" d="M289.455 197.236C295.978 196.299 298.208 195.363 301.594 191.809C300.19 195.197 299.226 196.52 295.428 198.365L289.455 197.236Z" fill="#050505"/>
<path fill-rule="evenodd" clip-rule="evenodd" d="M257.36 185.362C271.095 177.29 284.61 171.891 295.428 170.761C304.236 169.852 312.136 175.362 325.733 178.117C309.548 178.117 302.337 173.434 296.694 174.067C288.629 174.976 283.62 178.613 265.205 189.357C262.975 190.652 260.14 190.624 257.828 190.018C255.406 189.384 251.552 188.778 257.36 185.362Z" fill="#212121"/>
<path fill-rule="evenodd" clip-rule="evenodd" d="M322.183 141.174C330.192 179.026 328.706 201.423 322.651 231.645C315.934 265.117 309.879 282.996 295.676 302.969C286.702 315.614 278.472 324.595 269.444 332.446C292.07 294.318 286.372 287.293 298.869 264.455C326.944 213.049 325.183 203.462 322.183 141.174Z" fill="#F2F2F2"/>
<path fill-rule="evenodd" clip-rule="evenodd" d="M238.23 266.081C240.652 264.896 242.717 263.464 245.277 262.913C248.855 262.141 250.561 264.18 250.837 266.329C251.36 270.737 246.268 271.866 242.662 272.114C241.258 272.197 238.505 272.637 236.634 273.106C233.578 273.822 230.385 273.822 227.33 273.106C225.458 272.665 222.706 272.224 221.302 272.114C217.696 271.866 212.604 270.737 213.127 266.329C213.375 264.18 215.109 262.141 218.687 262.913C221.357 263.464 223.917 264.951 226.367 266.136C231.266 268.533 233.22 268.533 238.23 266.081Z" fill="#DEDEDE"/>
<path fill-rule="evenodd" clip-rule="evenodd" d="M236.881 270.792C238.01 270.048 240.129 267.596 242.552 266.274C244.313 265.309 246.46 264.814 247.451 265.612C249.075 266.935 247.947 269.194 246.075 269.359C242.469 269.662 240.432 270.131 236.881 270.764V270.792Z" fill="#878787"/>
<path fill-rule="evenodd" clip-rule="evenodd" d="M228.018 271.425C226.89 270.681 224.77 268.23 222.348 266.907C220.586 265.943 218.439 265.447 217.448 266.246C215.824 267.568 216.953 269.827 218.825 269.993C222.43 270.323 224.467 270.764 228.018 271.398V271.425Z" fill="#878787"/>
<path fill-rule="evenodd" clip-rule="evenodd" d="M231.624 220.928C230.963 230.901 230.083 240.46 229.367 249.221C228.734 256.797 226.422 257.568 226.504 259.083C226.587 260.709 228.321 262.417 233.303 263.078C237.542 261.783 239.661 260.654 239.854 259.249C240.047 257.926 237.625 256.824 236.991 249.662C236.276 241.507 236.826 231.948 236.413 220.956C235.725 203.104 232.753 203.434 231.596 220.956L231.624 220.928Z" fill="white"/>
<path fill-rule="evenodd" clip-rule="evenodd" d="M212.549 188.035C219.926 195.61 230.826 229.138 221.329 256.521C225.486 220.129 212.742 198.476 187.005 178.255L212.576 188.035H212.549Z" fill="#DEDEDE"/>
<path fill-rule="evenodd" clip-rule="evenodd" d="M151.25 242.83L135.202 206.052L195.841 137.675L285.051 91.8611C284.032 97.0127 300.217 97.8943 305.557 100.87C294.354 127.041 268.811 145.719 242.964 160.127C198.759 184.811 150.149 184.288 151.222 242.83H151.25Z" fill="#DEDEDE"/>
<path fill-rule="evenodd" clip-rule="evenodd" d="M201.181 209.716C203.438 212.636 206.603 216.245 207.952 218.504C209.438 221.011 209.879 222.691 207.814 223.6C205.31 224.702 200.906 223.848 196.419 223.628C183.867 223.022 184.528 223.6 172.719 219.606L186.757 209.192L201.153 209.688L201.181 209.716Z" fill="#BFBFBF"/>
<path fill-rule="evenodd" clip-rule="evenodd" d="M206.576 216.768C198.401 185.004 157.333 191.946 145.442 187.428C147.974 204.261 163.031 217.953 174.068 220.294C183.509 222.278 194.96 218.173 206.576 216.768Z" fill="#B5B5B5"/>
<path fill-rule="evenodd" clip-rule="evenodd" d="M207.704 218.118C202.172 205.528 192.51 199.137 184.996 197.594C175.307 195.555 160.333 196.823 151.057 195.005C158.461 208.035 167.407 218.421 174.344 220.239C177.454 221.066 181.418 221.121 185.932 220.928C192.208 220.625 199.805 219.578 205.915 220.928C207.539 221.286 208.695 220.432 207.677 218.118H207.704Z" fill="#050505"/>
<path fill-rule="evenodd" clip-rule="evenodd" d="M207.264 218.972C198.676 208.779 190.446 203.82 183.675 202.525C177.096 201.258 168.013 202.608 159.122 203.131C165.783 214.867 171.481 218.669 177.702 220.294C180.509 221.038 184.088 221.093 188.134 220.9C193.776 220.625 200.603 219.688 206.135 220.9C207.622 221.231 208.723 220.68 207.264 218.944V218.972Z" fill="white"/>
<mask id="mask2_700_438" style="mask-type:luminance" maskUnits="userSpaceOnUse" x="159" y="201" width="49" height="20">
<path d="M207.264 218.972C198.676 208.779 190.446 203.82 183.675 202.525C177.096 201.258 168.013 202.608 159.122 203.131C165.783 214.867 171.481 218.669 177.702 220.294C180.509 221.038 184.088 221.093 188.134 220.9C193.776 220.625 200.603 219.688 206.135 220.9C207.622 221.231 208.723 220.68 207.264 218.944V218.972Z" fill="white"/>
</mask>
<g mask="url(#mask2_700_438)">
<path fill-rule="evenodd" clip-rule="evenodd" d="M181.693 220.57C187.886 220.57 192.923 215.528 192.923 209.33C192.923 203.131 187.886 198.09 181.693 198.09C175.5 198.09 170.462 203.131 170.462 209.33C170.462 215.528 175.5 220.57 181.693 220.57Z" fill="#616161"/>
<path fill-rule="evenodd" clip-rule="evenodd" d="M186.978 205.859L190.473 207.622C191.629 216.768 183.812 220.46 178.142 218.421C173.848 216.878 170.05 211.231 173.242 203.93L176.38 204.316C173.353 208.779 175.83 213.325 179.518 214.482C182.849 215.528 187.528 213.931 186.95 205.886L186.978 205.859Z" fill="#5C5C5C"/>
<path fill-rule="evenodd" clip-rule="evenodd" d="M181.115 212.691C183.867 212.691 186.097 210.459 186.097 207.704C186.097 204.95 183.867 202.718 181.115 202.718C178.362 202.718 176.133 204.95 176.133 207.704C176.133 210.459 178.362 212.691 181.115 212.691Z" fill="#050505"/>
<path fill-rule="evenodd" clip-rule="evenodd" d="M186.345 212.829C187.941 212.829 189.235 211.534 189.235 209.936C189.235 208.338 187.941 207.043 186.345 207.043C184.748 207.043 183.454 208.338 183.454 209.936C183.454 211.534 184.748 212.829 186.345 212.829Z" fill="white"/>
<path fill-rule="evenodd" clip-rule="evenodd" d="M174.371 216.327C176.078 216.327 177.454 214.922 177.454 213.242C177.454 211.561 176.078 210.156 174.371 210.156C172.664 210.156 171.288 211.561 171.288 213.242C171.288 214.922 172.692 216.327 174.371 216.327Z" fill="#7D7D7D"/>
</g>
<path fill-rule="evenodd" clip-rule="evenodd" d="M166.499 197.208C159.755 195.914 157.498 194.839 154.167 190.955C155.461 194.536 156.397 195.969 160.25 198.09L166.526 197.208H166.499Z" fill="#050505"/>
<path fill-rule="evenodd" clip-rule="evenodd" d="M172.334 197.208C165.563 196.106 163.251 195.087 159.838 191.285C161.241 194.839 162.205 196.244 166.113 198.255L172.362 197.208H172.334Z" fill="#050505"/>
<path fill-rule="evenodd" clip-rule="evenodd" d="M178.417 197.236C171.894 196.299 169.664 195.363 166.279 191.809C167.682 195.197 168.646 196.52 172.444 198.365L178.417 197.236Z" fill="#050505"/>
<path fill-rule="evenodd" clip-rule="evenodd" d="M210.484 185.362C196.749 177.29 183.234 171.891 172.417 170.761C163.609 169.852 155.709 175.362 142.111 178.117C158.296 178.117 165.508 173.434 171.151 174.067C179.215 174.976 184.198 178.613 202.64 189.357C204.869 190.652 207.704 190.624 210.016 190.018C212.439 189.384 216.265 188.778 210.484 185.362Z" fill="#212121"/>
<path fill-rule="evenodd" clip-rule="evenodd" d="M133.551 236.851C102.089 196.161 86.7851 111.338 135.01 67.0669C177.069 28.4433 238.946 25.3853 277.151 54.3669C272.417 55.7718 302.667 97.6738 306.438 100.016C277.013 148.887 160.058 157.317 133.551 236.851Z" fill="#212121"/>
<path fill-rule="evenodd" clip-rule="evenodd" d="M133.551 236.851C102.089 196.161 86.7851 111.338 135.01 67.0669C177.069 28.4433 238.946 25.3853 277.151 54.3669C274.178 66.9567 304.236 77.4253 306.383 101.062C260.636 66.9843 149.268 72.9073 121.825 136.628C151.855 63.5407 220.641 50.3998 285.546 74.4225C249.46 33.5949 176.078 49.3254 145.552 72.6318C105.612 103.156 103.658 176.574 134.707 233.656C134.322 234.702 133.936 235.777 133.578 236.851H133.551Z" fill="#141414"/>
<path fill-rule="evenodd" clip-rule="evenodd" d="M306.466 102.743C310.429 123.074 326.834 147.317 325.541 177.07C324.825 193.214 324.164 209.66 320.999 231.397C327.137 210.735 334.569 183.544 336.578 172.8C341.973 143.736 328.596 135.499 306.961 93.7068L306.466 102.743Z" fill="#212121"/>
<path fill-rule="evenodd" clip-rule="evenodd" d="M306.466 102.743C310.429 123.074 326.834 147.317 325.541 177.07C324.825 193.214 324.164 209.66 320.999 231.397C336.468 179.274 326.449 142.634 306.961 93.7068L306.466 102.743Z" fill="#0F0F0F"/>
<path fill-rule="evenodd" clip-rule="evenodd" d="M325.155 216.906C331.348 209.936 333.606 214.371 330.688 221.92C328.541 227.512 326.614 238.697 320.971 239.634L325.155 216.906Z" fill="#878787"/>
<path fill-rule="evenodd" clip-rule="evenodd" d="M200.245 300.352C202.282 300.93 204.732 301.316 206.218 301.702C214.778 303.878 219.953 307.046 228.376 309.14L228.183 310.269C229.174 310.104 230.138 309.939 231.046 309.746C231.954 309.939 232.89 310.104 233.881 310.269L233.688 309.14C242.111 307.046 247.286 303.906 255.846 301.702C257.305 301.316 259.755 300.93 261.792 300.352C265.921 299.222 266.746 295.586 265.288 294.952C264.682 294.677 263.719 294.925 262.425 295.999C260.388 297.707 259.397 298.451 255.791 299.029C246.846 300.407 243.019 296.963 231.349 294.98V294.869L230.963 294.925L230.606 294.869V294.98C218.907 296.963 215.081 300.407 206.163 299.029C202.585 298.478 201.566 297.735 199.529 295.999C198.236 294.925 197.272 294.677 196.667 294.952C195.208 295.586 196.034 299.195 200.162 300.352H200.245Z" fill="#828282"/>
<path fill-rule="evenodd" clip-rule="evenodd" d="M209.301 297.514C213.925 306.33 223.972 308.727 231.596 308.258C238.698 307.818 247.671 305.228 252.488 297.101L237.294 293.768L231.514 295.613L224.33 295.173L209.301 297.514Z" fill="white"/>
<path fill-rule="evenodd" clip-rule="evenodd" d="M249.763 291.013C255.654 293.161 259.562 296.385 263.443 295.283C259.48 302.225 249.956 301.068 243.57 299.057C234.432 296.164 228.486 296.164 219.348 299.057C212.934 301.095 203.438 302.253 199.474 295.283C203.355 296.412 207.264 293.161 213.154 291.013C221.632 287.927 227.082 288.423 231.459 294.952C235.835 288.423 241.285 287.927 249.763 291.013Z" fill="#9C9C9C"/>
<path fill-rule="evenodd" clip-rule="evenodd" d="M261.379 297.845C260.058 300.848 251.332 300.6 249.763 300.407C247.589 300.131 245.442 299.635 243.57 299.029C234.432 296.137 228.486 296.137 219.348 299.029C212.934 301.068 203.438 302.225 199.474 295.255C203.355 296.385 207.264 293.134 213.154 290.985C218.797 288.919 223.091 288.451 226.614 290.296H226.559C223.944 289.993 219.926 290.021 215.136 291.701C212.163 292.748 207.594 294.897 206.768 296.577C205.365 299.443 213.127 299.195 219.788 297.101C224.165 295.723 226.146 295.668 230.743 295.751C240.68 295.944 244.12 298.093 249.626 299.525C251.084 299.911 258.351 300.242 261.406 297.79L261.379 297.845Z" fill="#616161"/>
<path fill-rule="evenodd" clip-rule="evenodd" d="M210.154 295.944C215.852 298.23 222.733 293.602 229.78 294.677C224.412 288.092 216.705 293.657 210.154 295.944Z" fill="#BDBDBD"/>
<path fill-rule="evenodd" clip-rule="evenodd" d="M233.854 294.429C240.928 294.208 254.305 302.776 261.406 296.605C256.259 296.054 247.176 290.682 242.276 290.517C239.331 290.434 236.523 291.729 233.854 294.429Z" fill="#BDBDBD"/>
<path fill-rule="evenodd" clip-rule="evenodd" d="M213.32 303.41C210.457 302.28 208.585 301.564 206.328 300.848C203.988 300.104 202.97 299.443 202.502 299.994C201.126 301.536 203.933 305.503 205.888 308.065C209.906 313.355 216.733 317.873 220.889 319.113C228.624 321.427 237.845 321.95 245.111 317.955C248.965 315.834 251.855 312.886 254.14 310.187C257.168 306.633 259.067 303.327 259.755 301.399C260.828 298.368 257.801 300.104 255.544 300.848C253.011 301.702 250.424 302.473 248.139 303.492C233.496 309.911 228.376 309.305 213.347 303.437L213.32 303.41Z" fill="#9C9C9C"/>
<path fill-rule="evenodd" clip-rule="evenodd" d="M213.32 303.41C210.457 302.28 208.585 301.564 206.328 300.848C203.988 300.104 202.97 299.443 202.502 299.994C201.126 301.536 203.933 305.503 205.888 308.065C209.906 313.355 216.733 317.873 220.889 319.113C228.624 321.427 237.845 321.95 245.111 317.956C245.772 317.597 251.993 314.209 256.094 307.845C245.277 322.363 229.119 320.187 220.861 317.129C216.347 315.476 210.429 310.545 212.274 307.735C213.347 306.082 218.852 308.589 224.715 309.47C231.046 310.435 238.368 308.754 244.478 304.98C232.532 309.718 227.027 308.754 213.32 303.382V303.41Z" fill="#616161"/>
<path fill-rule="evenodd" clip-rule="evenodd" d="M226.697 317.046C237.624 318.92 247.947 315.917 254.773 307.074C255.984 305.476 256.59 304.098 255.599 303.547C254.525 302.969 254.745 303.162 242.414 308.451C230.083 313.713 218.88 310.021 218.494 311.564C218.302 312.363 219.403 315.779 226.697 317.046Z" fill="#BDBDBD"/>
<path fill-rule="evenodd" clip-rule="evenodd" d="M244.946 308.258C247.754 307.184 250.424 307.349 250.892 308.589C251.36 309.856 249.488 311.729 246.68 312.776C243.873 313.851 241.203 313.685 240.735 312.446C240.267 311.178 242.139 309.305 244.946 308.258Z" fill="#D4D4D4"/>
<path fill-rule="evenodd" clip-rule="evenodd" d="M248.965 307.101C250.782 306.109 252.598 305.972 253.039 306.771C253.479 307.57 252.378 309.03 250.561 310.021C248.772 311.013 246.928 311.151 246.488 310.352C246.047 309.553 247.148 308.093 248.965 307.101Z" fill="white"/>
<path fill-rule="evenodd" clip-rule="evenodd" d="M244.699 290.765C246.46 291.261 247.699 292.307 247.479 293.106C247.258 293.905 245.634 294.126 243.873 293.602C242.111 293.106 240.873 292.059 241.093 291.261C241.313 290.462 242.937 290.241 244.699 290.765Z" fill="white"/>
<path fill-rule="evenodd" clip-rule="evenodd" d="M300.74 50.7579C316.622 58.6645 291.519 48.8571 286.042 55.4413C303.328 58.5818 337.404 69.629 337.845 124.672C333.468 112.275 325.568 85.3044 308.447 82.1913C331.073 117.537 332.505 154.562 328.156 194.564L336.854 170.816L337.872 181.175C362.287 133.956 356.81 64.2569 300.795 50.7579H300.74Z" fill="#333333"/>
<path fill-rule="evenodd" clip-rule="evenodd" d="M328.321 191.203C343.432 163.543 349.295 129.465 340.845 108.335C347.203 146.518 328.458 190.486 328.321 191.203Z" fill="#666666"/>
<path fill-rule="evenodd" clip-rule="evenodd" d="M302.254 54.7526C351.91 71.6125 354.167 114.038 338.34 180.817C359.782 111.586 346.735 64.56 302.254 54.7526Z" fill="#999999"/>
<path fill-rule="evenodd" clip-rule="evenodd" d="M336.523 217.925C330.33 231.617 328.541 239.028 321.495 241.838L317.834 257.045C326.532 260.516 329.945 242.609 330.716 238.559C331.761 232.884 334.982 227.071 336.551 217.925H336.523Z" fill="#F2F2F2"/>
<path fill-rule="evenodd" clip-rule="evenodd" d="M313.099 85.2769C332.477 115.415 333.964 142.799 331.156 183.599C336.771 144.783 341.918 112.165 313.099 85.2769Z" fill="#666666"/>
<path d="M233.606 61.8051C285.161 61.8051 317.063 98.7758 325.513 147.345C329.89 172.414 326.587 200.018 322.623 226.576C317.421 261.315 312.549 275.144 300.135 295.2C289.648 312.143 281.225 321.372 270.16 331.234C253.809 345.78 243.047 353.218 232.532 353.218C222.018 353.218 212.356 346.166 193.969 330.16C184.941 322.308 177.977 313.823 168.976 301.178C154.773 281.178 148.965 262.334 142.249 228.835C136.193 198.613 133.964 175.472 139.469 139.603C147.864 84.7259 175.885 61.9429 233.22 61.75C233.33 61.75 233.468 61.75 233.578 61.75M233.578 58.9951H233.193C174.151 59.188 145.304 83.1831 136.716 139.19C131.156 175.472 133.413 198.889 139.524 229.386C146.157 262.527 151.91 281.977 166.719 302.776C175.169 314.65 182.353 323.713 192.152 332.226C211.007 348.645 221.302 355.946 232.505 355.946C243.708 355.946 255.819 347.626 271.949 333.273C282.684 323.713 291.547 314.236 302.447 296.633C315.494 275.53 320.201 261.205 325.32 226.961C329.091 201.781 332.725 172.745 328.183 146.849C318.742 92.66 282.463 59.0227 233.551 59.0227L233.578 58.9951Z" fill="#231F20"/>
<path fill-rule="evenodd" clip-rule="evenodd" d="M269.499 65.3865C152.323 27.0659 81.803 107.481 135.835 230.598C167.875 144.287 252.461 157.317 305.557 101.503C247.203 67.6731 153.011 81.3649 120.449 145.637C134.597 63.8713 212.494 51.8875 269.471 65.3865H269.499Z" fill="#333333"/>
<path fill-rule="evenodd" clip-rule="evenodd" d="M300.768 102.082C250.451 121.972 206.108 122.633 174.233 147.235C140.019 173.682 111.833 231.479 143.405 274.29C116.843 227.705 156.865 189.467 185.767 167.951C209.604 150.21 272.059 142.138 300.768 102.054V102.082Z" fill="url(#paint6_linear_700_438)"/>
<path fill-rule="evenodd" clip-rule="evenodd" d="M322.458 101.338C341.836 131.476 335.312 146.821 332.147 182.938C337.982 148.226 345.552 129.245 322.458 101.338Z" fill="#999999"/>
<path fill-rule="evenodd" clip-rule="evenodd" d="M287.06 96.2413C226.256 79.5191 99.1441 98.1422 128.018 202.58C152.819 114.837 239.909 121.945 287.06 96.2413Z" fill="url(#paint7_linear_700_438)"/>
<path fill-rule="evenodd" clip-rule="evenodd" d="M287.721 109.63C214.2 133.708 139.221 139.603 131.349 238.036C145.442 130.209 240.57 135.333 287.721 109.63Z" fill="#999999"/>
<path fill-rule="evenodd" clip-rule="evenodd" d="M283.564 116.297C238.973 146.656 178.61 150.43 147.919 199.219C168.508 149.631 220.063 148.171 283.564 116.297Z" fill="#999999"/>
<path fill-rule="evenodd" clip-rule="evenodd" d="M299.089 97.2332C256.562 129.107 143.047 95.1119 126.669 212.278C132.009 101.393 246.708 114.92 299.089 97.2332Z" fill="url(#paint8_linear_700_438)"/>
<path fill-rule="evenodd" clip-rule="evenodd" d="M299.749 92.5497C233.028 53.8434 166.196 62.4663 127 133.68C167.214 69.7116 229.449 58.4716 299.749 92.5497Z" fill="#0F0F0F"/>
<path fill-rule="evenodd" clip-rule="evenodd" d="M286.73 70.1524C234.376 18.4154 153.534 30.3717 114.311 101.586C154.553 37.6446 228.789 25.7159 286.73 70.1524Z" fill="#0F0F0F"/>
<path fill-rule="evenodd" clip-rule="evenodd" d="M198.676 96.2413C147.066 119.245 136.138 132.716 126.174 181.864C128.046 132.275 145.855 110.76 198.676 96.2413Z" fill="#999999"/>
<path fill-rule="evenodd" clip-rule="evenodd" d="M332.477 190.238C336.688 187.153 339.909 189.522 340.762 194.509C342.001 201.809 334.844 215.859 332.532 224.454C333.165 212.608 340.404 201.093 338.918 194.729C338.01 190.789 334.844 190.128 331.596 193.682C331.899 192.525 332.202 191.396 332.477 190.266V190.238Z" fill="#DEDEDE"/>
<path fill-rule="evenodd" clip-rule="evenodd" d="M279.16 392.393C276.27 380.988 275.94 365.174 277.536 342.612L279.683 312.308C278.169 343.989 278.417 366.69 284.693 382.861C284.225 385.919 282.298 389.528 279.16 392.42V392.393Z" fill="#F2F2F2"/>
</g>
</g>
<defs>
<linearGradient id="paint0_linear_700_438" x1="114.806" y1="410.162" x2="155.968" y2="245.133" gradientUnits="userSpaceOnUse">
<stop stop-color="#141414"/>
<stop offset="1" stop-color="#171717"/>
</linearGradient>
<linearGradient id="paint1_linear_700_438" x1="-93.8918" y1="427.738" x2="41.8241" y2="464.072" gradientUnits="userSpaceOnUse">
<stop stop-color="#616161"/>
<stop offset="1" stop-color="#141414"/>
</linearGradient>
<linearGradient id="paint2_linear_700_438" x1="73.573" y1="454.819" x2="106.693" y2="467.528" gradientUnits="userSpaceOnUse">
<stop stop-color="#616161"/>
<stop offset="1" stop-color="#141414"/>
</linearGradient>
<linearGradient id="paint3_linear_700_438" x1="-288.827" y1="1749.26" x2="784.571" y2="-1365.41" gradientUnits="userSpaceOnUse">
<stop stop-color="#141414"/>
<stop offset="1" stop-color="#171717"/>
</linearGradient>
<linearGradient id="paint4_linear_700_438" x1="-127.143" y1="1747.75" x2="619.053" y2="-1759.89" gradientUnits="userSpaceOnUse">
<stop stop-color="#616161"/>
<stop offset="1" stop-color="#141414"/>
</linearGradient>
<linearGradient id="paint5_linear_700_438" x1="112.549" y1="732.182" x2="139.487" y2="-808.411" gradientUnits="userSpaceOnUse">
<stop stop-color="#616161"/>
<stop offset="1" stop-color="#141414"/>
</linearGradient>
<linearGradient id="paint6_linear_700_438" x1="-3027.3" y1="2443.58" x2="4734.83" y2="-2986.89" gradientUnits="userSpaceOnUse">
<stop stop-color="#616161"/>
<stop offset="1" stop-color="#141414"/>
</linearGradient>
<linearGradient id="paint7_linear_700_438" x1="78.6927" y1="191.533" x2="364.9" y2="39.5005" gradientUnits="userSpaceOnUse">
<stop stop-color="#616161"/>
<stop offset="1" stop-color="#141414"/>
</linearGradient>
<linearGradient id="paint8_linear_700_438" x1="-6874.23" y1="3909.02" x2="36093.2" y2="-18917.6" gradientUnits="userSpaceOnUse">
<stop stop-color="#616161"/>
<stop offset="1" stop-color="#141414"/>
</linearGradient>
<clipPath id="clip0_700_438">
<rect width="506" height="689" fill="white" transform="translate(-73 35)"/>
</clipPath>
</defs>
</svg>
