<svg width="420" height="212" viewBox="0 0 420 212" fill="none" xmlns="http://www.w3.org/2000/svg">
<path d="M358.086 97.681C354.646 61.1062 304.55 35.7016 266.102 34.4133C221.794 32.9333 203.66 63.8425 170.399 52.673C140.047 42.4908 139.643 11.5281 117.256 5.63062C96.6823 0.211681 62.9526 17.3822 4.5555 107.326" stroke="#282828" stroke-width="0.75" stroke-miterlimit="10"/>
<path d="M6.95225 111.539C64.6301 22.9009 98.4115 5.01002 119.318 9.61458C134.812 13.0485 140.147 28.3177 151.832 40.5961C157.656 46.9077 164.956 51.6739 173.076 54.4666C199.674 63.6355 216.544 46.796 245.698 40.5716C253.129 38.9628 260.725 38.2334 268.327 38.3985C306.958 39.1106 356.624 61.4162 360.915 96.7038" stroke="#282828" stroke-width="0.75" stroke-miterlimit="10"/>
<path d="M9.35547 115.739C66.3138 28.4136 100.128 9.80781 121.322 13.6023C136.902 16.3928 142.627 30.9634 154.365 42.6471C160.345 48.7484 167.638 53.4035 175.69 56.2574C201.893 65.5403 218.678 50.4439 247.915 44.5753C255.346 43.0684 262.913 42.3351 270.495 42.3873C309.31 42.6428 358.545 61.7238 363.686 95.7241" stroke="#282828" stroke-width="0.75" stroke-miterlimit="10"/>
<path d="M11.7525 119.927C67.9779 33.9317 101.843 14.6181 123.352 17.5848C139.029 19.7451 145.12 33.6034 156.928 44.6996C163.051 50.5865 170.333 55.1328 178.309 58.0485C204.143 67.4465 220.785 54.0844 250.138 48.5792C257.572 47.1578 265.12 46.4145 272.688 46.3585C311.685 46.0881 360.485 62.0133 366.477 94.7265" stroke="#282828" stroke-width="0.75" stroke-miterlimit="10"/>
<path d="M14.1489 124.146C69.6556 39.4442 103.546 19.4343 125.388 21.574C141.144 23.1095 147.632 36.2569 159.505 46.7465C165.775 52.4221 173.058 56.8647 180.973 59.8417C206.437 69.3548 222.957 57.7341 252.438 52.5867C259.859 51.2675 267.37 50.5218 274.906 50.356C314.09 49.5599 362.456 62.3358 369.304 93.762" stroke="#282828" stroke-width="0.75" stroke-miterlimit="10"/>
<path d="M16.5201 128.352C71.3264 44.9565 105.295 23.643 127.424 25.557C143.22 26.9057 150.145 38.8664 162.069 48.799C168.483 54.2537 175.767 58.5923 183.618 61.634C208.712 71.2622 225.096 61.3824 254.661 56.5971C262.075 55.3637 269.562 54.6094 277.074 54.3387C316.446 52.9919 364.377 62.6371 372.075 92.7823" stroke="#282828" stroke-width="0.75" stroke-miterlimit="10"/>
<path d="M18.9485 132.56C73.004 50.4752 106.95 29.1103 129.456 29.5081C145.347 29.8683 152.67 41.5141 164.639 50.858C171.19 56.0894 178.477 60.3264 186.263 63.4325C210.987 73.1758 227.254 65.0314 256.909 60.6084C264.318 59.4685 271.78 58.7097 279.267 58.3349C318.827 56.4625 366.324 62.9332 374.872 91.81" stroke="#282828" stroke-width="0.75" stroke-miterlimit="10"/>
<path d="M21.3453 136.767C74.6627 55.9868 108.647 33.9135 131.49 33.5286C147.449 33.2383 155.209 44.1059 167.21 52.9045C173.893 57.9078 181.184 62.0413 188.909 65.2059C213.257 75.0703 229.407 68.6739 259.159 64.5947C266.082 63.6535 273.466 62.7836 281.461 62.2998C321.215 59.8832 368.27 63.2481 377.668 90.8252" stroke="#282828" stroke-width="0.75" stroke-miterlimit="10"/>
<path d="M23.7414 140.974C76.3519 61.5061 110.341 38.7858 133.52 37.4987C149.55 36.6146 157.754 46.7043 169.793 54.9454C176.608 59.718 183.908 63.7562 191.573 66.9928C215.551 76.9723 231.571 72.3046 261.426 68.6008C268.377 67.7362 275.742 66.878 283.679 66.2848C323.571 63.3277 370.216 63.5569 380.465 89.8404" stroke="#282828" stroke-width="0.75" stroke-miterlimit="10"/>
<path d="M26.1451 145.174C78.0297 67.0185 112.036 43.6454 135.556 41.5003C151.65 40.0284 160.331 49.3166 172.345 57.0035C179.282 61.5423 186.591 65.4873 194.192 68.7963C217.807 78.8912 233.704 75.9649 263.657 72.5924C270.604 71.8031 277.975 70.9452 285.854 70.2487C325.98 66.7242 372.164 63.8279 383.263 88.8304" stroke="#282828" stroke-width="0.75" stroke-miterlimit="10"/>
<path d="M28.5419 149.381C79.701 72.5308 113.73 48.5177 137.574 45.4824C153.732 43.429 162.864 51.902 174.902 59.0621C181.962 63.358 189.284 67.2075 196.825 70.5881C220.064 80.7979 235.838 79.6067 265.892 76.6284C272.867 75.9284 280.219 75.0634 288.033 74.2697C328.348 70.1756 374.09 64.1672 386.052 87.8831" stroke="#282828" stroke-width="0.75" stroke-miterlimit="10"/>
<path d="M30.9381 153.588C81.3777 78.0494 115.436 53.3904 139.622 49.4658C155.851 46.8374 165.441 54.4829 177.478 61.1151C184.398 64.9247 191.485 68.7734 199.482 72.3808C222.352 82.6994 238.002 83.256 268.153 80.634C275.143 80.0164 282.483 79.1445 290.251 78.2544C330.755 73.5908 376.061 64.4706 388.867 86.9053" stroke="#282828" stroke-width="0.75" stroke-miterlimit="10"/>
<path d="M33.3349 157.794C83.0541 83.5871 117.099 58.2739 141.652 53.4547C157.951 50.2451 168.02 57.0515 180.049 63.168C187.147 66.7784 194.258 70.5276 202.127 74.1732C224.626 84.6257 240.148 86.8983 270.402 84.6393C277.406 84.1103 284.741 83.2318 292.432 82.2377C333.12 76.9918 377.995 64.7726 391.651 85.9263" stroke="#282828" stroke-width="0.75" stroke-miterlimit="10"/>
<path d="M35.7193 162C84.7264 89.0804 118.83 63.1666 143.681 57.4436C160.05 53.6715 170.598 59.6136 182.619 65.227C189.903 68.6259 197.03 72.2816 204.747 75.9705C226.884 86.5197 242.269 90.5519 272.65 88.6569C279.676 88.2043 286.992 87.3188 294.625 86.234C335.503 80.3934 379.942 65.075 394.448 84.9478" stroke="#282828" stroke-width="0.75" stroke-miterlimit="10"/>
<path d="M38.1351 166.202C86.4039 94.5929 120.516 68.0699 145.718 61.4265C162.163 57.086 173.184 62.1574 185.183 67.2733C192.653 70.4544 199.809 74.0298 207.417 77.7577C229.172 88.4214 244.446 94.1894 274.9 92.6558C282.246 92.2097 289.564 91.3876 296.826 90.193C337.88 83.7886 381.907 65.3908 397.244 83.963" stroke="#282828" stroke-width="0.75" stroke-miterlimit="10"/>
<path d="M40.532 170.408C88.0812 100.112 122.254 72.9566 147.729 65.4081C164.25 60.5056 175.751 64.6938 187.76 69.3263C195.416 72.2834 202.588 75.7778 210.063 79.5499C231.454 90.3289 246.598 97.8381 277.136 96.6603C284.471 96.3088 291.776 95.4853 299.006 94.1949C340.259 87.146 383.835 65.6923 400.048 82.9596" stroke="#282828" stroke-width="0.75" stroke-miterlimit="10"/>
<path d="M42.9285 174.615C89.7523 105.624 123.989 77.8873 149.784 69.3919C166.368 63.9391 178.356 67.2195 190.324 71.3725C198.166 74.0993 205.354 77.5316 212.701 81.3418C233.717 92.2357 248.744 101.48 279.397 100.666C286.722 100.401 294.015 99.5695 301.211 98.1792C342.63 90.5471 385.781 66.001 402.844 82.0061" stroke="#282828" stroke-width="0.75" stroke-miterlimit="10"/>
<path d="M45.3317 178.822C91.4285 111.168 125.675 82.7968 151.814 73.3807C168.492 67.3667 180.944 69.7319 192.888 73.425C200.943 75.9101 208.127 79.2794 215.346 83.1341C235.993 94.1306 250.89 105.129 281.646 104.677C288.959 104.495 296.241 103.655 303.405 102.169C345.002 93.9231 387.727 66.3035 405.64 81.0276" stroke="#282828" stroke-width="0.75" stroke-miterlimit="10"/>
<path d="M47.7283 183.029C93.0757 116.654 127.398 87.7207 153.849 77.3888C170.609 70.8255 183.523 72.2628 195.457 75.5155C203.678 77.7757 210.91 81.0717 217.99 84.9641C238.266 96.0882 253.04 108.815 283.894 108.708C291.195 108.608 298.467 107.76 305.596 106.178C347.373 97.3118 389.703 66.6513 408.436 80.0743" stroke="#282828" stroke-width="0.75" stroke-miterlimit="10"/>
<path d="M50.1242 187.235C94.7772 122.173 129.127 92.6447 155.879 81.3524C172.733 74.2341 186.106 74.7308 198.028 77.5306C206.438 79.5103 213.678 82.7878 220.635 86.7311C240.535 97.9701 255.187 112.432 286.142 112.7C293.432 112.686 300.696 111.83 307.79 110.149C349.739 100.643 391.619 66.9145 411.232 79.0705" stroke="#282828" stroke-width="0.75" stroke-miterlimit="10"/>
<path d="M52.528 191.436C96.4552 127.686 130.856 97.6003 157.89 85.3343C174.833 77.6732 188.657 77.2164 200.568 79.582C209.166 81.2876 216.426 84.5345 223.25 88.5032C242.787 99.8639 257.315 116.068 288.367 116.692C295.646 116.757 302.904 115.893 309.965 114.12C352.06 103.923 393.541 67.2222 414.017 78.0853" stroke="#282828" stroke-width="0.75" stroke-miterlimit="10"/>
<path d="M54.9179 195.643C125.031 94.2993 172.13 76.5759 203.162 81.6359C237.039 87.1587 248.594 119.365 290.64 120.704C339.964 122.268 391.898 65.903 416.826 77.1072" stroke="#282828" stroke-width="0.75" stroke-miterlimit="10"/>
</svg>
