<svg width="417" height="178" viewBox="0 0 417 178" fill="none" xmlns="http://www.w3.org/2000/svg">
<path d="M36.6067 172.452C107.315 137.843 131.444 99.6764 140.189 70.7223C149.947 38.4082 144.915 3.09036 155.449 0.897093C162.194 -0.507822 170.494 12.6802 185.968 41.5901C232.893 129.255 233.956 152.536 253.948 158.578C281.954 167.049 299.219 127.199 342.269 128.058C373.887 128.691 399.473 150.878 416.718 170.601" stroke="#282828" stroke-width="0.75" stroke-miterlimit="10"/>
<path d="M34.9087 168.972C103.626 135.109 129.141 98.01 138.579 70.874C149.126 40.5487 144.145 7.05528 154.57 5.4712C161.272 4.45203 169.416 17.4146 184.363 45.3337C229.788 130.167 231.197 153.738 251.036 159.482C279.205 167.523 295.717 124.791 339.223 124.209C340.171 124.196 341.105 124.196 342.04 124.222C372.908 125.081 398.858 147.279 416.472 166.88" stroke="#282828" stroke-width="0.75" stroke-miterlimit="10"/>
<path d="M33.2163 165.493C99.9376 132.378 126.819 96.4101 136.974 71.0279C148.294 42.7357 143.384 11.0245 153.695 10.0474C160.356 9.41508 168.345 22.1531 182.761 49.0805C226.677 131.078 228.425 155.014 248.131 160.385C276.437 168.1 292.231 122.362 336.185 120.359C337.149 120.315 338.11 120.27 339.071 120.276C370.449 120.449 397.749 143.105 416.232 163.159" stroke="#282828" stroke-width="0.75" stroke-miterlimit="10"/>
<path d="M31.52 162.014C96.2546 129.638 124.459 94.8872 135.367 71.1818C147.427 44.969 142.623 14.9968 152.817 14.6248C159.44 14.3824 167.264 26.8907 181.157 52.8262C223.569 131.997 225.662 156.248 245.224 161.288C273.681 168.619 288.747 119.914 333.143 116.509C334.129 116.433 335.113 116.36 336.094 116.329C367.981 115.311 396.631 138.931 415.984 159.435" stroke="#282828" stroke-width="0.75" stroke-miterlimit="10"/>
<path d="M29.8245 158.535C92.5682 126.907 122.053 93.4454 133.759 71.3357C146.511 47.2476 141.868 18.9734 151.94 19.2021C158.526 19.3507 166.189 31.6292 179.554 56.573C220.461 132.912 222.901 157.479 242.317 162.19C270.933 169.134 285.268 117.449 330.103 112.655C331.11 112.549 332.117 112.444 333.128 112.379C365.52 110.437 395.522 134.754 415.747 155.714" stroke="#282828" stroke-width="0.75" stroke-miterlimit="10"/>
<path d="M28.1287 155.056C88.8825 124.175 119.586 92.091 132.153 71.4905C145.526 49.5684 141.112 22.953 151.066 23.7782C157.617 24.3221 165.114 36.3666 177.952 60.3197C217.356 133.826 220.143 158.706 239.413 163.093C268.186 169.644 281.792 114.967 327.064 108.808C328.093 108.668 329.122 108.525 330.159 108.435C363.056 105.578 394.415 130.582 415.507 151.995" stroke="#282828" stroke-width="0.75" stroke-miterlimit="10"/>
<path d="M26.4338 151.577C85.1957 121.44 117.039 90.8232 130.544 71.6444C144.438 51.9124 140.363 26.938 150.186 28.3556C156.705 29.2957 164.035 41.1084 176.345 64.0655C214.245 134.74 217.384 159.93 236.504 163.996C265.44 170.15 278.313 112.47 324.022 104.958C325.076 104.785 326.123 104.608 327.183 104.489C360.583 100.724 393.299 126.411 415.26 148.274" stroke="#282828" stroke-width="0.75" stroke-miterlimit="10"/>
<path d="M24.738 148.098C81.509 118.706 111.267 86.5473 128.937 71.7983C139.639 51.8713 139.612 30.9283 149.31 32.9319C155.796 34.2725 162.959 45.8427 174.742 67.8176C211.137 135.66 214.627 161.154 233.597 164.904C262.696 170.656 274.835 109.964 320.98 101.113C322.053 100.907 323.127 100.697 324.213 100.547C358.118 95.8832 392.193 122.239 415.021 144.558" stroke="#282828" stroke-width="0.75" stroke-miterlimit="10"/>
<path d="M23.0425 144.619C77.8236 115.972 108.386 84.6702 127.33 71.9522C138.166 53.7947 138.862 34.9238 148.433 37.5091C154.887 39.2523 161.882 50.5781 173.139 71.559C208.024 136.57 211.872 162.365 230.692 165.802C259.953 171.146 271.356 107.433 317.94 97.2575C319.034 97.0182 320.13 96.7737 321.243 96.5946C355.652 91.0392 391.077 118.06 414.778 140.831" stroke="#282828" stroke-width="0.75" stroke-miterlimit="10"/>
<path d="M21.3467 141.14C74.1369 113.239 105.503 82.7952 125.721 72.1061C136.693 55.7172 138.112 38.9235 147.556 42.0854C153.978 44.2344 160.806 55.3167 171.534 75.3048C204.921 137.488 209.118 163.576 227.785 166.703C257.213 171.635 267.874 104.895 314.899 93.4053C316.014 93.1334 317.133 92.8562 318.272 92.6465C353.186 86.2047 389.965 113.885 414.536 137.108" stroke="#282828" stroke-width="0.75" stroke-miterlimit="10"/>
<path d="M19.6516 137.661C70.452 110.505 102.622 80.9192 124.114 72.261C135.22 57.6417 137.36 42.9296 146.678 46.6627C153.067 49.2217 159.73 60.0563 169.931 79.0484C201.813 138.396 206.365 164.782 224.878 167.604C254.473 172.116 264.389 102.345 311.858 89.5531C312.995 89.2464 314.137 88.9387 315.299 88.6973C350.721 81.3756 388.853 109.709 414.293 133.385" stroke="#282828" stroke-width="0.75" stroke-miterlimit="10"/>
<path d="M17.9558 134.181C66.7631 107.772 99.7423 79.0433 122.508 72.4192C133.749 59.5694 136.607 46.9421 145.8 51.2443C152.154 54.2164 158.653 64.7981 168.326 82.8027C198.704 139.319 203.611 165.993 221.972 168.514C251.735 172.602 260.902 99.7966 308.817 85.7105C309.977 85.3701 311.136 85.0297 312.328 84.762C348.258 76.5644 387.741 105.545 414.051 129.674" stroke="#282828" stroke-width="0.75" stroke-miterlimit="10"/>
<path d="M16.26 130.701C63.0775 105.038 96.8566 77.1672 120.899 72.5688C132.276 61.4886 135.85 50.9512 144.924 55.8163C151.241 59.2037 157.577 69.5324 166.723 86.5452C195.601 140.229 200.86 167.189 219.064 169.413C248.996 173.069 257.408 97.2228 305.777 81.8562C306.956 81.481 308.143 81.11 309.36 80.8075C345.8 71.7435 386.633 101.36 413.812 125.946" stroke="#282828" stroke-width="0.75" stroke-miterlimit="10"/>
<path d="M14.5676 127.222C59.391 102.304 93.9743 75.2922 119.292 72.7248C130.802 63.4142 135.09 54.9668 144.047 60.3936C150.327 64.1983 156.501 74.2699 165.12 90.291C192.49 141.144 198.109 168.389 216.158 170.316C246.26 173.535 253.911 94.6427 302.735 78.0061C303.937 77.5961 305.147 77.1935 306.386 76.8605C343.338 66.9281 385.518 97.1891 413.573 122.225" stroke="#282828" stroke-width="0.75" stroke-miterlimit="10"/>
<path d="M12.8696 123.743C55.7042 99.5698 91.0927 73.4161 117.685 72.8775C129.33 65.3365 134.328 58.9833 143.17 64.9729C149.409 69.1961 155.425 79.0094 163.512 94.0398C189.378 142.061 195.353 169.581 213.246 171.22C243.519 173.996 250.406 92.0689 299.69 74.157C300.913 73.7133 302.146 73.2801 303.41 72.9155C340.877 62.1209 384.401 93.0174 413.321 118.505" stroke="#282828" stroke-width="0.75" stroke-miterlimit="10"/>
<path d="M11.1741 120.264C52.0178 96.8359 88.2104 71.5401 116.077 73.0314C127.858 67.26 133.562 63.002 142.294 69.547C148.489 74.1907 154.348 83.7458 161.913 97.7845C186.274 142.973 192.605 170.767 210.345 172.122C240.787 174.446 246.905 89.4751 296.654 70.3101C297.898 69.8316 299.154 69.3679 300.448 68.9726C338.425 57.3139 383.294 88.8406 413.083 114.777" stroke="#282828" stroke-width="0.75" stroke-miterlimit="10"/>
<path d="M9.47803 116.785C48.3319 94.1031 85.3276 69.6684 114.469 73.1854C126.379 69.1804 132.792 67.023 141.417 74.1245C147.565 79.1887 153.271 88.4835 160.309 101.527C183.166 143.883 189.853 171.949 207.438 173.02C238.05 174.885 243.394 86.8762 293.613 66.4507C294.878 65.9363 296.157 65.4431 297.472 65.0162C335.971 52.5122 382.185 84.6671 412.84 111.06" stroke="#282828" stroke-width="0.75" stroke-miterlimit="10"/>
<path d="M7.78223 113.302C44.6452 91.365 82.445 67.785 112.861 73.3362C124.911 71.1028 132.02 71.0385 140.538 78.6965C146.64 84.1771 152.194 93.2168 158.704 105.273C180.057 144.796 187.1 173.13 204.53 173.923C235.313 175.327 239.879 84.2804 290.573 62.607C291.857 62.0568 293.161 61.534 294.5 61.0756C333.521 47.7146 381.07 80.4946 412.598 107.344" stroke="#282828" stroke-width="0.75" stroke-miterlimit="10"/>
<path d="M6.08716 109.824C40.9581 88.6394 79.1627 79.1465 111.254 73.4941C123.263 71.3789 131.246 75.0635 139.662 83.2779C145.714 89.1801 151.119 97.9595 157.101 109.024C176.949 145.717 184.348 174.313 201.624 174.83C232.575 175.757 236.359 81.6749 287.532 58.7536C288.836 58.1697 290.167 57.6164 291.528 57.1263C331.071 42.9159 379.955 76.3187 412.356 103.617" stroke="#282828" stroke-width="0.75" stroke-miterlimit="10"/>
<path d="M4.39136 106.346C37.2746 85.8992 75.9545 67.004 109.647 73.6459C121.801 76.0426 130.468 79.0812 138.785 87.8532C144.786 94.1769 150.042 102.695 155.497 112.769C173.842 146.63 181.594 175.485 198.717 175.73C229.834 176.177 232.835 79.0643 284.49 54.9015C285.817 54.2817 287.17 53.7021 288.557 53.1782C328.654 38.2006 378.846 72.1441 412.117 99.8956" stroke="#282828" stroke-width="0.75" stroke-miterlimit="10"/>
<path d="M2.6958 102.868C33.586 83.1663 73.3325 63.6356 108.04 73.8009C120.351 77.4075 129.688 83.102 137.908 92.4305C143.855 99.1758 148.966 107.435 153.893 116.515C170.734 147.546 178.84 176.731 195.811 176.635C227.093 176.458 229.27 76.3789 281.45 51.0525C282.795 50.3948 284.174 49.7881 285.585 49.2323C326.196 33.3693 377.734 67.9694 411.872 96.1731" stroke="#282828" stroke-width="0.75" stroke-miterlimit="10"/>
<path d="M1 99.3896C29.8993 80.4343 70.9158 60.2881 106.432 73.9568C159.972 94.5657 164.605 178.023 192.905 177.538C225.167 176.986 225.826 68.413 282.614 45.2862C323.737 28.5389 376.626 63.7956 411.629 92.4536" stroke="#282828" stroke-width="0.75" stroke-miterlimit="10"/>
</svg>
