<svg width="435" height="213" viewBox="0 0 435 213" fill="none" xmlns="http://www.w3.org/2000/svg">
<path d="M1 37.3348C61.8619 61.885 94.6687 94.2637 113.589 120.752C129.362 142.835 129.082 151.869 145.83 168.344C182.175 204.097 251.797 228.751 285.539 198.027C302.161 182.892 296.013 163.713 303.963 127.404C311.116 94.7422 329.608 49.8206 381.238 1" stroke="#282828" stroke-width="0.75" stroke-miterlimit="10"/>
<path d="M1.12183 45.2555C60.3201 66.3545 92.7988 96.8151 111.71 121.605C127.621 142.469 128.915 150.812 146.704 167.005C184.023 200.973 249.407 224.623 283.197 195.955C300.602 181.19 296.643 162.339 305.958 126.137C314.16 94.2648 333.03 50.1113 383.77 1.72864" stroke="#282828" stroke-width="0.75" stroke-miterlimit="10"/>
<path d="M1.24341 53.1752C58.777 70.8241 90.9528 99.3741 109.833 122.457C125.917 142.122 128.72 149.756 147.582 165.665C185.791 197.89 247.121 220.549 280.859 193.884C299.085 179.478 297.247 160.983 307.957 124.87C317.175 93.7962 336.456 50.4054 386.309 2.46277" stroke="#282828" stroke-width="0.75" stroke-miterlimit="10"/>
<path d="M1.36523 61.0959C57.2341 75.2947 89.1389 101.941 107.956 123.316C124.234 141.796 128.492 148.708 148.464 164.324C187.489 194.85 244.934 216.537 278.524 191.813C297.609 177.766 297.824 159.643 309.96 123.603C320.151 93.3342 339.885 50.6995 388.844 3.1936" stroke="#282828" stroke-width="0.75" stroke-miterlimit="10"/>
<path d="M1.4873 69.0156C55.697 79.7621 87.3625 104.508 106.08 124.164C122.579 141.488 128.247 147.67 149.336 162.984C189.108 191.855 242.826 212.591 276.179 189.741C296.162 176.051 298.36 158.312 311.953 122.335C323.085 92.8744 343.306 50.9925 391.373 3.92993" stroke="#282828" stroke-width="0.75" stroke-miterlimit="10"/>
<path d="M1.60913 76.9352C54.1497 84.2316 85.6265 107.075 104.204 125.016C120.959 141.198 127.962 146.647 150.214 161.643C190.673 188.91 240.805 208.712 273.84 187.67C294.756 174.346 298.859 156.988 313.951 121.068C325.986 92.4135 346.731 51.2866 393.907 4.65527" stroke="#282828" stroke-width="0.75" stroke-miterlimit="10"/>
<path d="M1.73071 84.8549C52.6066 88.6957 83.9385 109.632 102.327 125.869C119.377 140.924 127.657 145.642 151.091 160.303C192.187 186.013 238.855 204.903 271.5 185.598C293.384 172.656 299.335 155.663 315.949 119.802C328.853 91.9483 350.16 51.5807 396.441 5.38721" stroke="#282828" stroke-width="0.75" stroke-miterlimit="10"/>
<path d="M1.85693 92.7758C51.0682 93.1697 82.3079 112.177 100.455 126.722C117.843 140.658 127.34 144.659 151.972 158.963C193.661 183.166 236.977 201.163 269.165 183.527C292.051 170.987 299.773 154.337 317.952 118.534C331.686 91.4776 353.58 51.8782 398.976 6.11816" stroke="#282828" stroke-width="0.75" stroke-miterlimit="10"/>
<path d="M1.97412 100.695C49.5206 97.6393 80.7252 114.698 98.5738 127.575C116.351 140.397 126.987 143.707 152.845 157.622C195.093 180.366 235.147 197.494 266.82 181.456C290.743 169.345 300.166 152.999 319.946 117.267C334.488 90.9969 357.005 52.1679 401.516 6.849" stroke="#282828" stroke-width="0.75" stroke-miterlimit="10"/>
<path d="M2.09619 108.612C47.9791 102.106 79.2057 117.182 96.6976 128.425C114.906 140.127 126.625 142.765 153.722 156.279C196.495 177.61 233.364 193.888 264.481 179.381C289.462 167.734 300.528 151.645 321.944 115.996C337.261 90.5009 360.431 52.4587 404.045 7.57654" stroke="#282828" stroke-width="0.75" stroke-miterlimit="10"/>
<path d="M2.21826 116.536C46.442 106.578 77.7453 119.631 94.8225 129.28C113.519 139.846 126.25 141.864 154.6 154.941C197.878 174.904 231.623 190.355 262.142 177.313C288.212 166.172 300.854 150.279 323.943 114.732C340.007 89.9982 363.856 52.7559 406.58 8.31274" stroke="#282828" stroke-width="0.75" stroke-miterlimit="10"/>
<path d="M2.34009 124.455C44.8936 111.047 76.3407 122.025 92.946 130.133C112.185 139.529 125.867 140.991 155.477 153.601C199.244 172.239 229.913 186.882 259.802 175.241C286.985 164.655 301.147 148.887 325.941 113.465C342.731 89.4771 367.281 53.049 409.114 9.0426" stroke="#282828" stroke-width="0.75" stroke-miterlimit="10"/>
<path d="M2.46191 132.376C43.3507 115.516 74.9844 124.357 91.0695 130.987C110.901 139.161 125.465 140.147 156.355 152.262C200.599 169.614 228.226 183.471 257.464 173.17C285.776 163.195 301.409 147.47 327.94 112.198C345.434 88.9394 370.706 53.3431 411.649 9.77344" stroke="#282828" stroke-width="0.75" stroke-miterlimit="10"/>
<path d="M2.5835 140.296C41.8087 119.986 73.6684 126.621 89.1928 131.84C109.662 138.721 125.061 139.335 157.229 150.921C201.945 167.025 226.551 180.11 255.122 171.099C284.589 161.799 301.637 146.023 329.935 110.931C348.12 88.383 374.131 53.6339 414.182 10.5076" stroke="#282828" stroke-width="0.75" stroke-miterlimit="10"/>
<path d="M2.70532 148.216C40.2658 124.454 72.3791 128.811 87.312 132.692C108.452 138.186 124.649 138.553 158.105 149.581C203.289 164.473 224.883 176.815 252.78 169.027C283.413 160.475 301.839 144.544 331.932 109.66C350.786 87.8047 377.552 53.9269 416.713 11.2318" stroke="#282828" stroke-width="0.75" stroke-miterlimit="10"/>
<path d="M2.8269 156.136C38.7282 128.924 71.1004 130.927 85.4396 133.545C107.266 137.531 124.241 137.804 158.986 148.24C204.636 161.957 223.221 173.566 250.445 166.956C282.252 159.232 302.021 143.034 333.934 108.397C353.452 87.2132 380.981 54.2243 419.251 11.967" stroke="#282828" stroke-width="0.75" stroke-miterlimit="10"/>
<path d="M2.95435 164.056C37.1855 133.393 69.9703 136.938 83.5688 134.399C105.811 130.244 123.835 137.086 159.87 146.9C205.992 159.464 221.549 170.365 248.105 164.884C281.091 158.081 302.178 141.479 335.933 107.129C356.103 86.6019 384.406 54.5184 421.786 12.7023" stroke="#282828" stroke-width="0.75" stroke-miterlimit="10"/>
<path d="M3.0708 171.976C35.6383 137.863 68.8138 138.222 81.6869 135.251C104.25 130.045 123.419 136.398 160.741 145.56C207.351 157.005 219.857 167.211 245.766 162.813C279.927 157.021 302.316 139.891 337.931 105.86C358.75 85.9677 387.831 54.8091 424.32 13.4265" stroke="#282828" stroke-width="0.75" stroke-miterlimit="10"/>
<path d="M3.19263 179.896C34.0954 142.331 67.5057 139.38 79.8105 136.104C102.779 129.991 123.009 135.741 161.619 144.224C208.719 154.568 218.144 164.093 243.426 160.747C278.753 156.072 302.439 138.269 339.929 104.6C361.393 85.3246 391.257 55.1087 426.855 14.165" stroke="#282828" stroke-width="0.75" stroke-miterlimit="10"/>
<path d="M3.31421 187.816C32.5523 146.801 65.6499 138.764 77.9348 136.957C102.133 133.404 122.606 135.111 162.496 142.882C210.1 152.152 216.401 161.007 241.087 158.673C277.562 155.221 302.548 136.594 341.929 103.327C364.037 84.6497 394.684 55.3995 429.389 14.8904" stroke="#282828" stroke-width="0.75" stroke-miterlimit="10"/>
<path d="M3.43604 195.736C31.0095 151.271 64.1202 140.627 76.0573 137.81C100.6 132.02 122.206 134.509 163.372 141.541C211.49 149.757 214.619 157.956 238.747 156.602C276.343 154.492 302.649 134.896 343.926 102.063C366.678 83.9638 398.107 55.6958 431.923 15.6245" stroke="#282828" stroke-width="0.75" stroke-miterlimit="10"/>
<path d="M3.55786 203.656C29.4677 155.74 62.4862 142.493 74.1808 138.663C98.9263 130.556 121.813 133.934 164.25 140.199C212.897 147.38 212.795 154.928 236.408 154.529C275.09 153.87 302.743 133.151 345.925 100.794C369.324 83.2626 401.532 55.9866 434.458 16.3531" stroke="#282828" stroke-width="0.75" stroke-miterlimit="10"/>
</svg>
