<svg width="418" height="166" viewBox="0 0 418 166" fill="none" xmlns="http://www.w3.org/2000/svg">
<path d="M36.1328 160.718C107.07 128.525 131.277 93.0216 140.05 66.0882C149.84 36.0292 144.791 3.1762 155.36 1.13599C162.127 -0.170873 170.453 12.0968 185.977 38.9891C233.054 120.536 234.12 142.192 254.177 147.813C282.274 155.692 299.595 118.624 342.784 119.423C374.505 120.011 400.173 140.65 417.474 158.996" stroke="#282828" stroke-width="0.75" stroke-miterlimit="10"/>
<path d="M34.4297 157.482C103.369 125.981 128.967 91.4715 138.436 66.2293C149.017 38.0204 144.02 6.86443 154.478 5.3909C161.202 4.44285 169.372 16.5007 184.367 42.4714C229.94 121.384 231.353 143.31 251.256 148.653C279.516 156.134 296.082 116.383 339.728 115.842C340.68 115.83 341.617 115.83 342.555 115.854C373.523 116.653 399.557 137.302 417.227 155.535" stroke="#282828" stroke-width="0.75" stroke-miterlimit="10"/>
<path d="M32.7319 154.245C99.6691 123.441 126.637 89.9832 136.826 66.3724C148.182 40.0546 143.256 10.5565 153.601 9.64769C160.283 9.05945 168.298 20.9085 182.761 45.9566C226.819 122.231 228.572 144.497 248.342 149.493C276.74 156.67 292.584 114.123 336.68 112.261C337.648 112.22 338.612 112.178 339.576 112.183C371.056 112.344 398.444 133.42 416.987 152.074" stroke="#282828" stroke-width="0.75" stroke-miterlimit="10"/>
<path d="M31.0303 151.009C95.9743 120.892 124.27 88.5666 135.213 66.5155C147.312 42.1321 142.493 14.2516 152.72 13.9056C159.364 13.6801 167.214 25.3154 181.151 49.441C223.7 123.086 225.8 145.645 245.426 150.333C273.974 157.153 289.089 111.847 333.629 108.679C334.618 108.609 335.606 108.541 336.59 108.512C368.579 107.565 397.323 129.536 416.738 148.61" stroke="#282828" stroke-width="0.75" stroke-miterlimit="10"/>
<path d="M29.3291 147.773C92.2758 118.352 121.856 87.2255 133.6 66.6588C146.394 44.2518 141.735 17.9508 151.84 18.1635C158.447 18.3017 166.134 29.7234 179.543 52.9264C220.582 123.937 223.03 146.79 242.51 151.173C271.218 157.632 285.599 109.554 330.579 105.094C331.589 104.996 332.6 104.898 333.614 104.837C366.111 103.031 396.209 125.651 416.5 145.148" stroke="#282828" stroke-width="0.75" stroke-miterlimit="10"/>
<path d="M27.6279 144.536C88.5783 115.811 119.381 85.9655 131.989 66.8027C145.405 46.4105 140.977 21.6526 150.962 22.4202C157.535 22.9261 165.056 34.1301 177.936 56.4115C217.467 124.788 220.264 147.931 239.596 152.013C268.462 158.106 282.112 107.245 327.531 101.516C328.563 101.385 329.595 101.253 330.635 101.169C363.639 98.5117 395.099 121.771 416.259 141.689" stroke="#282828" stroke-width="0.75" stroke-miterlimit="10"/>
<path d="M25.9277 141.3C84.8797 113.267 116.826 84.7862 130.375 66.946C144.314 48.591 140.225 25.3596 150.081 26.6782C156.62 27.5527 163.974 38.541 176.324 59.896C214.347 125.638 217.496 149.07 236.677 152.852C265.707 158.577 278.622 104.923 324.478 97.9343C325.536 97.7735 326.587 97.6088 327.65 97.498C361.158 93.9961 393.98 117.89 416.012 138.228" stroke="#282828" stroke-width="0.75" stroke-miterlimit="10"/>
<path d="M24.2266 138.064C81.1812 110.723 111.036 80.8087 128.762 67.089C139.499 48.5527 139.472 29.0713 149.201 30.935C155.708 32.1821 162.895 42.9448 174.716 63.3861C211.229 126.494 214.73 150.209 233.761 153.697C262.954 159.047 275.133 102.591 321.427 94.3577C322.503 94.1666 323.581 93.9705 324.671 93.8313C358.685 89.493 392.871 114.01 415.772 134.771" stroke="#282828" stroke-width="0.75" stroke-miterlimit="10"/>
<path d="M22.5249 134.828C77.4833 108.18 108.145 79.0626 127.15 67.2322C138.021 50.342 138.719 32.788 148.321 35.1929C154.796 36.8145 161.814 47.3498 173.107 66.8665C208.105 127.34 211.966 151.335 230.846 154.532C260.202 159.503 271.642 100.237 318.376 90.7715C319.474 90.5489 320.573 90.3215 321.69 90.1548C356.21 84.9872 391.75 110.123 415.528 131.304" stroke="#282828" stroke-width="0.75" stroke-miterlimit="10"/>
<path d="M20.8237 131.591C73.7847 105.637 105.253 77.3185 125.536 67.3753C136.543 52.1302 137.966 36.5086 147.441 39.4498C153.884 41.4488 160.735 51.7576 171.497 70.3508C204.992 128.194 209.203 152.462 227.93 155.371C257.453 159.958 268.148 97.8764 315.326 87.1881C316.444 86.9352 317.567 86.6774 318.709 86.4823C353.736 80.4901 390.635 106.238 415.285 127.841" stroke="#282828" stroke-width="0.75" stroke-miterlimit="10"/>
<path d="M19.123 128.355C70.0877 103.094 102.362 75.5734 123.923 67.5195C135.066 53.9204 137.212 40.2351 146.56 43.7076C152.97 46.088 159.655 56.1665 169.889 73.8332C201.874 129.039 206.441 153.583 225.013 156.209C254.704 160.406 264.652 95.5039 312.275 83.6048C313.416 83.3195 314.561 83.0332 315.727 82.8087C351.264 75.9979 389.519 102.354 415.042 124.377" stroke="#282828" stroke-width="0.75" stroke-miterlimit="10"/>
<path d="M17.4219 125.118C66.3871 100.552 99.4729 73.8284 122.312 67.6666C133.59 55.7136 136.457 43.9675 145.68 47.9695C152.054 50.7342 158.574 60.5773 168.278 77.3254C198.755 129.897 203.678 154.71 222.098 157.055C251.958 160.858 261.154 93.1333 309.224 80.0303C310.387 79.7137 311.551 79.397 312.746 79.148C348.793 71.5225 388.404 98.4804 414.799 120.926" stroke="#282828" stroke-width="0.75" stroke-miterlimit="10"/>
<path d="M15.7207 121.881C62.6896 98.0088 96.578 72.0833 120.698 67.8058C132.112 57.4989 135.697 47.6969 144.801 52.2224C151.139 55.3734 157.495 64.9813 166.67 80.8068C195.642 130.744 200.918 155.823 219.181 157.891C249.21 161.292 257.649 90.7392 306.174 76.445C307.357 76.096 308.548 75.7509 309.769 75.4695C346.327 67.0381 387.291 94.5872 414.559 117.458" stroke="#282828" stroke-width="0.75" stroke-miterlimit="10"/>
<path d="M14.0225 118.645C58.9909 95.4656 93.686 70.3391 119.086 67.9509C130.633 59.29 134.935 51.4322 143.921 56.4802C150.221 60.0195 156.415 69.3881 165.062 84.2911C192.521 131.595 198.157 156.938 216.265 158.732C246.465 161.726 254.14 88.3391 303.122 72.8636C304.328 72.4822 305.542 72.1077 306.785 71.7979C343.856 62.5587 386.173 90.7078 414.318 113.996" stroke="#282828" stroke-width="0.75" stroke-miterlimit="10"/>
<path d="M12.3193 115.409C55.2925 92.9225 90.7955 68.594 117.474 68.093C129.156 61.0782 134.17 55.1684 143.042 60.74C149.3 64.6685 155.336 73.7969 163.449 87.7783C189.398 132.448 195.393 158.047 213.344 159.573C243.715 162.154 250.624 85.945 300.068 69.2832C301.294 68.8704 302.532 68.4675 303.799 68.1283C341.387 58.0871 385.053 86.8273 414.066 110.536" stroke="#282828" stroke-width="0.75" stroke-miterlimit="10"/>
<path d="M10.6182 112.173C51.594 90.3794 87.9037 66.8489 115.86 68.2361C127.679 62.8675 133.402 58.9067 142.162 64.9949C148.377 69.3146 154.255 78.2028 161.845 91.2617C186.285 133.296 192.636 159.151 210.434 160.411C240.974 162.573 247.111 83.5323 297.022 65.7048C298.27 65.2597 299.53 64.8283 300.828 64.4606C338.928 53.6155 383.942 82.9421 413.827 107.069" stroke="#282828" stroke-width="0.75" stroke-miterlimit="10"/>
<path d="M8.91699 108.936C47.8965 87.8372 85.0119 65.1077 114.248 68.3793C126.196 64.6538 132.63 62.6469 141.282 69.2528C147.451 73.9636 153.176 82.6097 160.236 94.7431C183.167 134.143 189.875 160.25 207.518 161.246C238.229 162.982 243.589 81.1146 293.971 62.1145C295.24 61.6361 296.524 61.1773 297.842 60.7802C336.467 49.1488 382.83 79.0597 413.584 103.611" stroke="#282828" stroke-width="0.75" stroke-miterlimit="10"/>
<path d="M7.21582 105.696C44.198 85.2901 82.1202 63.3557 112.635 68.5195C124.723 66.442 131.855 66.3822 140.401 73.5058C146.523 78.6038 152.095 87.0127 158.625 98.2274C180.047 134.992 187.114 161.349 204.6 162.086C235.483 163.392 240.063 78.6999 290.921 58.5391C292.21 58.0273 293.518 57.541 294.861 57.1146C334.008 44.6861 381.711 75.1783 413.341 100.154" stroke="#282828" stroke-width="0.75" stroke-miterlimit="10"/>
<path d="M5.51514 102.461C40.4989 82.7548 78.8271 73.9244 111.023 68.6665C123.07 66.6989 131.079 70.1263 139.522 77.7675C145.594 83.2577 151.016 91.4244 157.018 101.717C176.93 135.849 184.353 162.449 201.685 162.931C232.735 163.792 236.532 76.2763 287.87 54.9547C289.179 54.4116 290.514 53.8969 291.88 53.441C331.551 40.2223 380.592 71.294 413.098 96.6872" stroke="#282828" stroke-width="0.75" stroke-miterlimit="10"/>
<path d="M3.81396 99.2255C36.8036 80.2058 75.6086 62.6293 109.41 68.8077C121.604 71.0371 130.298 73.8636 138.642 82.0235C144.663 87.9058 149.936 95.8294 155.409 105.2C173.813 136.698 181.59 163.539 198.769 163.768C229.986 164.184 232.997 73.8479 284.819 51.3714C286.15 50.7949 287.508 50.2557 288.899 49.7685C329.125 35.8361 379.48 67.4107 412.859 93.2254" stroke="#282828" stroke-width="0.75" stroke-miterlimit="10"/>
<path d="M2.1123 95.9902C33.1024 77.6637 72.9776 59.496 107.797 68.9519C120.148 72.3068 129.516 77.6039 137.762 86.2814C143.729 92.5559 148.856 100.238 153.799 108.685C170.694 137.55 178.827 164.698 195.852 164.609C227.236 164.444 229.419 71.3499 281.768 47.791C283.118 47.1793 284.501 46.6149 285.917 46.0979C326.659 31.342 378.364 63.5274 412.612 89.7627" stroke="#282828" stroke-width="0.75" stroke-miterlimit="10"/>
<path d="M0.411133 92.7549C29.4039 75.1225 70.5532 56.3822 106.184 69.097C159.898 88.2676 164.545 165.9 192.937 165.449C225.303 164.936 225.965 63.9401 282.936 42.4273C324.192 26.8488 377.253 59.645 412.369 86.3029" stroke="#282828" stroke-width="0.75" stroke-miterlimit="10"/>
</svg>
