<svg width="420" height="234" viewBox="0 0 420 234" fill="none" xmlns="http://www.w3.org/2000/svg">
<path d="M5.61572 31.4092C21.0838 40.5302 34.7792 52.3671 46.0439 66.3514C72.5718 99.5851 68.9553 125.941 84.177 130.064C107.698 136.433 122.887 75.2467 172.339 65.5777C208.61 58.4813 245.517 82.5929 254.06 88.1794C287.387 109.948 291.806 134.066 315.702 134.708C333.182 135.195 338.344 122.503 365.679 117.127C384.709 113.385 401.366 115.763 412.592 118.404" stroke="#282828" stroke-width="0.75" stroke-miterlimit="10"/>
<path d="M5.63086 34.2914C21.1003 43.4153 34.7978 55.254 46.0657 69.2392C72.594 102.479 68.9771 128.829 84.1926 132.953C107.72 139.321 122.908 78.1345 172.355 68.466C208.632 61.3752 245.54 85.4869 254.082 91.0672C287.409 112.836 291.822 136.955 315.724 137.595C333.204 138.083 338.36 125.392 365.701 120.015C384.737 116.273 401.388 118.651 412.614 121.292" stroke="#282828" stroke-width="0.75" stroke-miterlimit="10"/>
<path d="M5.64648 37.1735C21.1174 46.2955 34.8152 58.1344 46.0813 72.1213C72.6097 105.361 68.9927 131.711 84.2144 135.834C107.717 142.205 122.93 81.0162 172.376 71.3476C208.648 64.2574 245.555 88.369 254.097 93.9494C287.425 115.724 291.843 139.836 315.739 140.478C333.219 140.965 338.381 128.267 365.716 122.891C384.752 119.149 401.403 121.527 412.629 124.168" stroke="#282828" stroke-width="0.75" stroke-miterlimit="10"/>
<path d="M5.67383 40.0547C21.1418 49.1812 34.8374 61.0221 46.103 75.0092C72.6313 108.249 69.0144 134.599 84.2299 138.723C107.757 145.091 122.946 83.9045 172.392 74.236C208.669 67.1452 245.577 91.2569 254.119 96.8372C287.447 118.612 291.859 142.725 315.761 143.365C333.241 143.853 338.397 131.155 365.738 125.779C384.774 122.037 401.424 124.414 412.651 127.056" stroke="#282828" stroke-width="0.75" stroke-miterlimit="10"/>
<path d="M5.68311 42.9373C21.1526 52.0612 34.85 63.8999 46.1179 77.885C72.6524 111.124 69.0298 137.481 84.251 141.598C107.772 147.967 122.967 86.7799 172.413 77.1114C208.691 70.0206 245.592 94.1328 254.14 99.7126C287.462 121.488 291.88 145.6 315.776 146.241C333.256 146.729 338.418 134.031 365.753 128.655C384.789 124.912 401.44 127.296 412.666 129.932" stroke="#282828" stroke-width="0.75" stroke-miterlimit="10"/>
<path d="M5.70459 45.819C21.1728 54.9447 34.87 66.7831 46.1394 80.7668C72.6678 114.007 69.0513 140.363 84.2663 144.48C107.775 150.85 122.982 89.6621 172.433 79.9685C208.704 72.8783 245.611 96.9899 254.154 102.57C287.481 124.345 291.893 148.458 315.795 149.098C333.275 149.586 338.431 136.888 365.773 131.512C384.809 127.77 401.459 130.154 412.691 132.789" stroke="#282828" stroke-width="0.75" stroke-miterlimit="10"/>
<path d="M5.73242 48.7062C21.2004 57.8332 34.8943 69.6767 46.1559 83.6673C72.6904 116.907 69.0678 143.263 84.289 147.38C107.811 153.755 123.005 92.5683 172.452 82.8997C208.729 75.8028 245.63 99.915 254.178 105.495C287.5 127.27 291.918 151.382 315.814 152.024C333.294 152.511 338.456 139.813 365.791 134.437C384.827 130.701 401.478 133.079 412.704 135.714" stroke="#282828" stroke-width="0.75" stroke-miterlimit="10"/>
<path d="M5.73975 51.5635C21.2106 60.6855 34.9084 72.5245 46.1746 86.5113C72.7025 119.745 69.086 146.101 84.3015 150.225C107.829 156.593 123.017 95.4066 172.47 85.7376C208.741 78.6412 245.648 102.753 254.191 108.339C287.518 130.108 291.93 154.221 315.832 154.868C333.312 155.355 338.475 142.657 365.81 137.287C384.84 133.545 401.49 135.923 412.723 138.564" stroke="#282828" stroke-width="0.75" stroke-miterlimit="10"/>
<path d="M5.75635 54.4698C21.2279 63.5931 34.9275 75.4317 46.1973 89.4171C72.7252 122.651 69.1026 149.007 84.3242 153.131C107.833 159.501 123.04 98.3125 172.485 88.6255C208.762 81.5286 245.663 105.641 254.212 111.227C287.533 132.996 291.952 157.114 315.848 157.755C333.328 158.243 338.49 145.551 365.825 140.175C384.861 136.433 401.512 138.811 412.738 141.452" stroke="#282828" stroke-width="0.75" stroke-miterlimit="10"/>
<path d="M5.79004 57.3505C21.2579 66.4831 34.952 78.3305 46.2145 92.3239C72.7429 125.564 69.1259 151.914 84.3475 156.037C107.869 162.406 123.057 101.219 172.51 91.5502C208.781 84.4538 245.688 108.565 254.231 114.152C287.558 135.921 291.97 160.039 315.872 160.68C333.352 161.168 338.515 148.476 365.85 143.1C384.88 139.358 401.53 141.736 412.763 144.377" stroke="#282828" stroke-width="0.75" stroke-miterlimit="10"/>
<path d="M5.79883 60.2212C21.267 69.3469 34.9642 81.1853 46.2337 95.169C72.762 128.409 69.145 154.759 84.3605 158.882C107.882 165.251 123.076 104.064 172.523 94.3958C208.8 87.305 245.701 111.417 254.25 116.997C287.571 138.766 291.99 162.884 315.892 163.525C333.365 164.013 338.528 151.321 365.869 145.945C384.905 142.202 401.556 144.58 412.782 147.222" stroke="#282828" stroke-width="0.75" stroke-miterlimit="10"/>
<path d="M5.81445 63.1154C21.2839 72.2393 34.9814 84.078 46.2493 98.0632C72.7776 131.303 69.1607 157.653 84.3823 161.776C107.904 168.145 123.092 106.959 172.544 97.2895C208.816 90.1992 245.723 114.311 254.265 119.891C287.593 141.666 292.005 165.779 315.907 166.419C333.387 166.907 338.549 154.209 365.884 148.833C384.914 145.091 401.565 147.469 412.797 150.11" stroke="#282828" stroke-width="0.75" stroke-miterlimit="10"/>
<path d="M5.84863 65.9961C21.3156 75.1235 35.0124 86.9617 46.2835 100.944C72.8118 134.184 69.1948 160.534 84.4104 164.657C107.919 171.021 123.124 109.815 172.56 100.172C208.838 93.0809 245.739 117.193 254.287 122.773C287.609 144.548 292.027 168.66 315.929 169.301C333.403 169.789 338.565 157.091 365.906 151.715C384.942 147.972 401.593 150.356 412.819 152.992" stroke="#282828" stroke-width="0.75" stroke-miterlimit="10"/>
<path d="M5.85107 68.8792C21.3206 78.0031 35.018 89.8418 46.2859 103.827C72.8143 137.067 69.1978 163.423 84.4189 167.54C107.94 173.909 123.129 112.722 172.581 103.053C208.852 95.963 245.76 120.075 254.296 125.655C287.624 147.43 292.036 171.543 315.938 172.184C333.418 172.671 338.58 159.973 365.915 154.597C384.945 150.855 401.596 153.239 412.827 155.874" stroke="#282828" stroke-width="0.75" stroke-miterlimit="10"/>
<path d="M5.87256 71.7608C21.3408 80.8865 35.0379 92.7249 46.3074 106.709C72.8357 139.948 69.2193 166.305 84.4343 170.422C107.949 176.792 123.15 115.604 172.597 105.942C208.874 98.8508 245.776 122.963 254.324 128.543C287.645 150.318 292.064 174.43 315.966 175.071C333.44 175.559 338.602 162.861 365.943 157.485C384.979 153.748 401.63 156.126 412.856 158.762" stroke="#282828" stroke-width="0.75" stroke-miterlimit="10"/>
<path d="M5.90723 74.6475C21.3793 83.7678 35.0774 95.607 46.3421 109.595C72.8699 142.829 69.2534 169.185 84.4746 173.302C107.978 179.679 123.183 118.472 172.619 108.823C208.89 101.727 245.797 125.838 254.339 131.419C287.667 153.193 292.079 177.306 315.981 177.947C333.461 178.435 338.623 165.736 365.958 160.36C384.989 156.625 401.639 159.002 412.871 161.638" stroke="#282828" stroke-width="0.75" stroke-miterlimit="10"/>
<path d="M5.91016 77.5367C21.3811 86.6586 35.0788 98.4976 46.345 112.484C72.8729 145.718 69.2564 172.074 84.4719 176.198C107.993 182.567 123.188 121.38 172.634 111.711C208.911 104.614 245.812 128.727 254.361 134.313C287.682 156.082 292.101 180.2 316.003 180.841C333.483 181.328 338.639 168.637 365.981 163.26C385.016 159.518 401.667 161.896 412.893 164.537" stroke="#282828" stroke-width="0.75" stroke-miterlimit="10"/>
<path d="M5.92529 80.4128C21.3962 89.5348 35.094 101.374 46.3601 115.361C72.888 148.594 69.2715 174.95 84.4932 179.074C108.008 185.443 123.203 124.256 172.656 114.599C208.927 107.503 245.835 131.614 254.377 137.201C287.704 158.97 292.117 183.088 316.019 183.729C333.499 184.217 338.662 171.525 365.997 166.149C385.026 162.407 401.677 164.785 412.909 167.426" stroke="#282828" stroke-width="0.75" stroke-miterlimit="10"/>
<path d="M5.96484 83.293C21.4343 92.417 35.1318 104.256 46.3997 118.241C72.928 151.481 69.3111 177.831 84.5266 181.954C108.03 188.337 123.242 127.13 172.67 117.469C208.948 110.378 245.855 134.49 254.397 140.07C287.718 161.839 292.137 185.958 316.039 186.599C333.519 187.086 338.676 174.395 366.017 169.018C385.053 165.276 401.703 167.654 412.929 170.295" stroke="#282828" stroke-width="0.75" stroke-miterlimit="10"/>
<path d="M5.96338 86.1946C21.4343 95.3165 35.1321 107.156 46.3982 121.142C72.9266 154.382 69.3096 180.732 84.5313 184.855C108.053 191.224 123.241 130.038 172.693 120.369C208.963 113.26 245.871 137.372 254.413 142.952C287.741 164.727 292.153 188.839 316.055 189.48C333.535 189.968 338.697 177.27 366.032 171.894C385.062 168.152 401.712 170.53 412.944 173.171" stroke="#282828" stroke-width="0.75" stroke-miterlimit="10"/>
<path d="M5.9834 89.0583C21.4529 98.1822 35.1503 110.021 46.4182 124.006C72.9466 157.246 69.3296 183.596 84.5451 187.72C108.066 194.089 123.261 132.901 172.709 123.257C208.987 116.167 245.894 140.278 254.436 145.859C287.758 167.634 292.176 191.746 316.078 192.387C333.558 192.875 338.714 180.177 366.055 174.8C385.091 171.058 401.742 173.436 412.968 176.078" stroke="#282828" stroke-width="0.75" stroke-miterlimit="10"/>
<path d="M6.02344 91.9385C21.4929 101.062 35.1904 112.901 46.4583 126.886C72.9866 160.126 69.3701 186.482 84.5913 190.599C108.09 196.995 123.301 135.788 172.729 126.114C209 119.024 245.908 143.136 254.45 148.716C287.777 170.491 292.19 194.604 316.092 195.244C333.572 195.732 338.734 183.034 366.069 177.658C385.099 173.916 401.756 176.3 412.981 178.935" stroke="#282828" stroke-width="0.75" stroke-miterlimit="10"/>
<path d="M6.02295 94.8522C21.4912 103.978 35.1883 115.816 46.4578 129.8C72.9861 163.04 69.3696 189.396 84.5847 193.513C108.106 199.882 123.3 138.695 172.747 129.027C209.022 121.905 245.929 146.017 254.471 151.597C287.799 173.372 292.211 197.485 316.113 198.125C333.593 198.613 338.749 185.915 366.09 180.539C385.126 176.797 401.777 179.181 413.003 181.816" stroke="#282828" stroke-width="0.75" stroke-miterlimit="10"/>
<path d="M6.03564 97.7102C21.5059 106.83 35.2034 118.667 46.47 132.652C72.9984 165.892 69.3819 192.248 84.603 196.365C108.125 202.74 123.313 141.553 172.765 131.878C209.036 124.788 245.944 148.9 254.486 154.48C287.814 176.255 292.232 200.367 316.128 201.008C333.608 201.496 338.77 188.798 366.105 183.422C385.135 179.686 401.792 182.063 413.018 184.699" stroke="#282828" stroke-width="0.75" stroke-miterlimit="10"/>
<path d="M6.08203 100.589C21.5529 109.711 35.2507 121.55 46.5169 135.537C73.0447 168.77 69.4283 195.126 84.6438 199.25C108.149 205.651 123.361 144.444 172.781 134.765C209.058 127.668 245.966 151.78 254.508 157.367C287.836 179.135 292.248 203.248 316.15 203.895C333.63 204.382 338.786 191.685 366.128 186.314C385.164 182.572 401.814 184.95 413.041 187.592" stroke="#282828" stroke-width="0.75" stroke-miterlimit="10"/>
<path d="M6.07275 103.473C21.5437 112.595 35.2414 124.434 46.5076 138.421C73.0355 171.654 69.419 198.011 84.6406 202.134C108.162 208.503 123.356 147.316 172.803 137.647C209.074 130.551 245.98 154.644 254.53 160.248C287.851 182.017 292.27 206.136 316.165 206.777C333.645 207.265 338.808 194.573 366.143 189.197C385.179 185.454 401.83 187.832 413.056 190.474" stroke="#282828" stroke-width="0.75" stroke-miterlimit="10"/>
<path d="M6.09375 106.355C21.5632 115.479 35.2607 127.317 46.5286 141.302C73.0569 174.542 69.44 200.892 84.6555 205.016C108.183 211.384 123.371 150.198 172.818 140.529C209.095 133.432 246.002 157.544 254.545 163.131C287.872 184.899 292.284 209.018 316.186 209.659C333.666 210.146 338.823 197.455 366.164 192.078C385.2 188.336 401.85 190.714 413.077 193.355" stroke="#282828" stroke-width="0.75" stroke-miterlimit="10"/>
</svg>
