<svg width="488" height="172" viewBox="0 0 488 172" fill="none" xmlns="http://www.w3.org/2000/svg">
<path d="M3.82959 54.829C35.6623 52.1653 58.1284 43.6932 72.8514 36.3584C87.7397 28.9409 98.4624 20.8041 118.056 16.4295C139.667 11.5688 153.787 13.7464 159.372 14.9713C167.115 16.6725 166.634 17.8294 179.301 21.7763C203.633 29.359 208.256 25.9856 219.158 31.0116C237.235 39.3428 231.845 51.9855 250.753 66.0086C264.445 76.1675 287.116 84.2508 307.623 78.6464C326.934 73.3677 329.107 60.1126 349.425 58.2315C357.771 57.4586 364.712 59.1745 378.589 62.6061C396.374 66.9808 408.317 72.3761 413.1 74.2718C427.269 79.8956 450.138 83.4342 487.469 72.3275" stroke="#282828" stroke-width="0.75" stroke-miterlimit="10"/>
<path d="M3.61572 59.1162C34.4082 56.8171 57.4285 49.1469 73.4882 41.5448C86.5343 35.2842 96.4841 28.4209 110.196 23.5164C113.195 22.4471 116.355 21.4118 119.757 20.5174C141.198 14.8887 155.264 15.8171 161.136 16.3858C169.01 17.1441 169.011 18.0093 181.425 21.8444C190.174 24.542 196.405 26.0829 201.232 27.0939C209.437 28.8097 213.544 28.9264 220.019 32.2268C222.434 33.4482 224.701 34.9438 226.775 36.6841C236.365 44.7285 235.957 54.9263 251.866 65.7365C265.714 75.1468 288.234 82.2628 308.391 76.6973C309.988 76.2554 311.562 75.733 313.106 75.1322C328.689 69.0612 332.189 58.3822 350.047 56.7053C351.929 56.5259 353.821 56.4723 355.71 56.5449C362.058 56.7685 368.62 58.3531 379.012 60.9195C396.228 65.1969 407.986 70.4902 413.26 72.5852C417.123 74.1054 421.107 75.2988 425.169 76.1529C439.226 79.1471 459.097 79.4582 487.05 71.8172" stroke="#282828" stroke-width="0.75" stroke-miterlimit="10"/>
<path d="M3.40186 63.7825C33.1493 61.8382 56.748 55.0332 74.1249 47.0714C87.9244 40.7525 98.336 33.5344 111.795 28.382C114.867 27.2009 118.051 26.0052 121.468 24.9795C142.738 18.578 156.732 17.8052 162.915 18.1746C170.882 18.6606 171.412 18.5683 183.554 22.2867C192.055 24.8969 198.262 26.6614 202.996 27.9008C210.973 29.9763 214.808 30.3944 220.864 33.8212C223.172 35.1409 225.341 36.6895 227.339 38.4437C236.603 46.4347 237.06 56.02 252.989 65.858C266.992 74.5149 289.361 80.6637 309.169 75.1371C310.846 74.651 312.396 74.165 313.849 73.5817C329.924 67.3989 333.482 57.2157 350.684 55.5971C352.551 55.4132 354.428 55.3531 356.303 55.4172C362.758 55.6068 369.31 57.1476 379.449 59.6898C396.102 63.8506 407.666 69.0564 413.435 71.302C417.267 72.8084 421.214 74.0047 425.237 74.8795C439.168 77.9417 458.946 78.5882 486.623 71.7054" stroke="#282828" stroke-width="0.75" stroke-miterlimit="10"/>
<path d="M3.19287 68.7646C31.8953 67.1946 56.0578 61.1916 74.7666 52.9382C89.3 46.5221 100.188 38.9734 113.385 33.5683C116.535 32.2753 119.747 30.9241 123.169 29.7624C144.27 22.5977 158.166 21.0957 164.685 20.2791C172.748 19.273 173.803 19.4431 185.678 23.0449C193.941 25.5579 200.124 27.5508 204.79 29.0187C212.533 31.449 216.106 32.1781 221.744 35.7264C223.926 37.1467 225.985 38.7483 227.898 40.5142C236.837 48.4469 238.188 57.4149 254.097 66.2759C268.276 74.1794 290.474 79.3658 309.932 73.8732C311.594 73.3871 313.135 72.9011 314.579 72.3324C331.134 66.0135 334.765 56.3455 351.301 54.7366C353.155 54.5483 355.019 54.4817 356.881 54.5373C363.443 54.688 370.005 56.1948 379.877 58.6884C395.956 62.7276 407.335 67.8411 413.596 70.2763C417.404 71.7599 421.318 72.9573 425.305 73.8586C439.11 76.9889 458.795 77.9756 486.19 71.8463" stroke="#282828" stroke-width="0.75" stroke-miterlimit="10"/>
<path d="M2.979 73.7566C30.6412 72.5511 55.3578 67.3599 75.4033 58.8099C90.6756 52.2917 102.035 44.4077 114.979 38.7595C118.202 37.3548 121.439 35.8431 124.875 34.5502C145.806 26.637 159.576 23.9441 166.459 22.3984C174.591 20.5708 176.18 20.3326 187.807 23.8178C195.851 26.2481 201.981 28.4549 206.569 30.1367C214.079 32.917 217.384 33.9669 222.609 37.6319C224.662 39.1493 226.611 40.8024 228.442 42.58C237.06 50.4447 239.306 58.8002 255.2 66.7134C269.554 73.8586 291.578 78.0875 310.69 72.6337C312.333 72.1477 313.864 71.6616 315.303 71.1026C332.344 64.6525 336.039 55.5484 351.914 53.9201C353.754 53.7342 355.605 53.6612 357.455 53.7013C364.114 53.818 370.656 55.2859 380.3 57.7308C395.815 61.6583 407.005 66.6842 413.756 69.2944C417.538 70.7636 421.418 71.9639 425.368 72.8865C439.051 76.0897 458.645 77.407 485.762 72.0407" stroke="#282828" stroke-width="0.75" stroke-miterlimit="10"/>
<path d="M2.7749 76.9744C29.3969 76.1335 54.6725 71.7588 76.0498 62.9124C92.0561 56.2872 103.892 48.0532 116.583 42.1815C119.874 40.6601 123.145 39.0075 126.591 37.5687C147.342 28.9069 161 25.0475 168.228 22.7387C176.433 20.1237 178.586 19.4383 189.931 22.8116C196.196 24.6812 202.346 26.9178 208.348 29.5097C215.639 32.6351 218.667 34.0155 223.465 37.7728C225.56 39.4206 227.222 41.1753 229.021 42.8814C237.318 50.6586 240.463 58.4357 256.328 65.3767C270.871 71.7588 292.71 75.035 311.473 69.6201C313.101 69.1341 314.622 68.648 316.051 68.0987C333.584 61.5319 337.341 52.9091 352.555 51.3293C354.381 51.1429 356.217 51.065 358.053 51.096C364.819 51.1884 371.352 52.6028 380.733 54.9846C395.679 58.7856 406.684 63.7338 413.921 66.519C417.679 67.9725 421.529 69.1741 425.446 70.1159C439.003 73.392 458.499 75.0495 485.34 70.4367" stroke="#282828" stroke-width="0.75" stroke-miterlimit="10"/>
<path d="M2.55127 79.2687C28.1282 78.7826 53.9628 75.2197 76.6768 66.0865C93.4171 59.3544 105.719 50.7607 118.168 44.6994C121.531 43.0565 124.827 41.258 128.288 39.6832C148.882 30.2874 162.434 25.2663 170.002 22.1846C178.265 18.8065 180.978 17.6496 192.06 20.9063C198.27 22.7313 204.312 25.0827 210.122 27.9348C217.175 31.3957 219.946 33.1164 224.325 37.0049C226.269 38.7207 227.801 40.5484 229.584 42.2739C237.566 50.0024 241.615 57.1088 257.441 63.1312C272.184 68.7404 293.833 71.0735 312.245 65.6927C313.854 65.2067 315.361 64.7206 316.79 64.1811C334.814 57.5122 338.649 49.3851 353.182 47.8637C354.995 47.6724 356.818 47.588 358.641 47.611C365.504 47.6693 372.037 49.04 381.16 51.3926C395.538 55.0818 406.353 59.9377 414.087 62.9076C417.818 64.3426 421.634 65.5455 425.514 66.5093C438.949 69.8584 458.353 71.8561 484.917 67.9919" stroke="#282828" stroke-width="0.75" stroke-miterlimit="10"/>
<path d="M2.34229 81.5969C26.8742 81.4852 53.258 78.7146 77.3185 69.2945C94.7878 62.4507 107.552 53.4875 119.757 47.2075C123.194 45.4334 126.523 43.4891 129.994 41.7878C150.423 31.6679 163.878 25.5045 171.771 21.6159C180.146 17.4941 183.369 15.8511 194.184 18.9912C200.349 20.7971 206.292 23.2884 211.901 26.4183C218.706 30.2048 221.224 32.2852 225.19 36.2709C226.969 38.0597 228.379 39.9456 230.144 41.7052C237.814 49.3511 242.781 55.8255 258.559 60.9195C273.506 65.7462 294.951 67.1412 312.999 61.8042C314.593 61.3181 316.09 60.8321 317.51 60.2974C336.024 53.4924 339.903 45.8757 353.795 44.364C355.593 44.1726 357.401 44.0817 359.209 44.0918C366.18 44.0918 372.703 45.4431 381.569 47.7568C395.383 51.3197 406.003 56.0977 414.233 59.2377C417.938 60.6606 421.723 61.8681 425.568 62.8541C438.876 66.2566 458.188 68.5946 484.47 65.4983" stroke="#282828" stroke-width="0.75" stroke-miterlimit="10"/>
<path d="M2.12842 83.9349C25.6201 84.1877 52.5581 82.2191 77.9552 72.5123C96.1585 65.5566 109.384 56.2192 121.351 49.7496C124.851 47.8588 128.22 45.7833 131.695 43.9168C151.964 33.0726 165.331 25.767 173.546 21.0715C182.023 16.2108 185.761 14.0721 196.313 17.0955C202.431 18.8806 208.275 21.4974 213.68 24.8726C220.276 28.9896 222.498 31.4297 226.051 35.5127C227.669 37.3792 228.967 39.3137 230.707 41.1073C238.066 48.6754 243.943 54.5034 259.672 58.6836C274.833 62.7131 296.069 63.1895 313.781 57.8865C315.361 57.4004 316.849 56.9143 318.258 56.3942C337.268 49.4872 341.201 42.3565 354.436 40.874C356.222 40.6822 358.016 40.5848 359.812 40.5824C366.885 40.5386 373.422 41.8607 382.021 44.1258C395.261 47.5721 405.697 52.2675 414.417 55.5825C418.096 56.9956 421.847 58.2109 425.655 59.2232C438.842 62.7131 458.061 65.3719 484.066 63.0339" stroke="#282828" stroke-width="0.75" stroke-miterlimit="10"/>
<path d="M1.91455 86.2631C24.3661 86.8658 51.8679 85.6944 78.6017 75.7057C97.5584 68.6334 111.217 58.9168 122.956 52.2674C126.523 50.2453 129.926 48.0386 133.411 46.036C153.515 34.4821 166.799 26.0391 175.329 20.5125C183.928 14.9372 188.167 12.2833 198.452 15.19C204.527 16.9689 210.273 19.7236 215.464 23.3462C221.832 27.7792 223.776 30.5984 226.916 34.7737C228.374 36.718 229.546 38.6963 231.291 40.5288C238.348 48.0143 245.144 53.1666 260.815 56.4622C276.189 59.6848 297.211 59.2522 314.579 53.9881C316.139 53.502 317.617 53.0159 319.021 52.5299C338.522 45.5159 342.513 38.8713 355.083 37.4277C356.858 37.2257 358.643 37.1218 360.43 37.1166C367.604 37.068 374.117 38.3172 382.483 40.5191C395.154 43.8487 405.401 48.4615 414.617 51.9515C417.946 53.2152 421.635 54.4644 425.762 55.5824C438.823 59.1404 457.95 62.1395 483.672 60.5549" stroke="#282828" stroke-width="0.75" stroke-miterlimit="10"/>
<path d="M1.70068 88.5234C23.0877 89.4956 51.1485 89.1262 79.2287 78.8604C98.8951 71.6714 113.025 61.566 124.54 54.7416C128.171 52.5883 131.612 50.2552 135.107 48.1067C155.065 35.8432 168.277 26.2676 177.089 19.9147C185.809 13.5958 190.543 10.4558 200.566 13.2458C206.606 15.0202 212.261 17.9085 217.238 21.7617C223.387 26.5155 225.015 29.7187 227.772 33.9767C229.069 35.9987 230.124 38.0256 231.83 39.8921C238.587 47.2853 246.296 51.7911 261.903 54.1826C277.511 56.5741 298.305 55.252 315.322 50.0267C316.868 49.5406 318.336 49.0546 319.731 48.5685C339.728 41.4476 343.777 35.2891 355.7 33.8795C357.457 33.6742 359.224 33.5654 360.993 33.5538C368.284 33.4614 374.778 34.6766 382.866 36.8493C394.974 40.0574 405.026 44.5924 414.738 48.2525C418.053 49.5066 421.713 50.7509 425.791 51.8932C438.726 55.5193 457.76 58.8537 483.206 58.0323" stroke="#282828" stroke-width="0.75" stroke-miterlimit="10"/>
<path d="M1.4917 90.7545C21.8531 92.1009 50.4437 92.5141 79.8704 81.9761C100.285 74.685 114.838 64.1665 126.13 57.1865C129.829 54.8971 133.309 52.4425 136.823 50.1482C156.626 37.1702 169.769 26.4766 178.858 19.2682C187.719 12.2591 192.954 8.57468 202.676 11.2529C209.131 13.0319 214.993 16.7115 219.003 20.1286C224.938 25.1934 226.294 28.7903 228.622 33.1309C229.75 35.2307 230.693 37.3063 232.375 39.2117C238.834 46.5027 247.443 50.3378 262.997 51.8495C278.809 53.4 299.404 51.203 316.071 46.0166C317.597 45.5306 319.055 45.0445 320.445 44.5584C340.933 37.3257 345.036 31.6533 356.288 30.2826C358.032 30.0742 359.786 29.959 361.543 29.9374C368.926 29.7965 375.42 30.9825 383.28 33.1115C394.819 36.2029 404.667 40.6553 414.874 44.4904C418.175 45.7299 421.806 46.9791 425.83 48.1359C438.643 51.8349 457.585 55.5047 482.749 55.4269" stroke="#282828" stroke-width="0.75" stroke-miterlimit="10"/>
<path d="M1.27783 92.9563C20.5991 94.6722 49.7195 95.8144 80.5071 85.0577C101.617 77.5917 116.646 66.7329 127.724 59.5828C131.481 57.1524 135.015 54.5811 138.519 52.1411C158.186 38.4776 171.266 26.6273 180.633 18.6022C189.639 10.8835 195.322 6.68381 204.819 9.24054C211.046 10.9321 216.879 14.806 220.796 18.4759C226.517 23.8518 227.548 27.8376 229.497 32.2657C230.469 34.4433 231.291 36.5577 232.953 38.5019C239.116 45.7152 248.638 48.8455 264.134 49.5211C280.175 50.2162 300.546 47.1588 316.863 42.0065C318.376 41.5237 319.823 41.0376 321.204 40.5483C342.192 33.2184 346.348 28.0223 356.94 26.6904C358.669 26.4765 360.408 26.3548 362.15 26.3259C369.636 26.146 376.13 27.298 383.737 29.3784C394.702 32.3483 404.37 36.7424 415.078 40.733C418.364 41.9676 421.961 43.2071 425.942 44.3834C438.628 48.1553 457.478 52.1605 482.365 52.8507" stroke="#282828" stroke-width="0.75" stroke-miterlimit="10"/>
<path d="M1.06396 95.1243C19.3402 97.1998 49.0196 99.1441 81.1439 88.1054C102.988 80.5276 118.459 69.2508 129.318 61.9597C133.134 59.3981 136.706 56.7005 140.226 54.1146C159.751 39.7561 172.792 26.7683 182.402 17.8975C191.564 9.46419 197.713 4.72987 206.924 7.1748C212.927 8.77397 218.736 12.8472 222.551 16.7795C228.068 22.4666 228.773 26.8509 230.328 31.3616C231.116 33.6219 231.85 35.78 233.483 37.7583C239.389 44.8744 249.82 47.7908 265.252 47.1346C281.477 46.4444 301.669 43.0565 317.641 37.943C319.138 37.4602 320.574 36.9741 321.947 36.4848C343.441 29.0868 347.641 24.3331 357.571 23.0401C359.288 22.8244 361.014 22.6979 362.743 22.661C370.331 22.4471 376.839 23.5554 384.169 25.5774C394.547 28.4549 404.045 32.7955 415.244 36.932C418.515 38.1569 422.083 39.3964 426.01 40.5921C438.575 44.4369 457.332 48.7775 481.937 50.226" stroke="#282828" stroke-width="0.75" stroke-miterlimit="10"/>
<path d="M0.830566 97.2678C18.0666 99.6982 48.3001 102.454 81.7611 91.1288C104.339 83.4391 120.224 71.7492 130.888 64.2929C134.777 61.5903 138.388 58.7808 141.907 56.0297C161.301 40.9615 174.27 26.8655 184.156 17.1441C193.494 8.00597 200.119 2.76614 209.072 5.08956C214.847 6.59637 220.631 10.8641 224.35 15.0588C229.662 21.0472 230.027 25.8302 231.218 30.4187C231.83 32.7615 232.467 34.9585 234.076 36.9806C239.666 43.9994 250.962 45.7298 266.365 44.7188C282.804 43.6543 302.782 38.9249 318.404 33.8503C319.862 33.3642 321.32 32.8782 322.676 32.3921C344.661 24.8823 348.924 20.6098 358.194 19.3606C359.895 19.139 361.606 19.0059 363.322 18.962C371.011 18.7092 377.495 19.7834 384.592 21.7666C394.425 24.5032 403.714 28.7368 415.404 33.0726C418.665 34.2878 422.209 35.5029 426.097 36.7424C438.536 40.631 457.206 45.3313 481.509 47.538" stroke="#282828" stroke-width="0.75" stroke-miterlimit="10"/>
<path d="M0.641113 99.387C16.8321 102.192 47.6148 105.74 82.4223 94.1326C105.754 86.3312 122.037 74.2038 132.487 66.6162C136.415 63.7679 140.099 60.8514 143.618 57.9642C162.91 42.2544 175.796 26.9529 185.906 16.3955C195.395 6.52342 202.457 0.778078 211.182 2.99456C216.728 4.40902 222.498 8.87114 226.114 13.3235C231.228 19.6424 231.242 24.7948 232.068 29.4708C232.491 31.9011 233.041 34.1322 234.62 36.1931C239.928 43.1148 252.119 44.1063 267.464 42.2933C284.102 40.349 303.89 34.7835 319.157 29.743C320.616 29.2569 322.04 28.7708 323.396 28.3237C345.877 20.7021 350.188 16.8961 358.801 15.6858C360.501 15.4674 362.211 15.3376 363.924 15.297C371.055 15.0284 378.182 15.9316 385.02 17.9704C394.284 20.5903 403.384 24.7413 415.569 29.252C418.816 30.4526 422.326 31.6824 426.151 32.9267C444.035 38.6495 462.423 42.655 481.067 44.8889" stroke="#282828" stroke-width="0.75" stroke-miterlimit="10"/>
<path d="M0.427246 101.492C15.578 104.661 46.9149 109.011 83.059 97.117C107.105 89.2038 123.821 76.6681 134.096 68.925C179.704 34.5258 194.14 -3.89312 213.326 0.875229C218.643 2.19734 224.398 6.85389 227.908 11.5688C235.403 21.6304 230.678 29.2617 235.199 35.3862C246.281 50.4057 296.132 33.6315 324.149 24.2066C351.466 15.015 352.478 12.0548 364.493 11.5688C385.467 10.7084 396.37 19.132 426.224 29.0673C443.975 34.9461 462.184 39.3359 480.664 42.1912" stroke="#282828" stroke-width="0.75" stroke-miterlimit="10"/>
<path d="M0.427246 102.882C15.9815 106.348 46.3462 110.319 80.9009 98.935C104.752 91.0559 120.759 78.3986 131.787 70.2569C175.845 37.7729 189.586 2.59115 209.131 5.73116C216.767 6.95606 224.52 9.41071 229.638 13.1729C239.695 20.5709 235.957 27.1863 241.79 33.1017C254.559 46.0604 301.056 31.5123 327.732 22.8651C353.717 14.4124 354.767 12.0209 367.468 12.507C388.573 13.3139 398.98 20.7702 427.104 30.3069C444.65 36.2536 462.718 40.5354 481.067 43.0953" stroke="#282828" stroke-width="0.75" stroke-miterlimit="10"/>
<path d="M0.427246 104.33C26.3669 110.302 53.4442 109.083 78.7427 100.806C102.4 92.9661 117.667 80.1776 129.479 71.6422C171.927 40.9906 185.216 8.52119 204.941 10.6405C214.949 11.7195 224.359 11.9917 231.368 14.8352C243.394 19.6959 241.051 25.0913 248.381 30.8755C262.385 41.9142 305.98 29.4465 331.319 21.577C355.929 13.8631 357.022 11.9917 370.447 13.4985C391.63 15.8706 401.59 22.5103 427.983 31.6046C445.321 37.6152 463.242 41.7891 481.451 44.0577" stroke="#282828" stroke-width="0.75" stroke-miterlimit="10"/>
<path d="M0.427246 106.907C25.6116 112.95 51.9797 111.876 76.5894 103.805C100.047 95.9992 114.581 83.0795 127.17 74.1552C167.922 45.273 180.987 18.9474 200.746 16.6775C213.107 15.2582 224.039 15.8414 233.104 17.6205C246.801 20.3036 246.004 24.1289 254.977 29.7722C269.831 39.1145 310.914 28.557 334.901 21.4167C358.174 14.4902 359.258 13.0465 373.422 15.613C394.673 19.4627 404.195 25.3684 428.868 34.0253C445.999 40.1069 463.779 44.1751 481.85 46.1479" stroke="#282828" stroke-width="0.75" stroke-miterlimit="10"/>
<path d="M0.427246 110.829C24.8543 116.94 50.513 116.007 74.4313 108.136C97.6946 100.359 111.489 87.3082 124.861 78C163.887 50.8336 176.817 27.021 196.556 24.0462C211.221 21.8395 224.17 18.4662 234.834 21.7374C249.509 26.2384 250.058 26.5495 261.568 30.0006C275.416 40.5046 315.842 28.9847 338.488 22.588C360.41 16.415 361.489 15.3942 376.402 19.064C397.706 24.3087 406.796 29.5777 429.748 37.7777C446.672 43.9283 464.314 47.8895 482.243 49.5649" stroke="#282828" stroke-width="0.75" stroke-miterlimit="10"/>
<path d="M0.427246 114.844C24.096 121.028 49.0465 120.248 72.2829 112.598C95.3517 104.86 108.403 91.6634 122.562 81.976C159.824 56.4768 172.608 34.9585 192.342 31.5462C209.354 28.6104 223.509 23.9538 236.574 25.9905C253.421 28.6152 254.914 27.5848 268.169 30.3651C282.697 39.7122 320.766 29.5048 342.051 23.8907C362.622 18.471 363.701 17.8245 379.357 22.6463C400.744 29.218 409.372 33.928 430.608 41.6614C447.327 47.8814 464.833 51.7359 482.618 53.1132" stroke="#282828" stroke-width="0.75" stroke-miterlimit="10"/>
<path d="M0.427246 118.937C23.3321 125.18 47.5678 124.546 70.115 117.114C92.9894 109.41 105.287 96.0672 120.243 86.0056C155.726 62.1347 168.364 42.7939 188.171 39.0998C207.483 35.498 223.1 32.5427 238.295 30.2922C257.057 27.5119 259.75 28.6639 274.75 30.7783C289.984 38.9977 325.69 30.0978 345.658 25.2468C364.877 20.5806 365.956 20.2792 382.356 26.2822C403.782 34.1273 411.982 38.3513 431.488 45.6034C448.002 51.8906 465.374 55.6386 483.011 56.7198" stroke="#282828" stroke-width="0.75" stroke-miterlimit="10"/>
<path d="M0.427246 123.083C18.5236 128.318 42.9583 130.082 67.9617 121.688C90.6563 114.066 102.181 100.52 117.934 90.0934C151.605 67.812 164.111 50.5759 183.977 46.7117C205.636 42.5023 222.862 38.3853 240.03 34.6523C260.591 30.1756 265.063 27.0501 281.346 31.2498C298.218 35.6001 330.614 30.7637 349.24 26.6613C367.108 22.7436 368.197 22.7727 385.331 29.9714C406.864 39.0463 414.573 42.8425 432.392 49.5989C443.47 53.7986 460.181 59.2911 483.429 60.3799" stroke="#282828" stroke-width="0.75" stroke-miterlimit="10"/>
<path d="M0.427246 127.302C18.9465 132.824 42.3896 134.219 65.8036 126.33C88.3037 118.747 99.0653 105.025 115.626 94.2493C147.458 73.5281 159.785 58.3482 179.787 54.3916C203.799 49.6378 222.668 44.3251 241.761 39.0804C264.173 32.9219 269.768 28.2362 287.937 31.7893C305.256 35.1918 335.533 31.4588 352.827 28.1438C369.354 24.9746 370.481 25.2663 388.311 33.7336C409.95 44.0043 417.154 47.4213 433.272 53.6625C444.189 57.8913 460.652 63.3839 483.823 64.113" stroke="#282828" stroke-width="0.75" stroke-miterlimit="10"/>
<path d="M0.427246 131.57C19.3839 137.403 41.8209 138.404 63.6454 131.025C85.9511 123.482 95.9399 109.58 113.317 98.4587C143.298 79.2686 155.459 66.1253 175.592 62.1249C201.981 56.8803 222.498 50.3329 243.491 43.5619C267.795 35.7265 274.478 29.5874 294.528 32.3823C312.318 34.8613 340.452 32.2317 356.41 29.6798C371.565 27.2494 372.766 27.8084 391.285 37.5493C413.061 48.9962 419.73 52.0682 434.152 57.7795C444.913 62.0423 461.119 67.5544 484.217 67.8946" stroke="#282828" stroke-width="0.75" stroke-miterlimit="10"/>
<path d="M0.427246 135.901C19.7874 142.011 41.2571 142.647 61.4873 135.779C83.5986 128.269 92.8047 114.173 111.008 102.726C139.117 85.0432 150.783 71.5645 171.402 69.9167C200.634 67.5787 222.342 56.4039 245.221 48.1019C271.435 38.5944 280.218 26.2287 301.119 33.0337C318.579 38.7353 345.352 33.0337 359.997 31.2741C373.792 29.5972 375.065 30.3895 394.265 41.4184C416.191 54.0222 422.296 56.7928 435.031 61.9549C445.633 66.2566 461.59 71.7735 484.611 71.7394" stroke="#282828" stroke-width="0.75" stroke-miterlimit="10"/>
<path d="M0.427246 140.372C20.2103 146.779 40.6884 147.022 59.334 140.703C81.246 133.227 89.6598 118.917 108.699 107.164C134.947 90.9634 146.452 79.8616 167.207 77.8785C198.802 74.8502 222.206 62.6499 246.957 52.8118C275.1 41.6322 284.564 28.4549 307.715 33.8551C326.079 38.1423 350.285 34.0398 363.579 33.0385C376.018 32.1004 377.403 33.1211 397.24 45.4625C419.341 59.2085 424.863 61.702 435.916 66.3003C446.352 70.6457 462.062 76.1578 485.009 75.7495" stroke="#282828" stroke-width="0.75" stroke-miterlimit="10"/>
<path d="M0.427246 145.126C20.6283 151.829 40.1148 151.698 57.1758 145.855C78.8934 138.414 86.5004 123.87 106.39 111.83C130.723 97.0977 142.116 88.3873 163.017 86.0687C196.984 82.3017 222.08 69.1292 248.687 57.7552C278.785 44.8889 289.031 31.1769 314.306 34.9099C333.526 37.7485 355.195 35.2501 367.167 35.0314C378.239 34.8273 379.751 36.0716 400.219 49.735C422.505 64.6136 427.439 66.8593 436.796 70.8791C447.067 75.2829 462.558 80.7754 485.403 79.9929" stroke="#282828" stroke-width="0.75" stroke-miterlimit="10"/>
<path d="M0.427246 149.963C21.0512 156.962 39.5461 156.447 55.0177 151.119C76.5408 143.707 83.3264 128.901 104.082 116.609C126.514 103.319 137.766 97.0151 158.823 94.3708C195.142 89.8115 221.963 75.7155 250.418 62.8055C282.498 48.2574 293.61 34.21 320.898 36.0716C340.924 37.4375 360.109 36.5577 370.749 37.1361C380.451 37.6562 382.113 39.1144 403.194 54.1194C425.694 70.1257 429.967 72.1672 437.676 75.5697C447.771 80.0464 463 85.5098 485.797 84.3481" stroke="#282828" stroke-width="0.75" stroke-miterlimit="10"/>
<path d="M0.427246 155.227C21.474 162.518 38.9628 161.594 52.8595 156.806C74.1737 149.379 80.128 134.316 101.773 121.809C122.295 109.949 133.411 106.061 154.633 103.096C193.285 97.6955 221.856 82.7295 252.129 68.2786C286.153 52.0487 298.397 39.8727 327.469 37.6562C348.186 36.0813 364.999 38.2881 374.317 39.6637C382.662 40.8983 384.475 42.5801 406.154 58.9218C428.873 76.0606 432.489 77.8785 438.536 80.6734C448.442 85.257 463.452 90.6573 486.171 89.1213" stroke="#282828" stroke-width="0.75" stroke-miterlimit="10"/>
<path d="M0.427246 160.437C21.8921 168.025 38.3941 166.722 50.7063 162.445C71.8211 155.052 76.9005 139.629 99.4639 126.962C118.071 116.516 129.046 115.053 150.438 111.772C191.418 105.487 221.754 89.69 253.883 73.7081C289.896 55.7867 303.292 42.5996 334.085 39.1971C355.472 36.8445 369.942 39.9408 377.918 42.1427C384.913 44.087 386.891 45.9826 409.148 63.6804C432.11 81.9372 435.036 83.5753 439.44 85.7383C449.123 90.492 463.943 95.7562 486.589 93.8459" stroke="#282828" stroke-width="0.75" stroke-miterlimit="10"/>
<path d="M0.427246 165.653C22.3004 173.532 37.8546 171.855 48.5481 168.083C69.4491 160.724 73.639 144.864 97.155 132.114C113.847 123.063 124.676 124.045 146.248 120.448C189.532 113.23 221.657 96.631 255.614 79.1325C293.615 59.5245 308.201 45.3069 340.676 40.733C362.816 37.6173 374.88 41.569 381.506 44.6216C387.159 47.2269 389.283 49.3802 412.128 68.439C435.338 87.8186 437.549 89.2914 440.32 90.7982C449.686 95.8971 464.41 100.86 486.983 98.5753" stroke="#282828" stroke-width="0.75" stroke-miterlimit="10"/>
</svg>
