<svg width="461" height="461" viewBox="0 0 461 461" fill="none" xmlns="http://www.w3.org/2000/svg">
<mask id="mask0_700_437" style="mask-type:alpha" maskUnits="userSpaceOnUse" x="0" y="0" width="461" height="461">
<rect width="461" height="461" fill="#D9D9D9"/>
</mask>
<g mask="url(#mask0_700_437)">
<g clip-path="url(#clip0_700_437)">
<path fill-rule="evenodd" clip-rule="evenodd" d="M215.663 46.5861C191.775 41.7422 171.13 40.1409 154.978 48.6972C137.106 58.1614 120.461 78.7402 112.73 104.409C122.02 85.4224 135.126 70.5418 153.263 62.4641C130.132 87.7348 102.11 112.885 91.4133 146.493C86.6294 161.521 84.3002 178.419 86.2084 192.928C89.3707 216.955 96.0179 216.061 79.5522 236.013C87.6866 237.489 94.9922 232.131 99.2475 227.627C100.184 239.131 97.6036 237.521 102.611 245.737C107.619 253.953 106.696 255.425 98.7816 266.526C95.785 270.73 94.4816 280.543 95.7716 292.253C97.1512 274.653 107.476 270.149 111.843 264.339C112.399 266.441 112.067 280.002 109.021 287.753C120.779 279.832 118.016 265.412 119.395 270.006C122.49 280.311 116.622 293.291 114.495 298.85C123.901 295.728 128.053 287.494 128.264 280.136C141.214 294.516 122.777 312.626 110.522 313.954C118.217 320.4 122.056 323.325 132.551 320.833C128.372 326.277 124.685 328.764 118.929 332.717C141.545 333.388 142.665 319.536 145.316 323.454C154.23 336.618 145.787 356.727 160.936 368.7L304.231 366.813C309.965 356.584 308.213 344.172 310.323 338.8C314.354 328.544 319.662 327.52 324.925 326.76L332.065 325.235C316.334 311.901 339.734 322.224 346.703 313.172C334.193 314.42 327.729 314.075 322.318 292.758C322.318 292.758 324.11 287.279 324.025 288.527C322.986 303.909 333.212 304.387 346.318 304.785C333.207 293.183 335.832 288.147 341.216 270.261C343.801 261.687 347.406 252.652 338.332 242.74C348.11 239.811 342.623 252.58 359.586 251.059C348.32 244.377 351.581 240.321 353.628 233.079C367.666 230.078 365.736 224.425 358.399 213.569C369.825 214.039 374.515 209.987 380.58 197.745C349.431 214.817 352.804 189.538 348.401 163.529C354.134 169.209 353.377 174.979 355.966 186.577C362.43 168.359 354.676 156.386 350.529 141.309C345.127 121.669 357.579 103.769 335.496 88.2984L318.457 76.3608C324.957 79.3262 330.797 82.1931 336.916 85.8876C317.973 65.6263 316.155 55.7104 285.535 50.3029C294.417 51.0811 301.476 52.3782 310.117 54.7174C298.48 48.2454 288.827 47.096 276.881 42.2655C261.781 36.1558 246.543 28.0781 233.611 34.1565C228.088 36.7506 224.984 43.8667 215.654 46.5995L215.663 46.5861Z" fill="#1D1D1D"/>
<path fill-rule="evenodd" clip-rule="evenodd" d="M118.396 314.764C131.167 317.573 140.062 313.65 144.609 299.15C143.31 310.175 140.582 318.423 133.881 322.229C141.939 321.831 143.243 318.266 146.118 312.572C145.679 326.688 155.014 325.566 155.637 349.53L157.298 338.518L159.113 323.584L157.603 298.394C157.603 298.394 153.07 289.493 152.013 288.286C150.956 287.078 144.461 281.8 144.461 281.8L138.571 278.634C140.77 286.38 142.795 288.849 142.633 290.956C141.397 307.049 128.537 314.912 118.405 314.76L118.396 314.764Z" fill="#0E0E0E"/>
<path fill-rule="evenodd" clip-rule="evenodd" d="M343.716 314.536C330.945 317.345 322.43 315.761 317.884 301.261C319.183 312.286 321.911 320.534 328.612 324.34C320.553 323.942 319.25 320.377 316.374 314.688C316.813 328.799 307.479 327.681 306.856 351.646L305.194 340.634L303.38 325.7L304.89 300.51C304.89 300.51 309.423 291.609 310.48 290.401C311.537 289.194 318.032 283.916 318.032 283.916L323.922 280.749C321.723 288.491 319.698 290.965 319.859 293.071C321.095 309.164 333.579 314.688 343.711 314.54L343.716 314.536Z" fill="#0E0E0E"/>
<path fill-rule="evenodd" clip-rule="evenodd" d="M-16.7603 491.865C-17.1813 491.865 -17.5665 491.628 -17.7592 491.256C-17.9518 490.881 -17.9159 490.433 -17.6696 490.093L-10.5565 480.249C-4.03475 471.228 4.91478 464.375 15.3335 460.431C27.311 455.895 45.4161 449.043 93.0125 433.742C129.084 422.144 145.491 415.422 151.22 399.709C158.338 380.19 157.948 350.751 153.971 332.959C153.894 332.623 153.98 332.275 154.195 332.006C154.41 331.747 154.728 331.595 155.063 331.595C155.072 331.595 156.398 331.622 156.398 331.622C156.474 331.604 156.555 331.595 156.636 331.595C156.645 331.595 230.875 333.026 230.875 333.026C230.875 333.026 305.064 331.595 305.069 331.595C305.149 331.595 305.23 331.604 305.311 331.622C305.311 331.622 306.637 331.595 306.641 331.595C306.977 331.595 307.295 331.747 307.51 332.006C307.73 332.27 307.81 332.623 307.734 332.959C303.752 350.751 303.367 380.19 310.484 399.709C316.316 415.699 323.635 420.588 359.438 432.382C390.667 442.669 412.078 448.596 427.711 452.921C432.754 454.316 437.113 455.524 440.933 456.638C453.238 460.229 464.078 467.967 471.441 478.424L479.67 490.107C479.912 490.447 479.939 490.894 479.746 491.265C479.553 491.636 479.168 491.869 478.752 491.869H-16.7603V491.865Z" fill="white"/>
<path d="M306.641 332.713C302.314 352.057 302.605 381.376 309.432 400.089C315.344 416.299 322.623 421.429 359.089 433.438C400.544 447.093 425.126 453.185 440.624 457.707C452.732 461.24 463.276 468.763 470.532 479.064L478.76 490.746H-16.7603L-9.64728 480.902C-3.27332 472.082 5.55079 465.328 15.7321 461.477C28.9056 456.49 47.0465 449.696 93.3574 434.807C129.904 423.057 146.36 416.303 152.273 400.094C159.099 381.376 159.39 352.062 155.063 332.717L156.64 332.749C156.64 332.749 156.64 332.726 156.636 332.717L230.852 334.149L305.069 332.717C305.069 332.717 305.069 332.74 305.06 332.749L306.641 332.717M306.641 330.481C306.641 330.481 306.61 330.481 306.596 330.481L305.396 330.503C305.288 330.486 305.181 330.481 305.069 330.481C305.055 330.481 305.042 330.481 305.024 330.481L230.852 331.912L156.68 330.481C156.68 330.481 156.654 330.481 156.636 330.481C156.524 330.481 156.416 330.49 156.309 330.503L155.108 330.481C155.108 330.481 155.077 330.481 155.063 330.481C154.392 330.481 153.756 330.781 153.33 331.304C152.896 331.836 152.73 332.538 152.878 333.205C156.824 350.841 157.213 380.007 150.168 399.329C147.444 406.794 142.378 412.13 133.223 417.166C124.161 422.149 111.494 426.63 92.6721 432.682C45.0532 447.992 26.9302 454.849 14.9393 459.388C4.31452 463.409 -4.81418 470.4 -11.4614 479.596L-18.5744 489.44C-19.0671 490.12 -19.1343 491.019 -18.7536 491.766C-18.3684 492.513 -17.6024 492.983 -16.7603 492.983H478.76C479.598 492.983 480.364 492.518 480.749 491.775C481.134 491.033 481.076 490.143 480.592 489.458L472.364 477.776C464.852 467.108 453.802 459.218 441.251 455.56C437.421 454.442 433.059 453.234 428.011 451.839C412.387 447.513 390.99 441.592 359.792 431.313C343.183 425.843 331.416 421.456 324.061 416.486C317.109 411.79 314.206 406.638 311.541 399.325C304.504 380.034 304.885 350.926 308.813 333.281C308.863 333.098 308.885 332.91 308.885 332.713C308.885 331.483 307.891 330.486 306.663 330.477C306.659 330.477 306.65 330.477 306.646 330.477L306.641 330.481Z" fill="black"/>
<path fill-rule="evenodd" clip-rule="evenodd" d="M140.864 414.957C147.467 409.706 150.181 405.792 152.609 399.146C159.435 380.428 158.902 350.733 154.575 331.389L231.641 334.158L306.646 332.713C306.457 333.563 305.884 336.099 305.423 339.046C305.002 341.73 304.684 344.843 304.545 345.675C301.261 349.593 297.812 353.502 293.987 356.695C289.821 360.171 285.934 363.628 282.596 367.609C276.657 374.698 271.784 385.401 265.97 390.437C253.979 400.823 236.021 406.749 214.955 411.535C189.639 417.287 158.544 420.409 140.873 414.957H140.864Z" fill="#E6E6E6"/>
<path fill-rule="evenodd" clip-rule="evenodd" d="M156.21 337.508C155.807 334.708 154.185 332.024 153.621 329.515L231.641 334.158L306.645 332.713C306.283 334.332 305.956 336.027 305.656 337.776C303.546 340.299 301.364 342.817 299.058 345.142C293.064 350.389 285.427 355.501 280.285 360.573C270.27 370.449 266.78 377.789 259.421 380.991C252.07 384.185 245.293 384.583 232.236 384.565C231.856 384.574 231.47 384.583 231.085 384.583C216.962 384.632 209.939 384.337 202.293 381.013C194.929 377.811 191.444 370.476 181.428 360.596C174.839 354.097 162.284 344.337 156.21 337.512V337.508Z" fill="#1D1D1D"/>
<path fill-rule="evenodd" clip-rule="evenodd" d="M321.723 227.931C325.821 222.676 327.385 223.754 329.66 224.366C334.708 225.726 333.087 232.484 332.616 240.119C332.343 244.561 334.605 249.27 334.345 256.932C333.897 270.14 327.161 276.491 320.321 288.022C319.089 290.097 315.165 292.002 311.622 290.137L317.436 233.817L321.723 227.927V227.931Z" fill="url(#paint0_linear_700_437)"/>
<path fill-rule="evenodd" clip-rule="evenodd" d="M324.442 243.111C324.056 248.014 323.967 252.951 323.277 257.818C322.605 262.577 321.454 267.26 320.37 271.942C318.498 280.034 318.368 280.986 319.277 289.185C315.299 292.445 311.273 290.191 307.38 288.585L306.216 258.587L319.591 240.602C320.796 236.143 323.743 228.951 327.855 227.797C329.297 227.394 330.372 227.408 331.205 228.481C329.467 227.658 328.182 228.383 327.228 229.877C324.939 233.459 324.563 241.461 324.433 243.111H324.442Z" fill="url(#paint1_linear_700_437)"/>
<path fill-rule="evenodd" clip-rule="evenodd" d="M322.09 276.979C327.676 270.118 330.936 265.582 330.054 255.975C329.651 251.569 328.244 248.027 327.738 245.115C327.107 241.466 327.362 237.735 328.294 232.856C327.962 238.429 329.078 242.467 329.575 245.267C330.359 249.646 331.272 254.302 331.353 257.751C331.555 266.334 329.508 270.542 322.09 276.983V276.979Z" fill="#ABABAB"/>
<path fill-rule="evenodd" clip-rule="evenodd" d="M325.221 268.145C325.512 266.884 324.025 262.644 323.962 262.062C323.429 257.46 323.398 253.01 325.512 243.237C324.325 247.28 322.175 256.216 321.288 263.619C320.916 266.732 320.222 270.717 321.194 272.014C321.951 273.025 324.218 272.479 325.221 268.141V268.145Z" fill="#666666"/>
<path fill-rule="evenodd" clip-rule="evenodd" d="M139.986 227.931C135.888 222.676 134.325 223.754 132.049 224.366C127.001 225.726 128.623 232.484 129.093 240.119C129.366 244.561 127.104 249.27 127.364 256.932C127.812 270.14 134.544 276.491 141.388 288.022C142.62 290.097 146.544 292.002 150.087 290.137L144.273 233.817L139.986 227.927V227.931Z" fill="url(#paint2_linear_700_437)"/>
<path fill-rule="evenodd" clip-rule="evenodd" d="M137.267 243.111C137.653 248.014 137.742 252.951 138.432 257.818C139.104 262.577 140.255 267.26 141.339 271.942C143.207 280.034 143.341 280.986 142.427 289.185C146.405 292.445 150.432 290.191 154.324 288.585L155.489 258.587L142.114 240.602C140.909 236.143 137.962 228.951 133.85 227.797C132.407 227.394 131.332 227.408 130.499 228.481C132.237 227.658 133.523 228.383 134.477 229.877C136.766 233.459 137.142 241.461 137.272 243.111H137.267Z" fill="url(#paint3_linear_700_437)"/>
<path fill-rule="evenodd" clip-rule="evenodd" d="M139.619 276.979C134.033 270.118 130.773 265.582 131.655 255.975C132.058 251.569 133.465 248.027 133.971 245.115C134.602 241.466 134.347 237.735 133.415 232.856C133.742 238.429 132.631 242.467 132.134 245.267C131.35 249.646 130.437 254.302 130.356 257.751C130.154 266.334 132.201 270.542 139.619 276.983V276.979Z" fill="#ABABAB"/>
<path fill-rule="evenodd" clip-rule="evenodd" d="M136.488 268.145C136.197 266.884 137.68 262.644 137.747 262.062C138.28 257.46 138.311 253.01 136.197 243.237C137.384 247.28 139.534 256.216 140.421 263.619C140.793 266.732 141.487 270.717 140.515 272.014C139.758 273.025 137.491 272.479 136.488 268.141V268.145Z" fill="#666666"/>
<path fill-rule="evenodd" clip-rule="evenodd" d="M228.778 382.024C215.739 382.024 209.115 381.514 201.845 378.357C196.98 376.241 193.71 372.395 189.567 367.519C187.112 364.625 184.326 361.347 180.64 357.711C177.737 354.848 174.082 352.013 170.208 349.011C163.023 343.443 155.597 337.686 153.178 331.559C150.217 324.058 149.885 316.218 149.5 307.134C149.254 301.261 148.972 294.601 147.901 287.23C147.001 281.013 145.24 275.002 143.534 269.192C141.267 261.454 138.92 253.457 138.683 245.079C138.454 237.029 139.135 229.148 139.856 220.806C140.515 213.176 141.196 205.286 141.16 197.029V196.287C141.017 163.721 140.923 142.181 161.173 125.453C161.213 125.408 161.258 125.363 161.303 125.323C166.786 120.833 173.101 116.915 180.076 113.676L180.3 113.569C180.698 113.386 181.097 113.207 181.5 113.032L181.961 112.827C182.109 112.759 182.257 112.692 182.405 112.63C182.642 112.527 182.88 112.428 183.117 112.33L183.838 112.026C184.067 111.928 184.295 111.834 184.523 111.74C184.783 111.632 185.043 111.529 185.307 111.431L186.002 111.158C186.226 111.069 186.445 110.979 186.669 110.894C187.081 110.738 187.493 110.586 187.91 110.434C187.91 110.434 188.689 110.143 188.828 110.094C189.545 109.834 190.27 109.584 190.996 109.342C203.309 105.218 217.101 103.04 230.893 103.04C257.826 103.04 283.161 111.163 300.397 125.328C320.778 142.073 320.683 163.632 320.545 196.269V197.016C320.509 205.273 321.185 213.162 321.844 220.788C322.565 229.13 323.241 237.011 323.017 245.062C322.78 253.439 320.433 261.441 318.166 269.178C316.46 274.993 314.699 281 313.799 287.217C312.733 294.588 312.451 301.247 312.2 307.12C311.815 316.204 311.488 324.049 308.522 331.545C306.104 337.673 298.672 343.429 291.492 348.998C287.622 351.999 283.967 354.835 281.06 357.697C277.374 361.334 274.588 364.612 272.129 367.506C267.99 372.381 264.715 376.232 259.851 378.343C252.581 381.501 245.961 382.011 232.922 382.011H232.218C231.86 382.02 231.466 382.024 231.076 382.029C230.283 382.029 229.513 382.029 228.765 382.029L228.778 382.024Z" fill="white"/>
<path d="M230.897 104.15C256.366 104.15 281.817 111.494 299.689 126.182C319.81 142.713 319.568 163.811 319.425 197.003C319.353 214.178 322.336 229.555 321.902 245.026C321.494 259.464 314.816 272.403 312.693 287.051C310.001 305.64 312.303 318.928 307.483 331.129C303.94 340.102 288.738 348.551 280.276 356.897C270.261 366.772 266.771 374.112 259.412 377.314C252.2 380.45 245.535 380.888 232.94 380.888C232.702 380.888 232.465 380.888 232.227 380.888C231.847 380.897 231.461 380.902 231.076 380.906C230.283 380.906 229.513 380.906 228.76 380.906C216.16 380.906 209.5 380.468 202.284 377.332C194.92 374.134 191.435 366.795 181.419 356.915C172.958 348.573 157.756 340.12 154.212 331.147C149.393 318.946 151.7 305.653 149.003 287.069C146.884 272.425 140.201 259.481 139.794 245.044C139.359 229.573 142.342 214.196 142.271 197.02C142.127 163.829 141.886 142.731 162.006 126.2V126.182C167.538 121.651 173.791 117.818 180.541 114.687C180.613 114.651 180.689 114.616 180.761 114.584C181.2 114.383 181.643 114.186 182.087 113.989C182.338 113.878 182.588 113.761 182.844 113.649C183.193 113.497 183.547 113.354 183.901 113.207C184.25 113.059 184.595 112.912 184.945 112.768C185.316 112.616 185.693 112.473 186.069 112.326C186.4 112.196 186.732 112.062 187.063 111.932C187.542 111.749 188.026 111.574 188.51 111.395C188.743 111.31 188.971 111.221 189.204 111.14C189.916 110.885 190.633 110.639 191.35 110.398H191.363C203.784 106.234 217.338 104.154 230.888 104.154M230.888 101.918C216.976 101.918 203.063 104.114 190.647 108.273C190.638 108.273 190.633 108.278 190.624 108.282C189.822 108.551 189.106 108.801 188.438 109.038C188.295 109.092 188.152 109.141 188.008 109.195L187.731 109.298L187.529 109.374C187.104 109.53 186.678 109.687 186.257 109.848C186.028 109.937 185.8 110.027 185.576 110.116L185.24 110.25L184.9 110.384C184.631 110.492 184.358 110.595 184.093 110.706C183.856 110.805 183.623 110.903 183.39 111.002L183.027 111.154L182.665 111.306C182.427 111.404 182.185 111.507 181.948 111.61C181.791 111.677 181.634 111.749 181.482 111.82C181.379 111.865 181.28 111.914 181.177 111.959L181.03 112.021C180.627 112.2 180.219 112.379 179.82 112.563C179.767 112.589 179.717 112.612 179.663 112.634L179.587 112.67C172.533 115.944 166.136 119.911 160.582 124.46C160.51 124.518 160.443 124.581 160.385 124.643C139.794 141.702 139.883 163.439 140.027 196.291V197.034C140.067 205.241 139.386 213.104 138.732 220.708C138.011 229.085 137.326 236.993 137.554 245.106C137.796 253.627 140.161 261.695 142.45 269.5C144.143 275.275 145.894 281.25 146.786 287.387C147.847 294.704 148.125 301.332 148.371 307.178C148.761 316.361 149.093 324.291 152.125 331.966C154.66 338.38 162.208 344.235 169.509 349.892C173.352 352.871 176.985 355.685 179.838 358.502C183.489 362.103 186.257 365.363 188.698 368.235C192.935 373.222 196.277 377.158 201.383 379.376C208.837 382.615 215.556 383.138 228.752 383.138C229.504 383.138 230.279 383.138 231.072 383.138C231.466 383.138 231.851 383.129 232.241 383.12H232.931C246.126 383.12 252.845 382.597 260.294 379.358C265.396 377.14 268.742 373.204 272.98 368.217C275.421 365.341 278.189 362.085 281.84 358.484C284.697 355.667 288.325 352.853 292.169 349.875C299.47 344.212 307.022 338.362 309.553 331.948C312.585 324.273 312.921 316.343 313.306 307.16C313.553 301.315 313.835 294.686 314.892 287.369C315.779 281.232 317.53 275.261 319.223 269.482C321.512 261.678 323.877 253.604 324.119 245.084C324.348 236.97 323.667 229.058 322.941 220.681C322.287 213.077 321.606 205.214 321.642 197.007V196.26C321.785 163.305 321.879 141.532 301.091 124.451C283.658 110.125 258.064 101.909 230.875 101.909L230.888 101.918Z" fill="black"/>
<path fill-rule="evenodd" clip-rule="evenodd" d="M241.311 285.687C255.676 284.699 256.138 277.815 254.337 271.111C252.42 263.972 250.982 260.984 248.071 255.729C247.107 254.074 246.431 252.155 246.409 250.321C246.239 236.801 247.627 229.474 251.255 225.27C254.364 221.669 261.79 212.067 272.536 207.012L263.036 201.117C253.576 208.386 244.151 210.072 241.786 215.461C238.257 223.512 237.737 238.133 239.255 249.57C239.829 253.904 241.835 258.126 243.296 259.723C256.241 271.866 252.666 283.558 241.307 285.687H241.311Z" fill="#F2F2F2"/>
<path fill-rule="evenodd" clip-rule="evenodd" d="M218.158 285.687C203.793 284.699 203.332 277.815 205.132 271.111C207.05 263.972 208.487 260.984 211.399 255.729C212.362 254.074 213.038 252.155 213.061 250.321C213.231 236.801 211.842 229.474 208.214 225.27C205.106 221.669 197.679 212.067 186.933 207.012L196.434 201.117C205.894 208.386 215.318 210.072 217.683 215.461C221.213 223.512 221.732 238.133 220.214 249.57C219.636 253.904 217.634 258.126 216.174 259.723C203.229 271.866 206.803 283.558 218.162 285.687H218.158Z" fill="#F2F2F2"/>
<path fill-rule="evenodd" clip-rule="evenodd" d="M321.897 245.2C321.467 259.576 314.807 272.766 312.692 287.355C310 305.944 312.307 319.232 307.483 331.434C303.94 340.406 288.061 348.953 279.6 357.295C269.584 367.171 267.358 373.638 259.994 376.841C259.708 376.961 259.412 377.082 259.107 377.198C264.294 371.764 262.314 368.025 265.799 361.696C276.343 342.557 286.005 319.639 292.773 300.21C296.661 289.046 305.656 282.86 311.47 272.274C314.368 266.996 319.353 256.373 321.888 245.2H321.897Z" fill="url(#paint4_linear_700_437)"/>
<path fill-rule="evenodd" clip-rule="evenodd" d="M139.776 244.865C140.206 259.24 147.252 272.721 149.366 287.315C152.058 305.904 149.756 319.192 154.575 331.393C158.118 340.366 169.831 345.335 178.293 353.676C185.388 360.676 189.477 365.838 193.106 369.912C193.397 370.239 195.256 372.39 196.805 373.718C198.355 375.047 200.429 376.469 201.083 376.751C201.325 376.854 199.556 374.573 199.211 373.964C199.054 373.687 198.87 373.428 198.673 373.173C194.266 367.421 193.415 362.912 190.051 356.807C179.507 337.669 176.044 319.59 169.281 300.161C165.393 288.997 159.305 282.717 153.491 272.13C150.593 266.853 142.315 256.038 139.776 244.86V244.865Z" fill="url(#paint5_linear_700_437)"/>
<path fill-rule="evenodd" clip-rule="evenodd" d="M198.906 350.116C205.795 341.166 220.662 338.586 232.796 339.435C245.316 340.312 255.103 344.865 262.386 351.86C267.264 356.548 248.079 363.15 227.466 362.555C215.099 362.197 195.713 361.275 198.906 350.121V350.116Z" fill="#F2F2F2"/>
<path fill-rule="evenodd" clip-rule="evenodd" d="M230.96 281.568C236.747 281.487 239.336 274.72 244.254 273.834C250.126 272.779 252.644 275.14 252.783 278.285C252.921 281.402 250.803 283.554 248.169 284.39C245.007 285.387 241.275 284.497 237.719 284.828C235.184 285.065 233.656 287.548 230.852 287.422C228.048 287.548 226.521 285.065 223.986 284.828C220.429 284.497 216.783 285.338 213.621 284.341C210.982 283.509 208.783 281.402 208.922 278.285C209.061 275.14 211.578 272.779 217.45 273.834C222.449 274.733 225.029 281.648 230.964 281.568H230.96Z" fill="url(#paint6_linear_700_437)"/>
<path fill-rule="evenodd" clip-rule="evenodd" d="M247.004 276.384C249.441 276.218 249.289 279.913 247.748 281.205C246.615 282.158 244.805 282.324 243.336 282.489C241.616 282.686 239.726 282.99 238.682 283.491C239.641 281.241 241.092 279.117 243.184 277.784C244.447 276.983 245.795 276.469 247.004 276.384Z" fill="#666666"/>
<path fill-rule="evenodd" clip-rule="evenodd" d="M214.705 276.384C212.268 276.218 212.42 279.913 213.957 281.205C215.09 282.154 216.899 282.324 218.369 282.489C220.089 282.686 221.979 282.99 223.027 283.491C222.069 281.241 220.617 279.117 218.521 277.784C217.258 276.983 215.91 276.464 214.705 276.384Z" fill="#666666"/>
<path fill-rule="evenodd" clip-rule="evenodd" d="M282.467 231.232C279.143 232.525 277.401 233.813 274.198 233.84C276.975 234.721 278.565 234.815 282.269 234.113C284.661 233.661 297.593 231.505 300.822 227.949C301.942 226.715 300.657 224.313 299.058 223.763C298.448 223.553 299.152 226.03 297.275 226.849C292.944 228.741 284.352 230.499 282.467 231.232Z" fill="#B3B3B3"/>
<path fill-rule="evenodd" clip-rule="evenodd" d="M252.89 224.487C256.648 221.321 261.723 217.783 264.187 217.546C265.204 217.447 256.671 223.763 254.892 227.542C261.32 227.542 279.801 217.246 284.411 219.093C290.408 221.491 295.506 225.749 297.906 227.184C299.385 228.07 302.144 225.404 299.21 221.857C295.694 217.604 288.805 216.052 281.432 214.853C275.206 213.842 269.418 214.764 267.497 213.279C265.423 211.673 269.526 207.245 279.51 207.191C291.183 207.129 301.006 206.44 311.694 210.872C307.076 198.192 279.38 199.342 263.237 203.564C251.027 206.758 249.755 212.111 249.369 219.357C249.19 222.756 249.405 227.421 252.886 224.487H252.89Z" fill="#CCCCCC"/>
<path fill-rule="evenodd" clip-rule="evenodd" d="M251.596 222.792C253.66 220.945 256.173 218.673 259.479 216.633C261.974 215.09 264.223 214.097 266.404 213.874C269.862 213.525 276.128 214.826 278.377 214.987C281.414 215.206 292.599 215.994 294.516 217.702C295.627 218.691 299.806 222.636 300.648 224.34C301.23 225.52 299.779 224.384 297.88 222.891C295.658 221.142 292.876 218.87 292.818 218.843C288.227 216.436 281.203 216.848 276.187 216.146C272.666 215.654 268.603 214.473 265.459 215.233C262.189 216.02 258.727 217.689 255.891 220.068C255.613 220.301 253.19 222.126 251.954 223.19C251.264 223.785 250.44 223.83 251.596 222.792Z" fill="#B3B3B3"/>
<path fill-rule="evenodd" clip-rule="evenodd" d="M263.139 220.516L270.65 217.657C275.331 217.912 279.77 217.908 283.689 219.031C287.371 220.086 290.113 221.746 295.273 226.334C293.356 226.531 289.49 226.254 287.636 226.728C283.56 227.761 279.439 229.805 275.34 230.02C272.12 230.185 268.379 229.304 265.123 227.936C262.807 226.965 261.817 226.979 259.493 227.927C256.644 229.094 256.088 229.55 255.269 229.09C254.382 228.589 259.542 224.022 263.134 220.524L263.139 220.516Z" fill="#FEFEFE"/>
<mask id="mask1_700_437" style="mask-type:luminance" maskUnits="userSpaceOnUse" x="255" y="217" width="41" height="14">
<path d="M263.139 220.516L270.65 217.657C275.331 217.912 279.77 217.908 283.689 219.031C287.371 220.086 290.113 221.746 295.273 226.334C293.356 226.531 289.49 226.254 287.636 226.728C283.56 227.761 279.439 229.805 275.34 230.02C272.12 230.185 268.379 229.304 265.123 227.936C262.807 226.965 261.817 226.979 259.493 227.927C256.644 229.094 256.088 229.55 255.269 229.09C254.382 228.589 259.542 224.022 263.134 220.524L263.139 220.516Z" fill="white"/>
</mask>
<g mask="url(#mask1_700_437)">
<path fill-rule="evenodd" clip-rule="evenodd" d="M275.443 215.426C280.209 215.426 284.07 218.986 284.07 223.374C284.07 227.761 280.209 231.322 275.443 231.322C270.677 231.322 266.816 227.761 266.816 223.374C266.816 218.986 270.677 215.426 275.443 215.426Z" fill="#414141"/>
<path fill-rule="evenodd" clip-rule="evenodd" d="M275.103 226.665C277.853 226.665 280.097 224.599 280.097 222.063C280.097 219.527 277.853 217.461 275.103 217.461C272.353 217.461 270.108 219.527 270.108 222.063C270.108 224.599 272.353 226.665 275.103 226.665Z" fill="#030303"/>
<path fill-rule="evenodd" clip-rule="evenodd" d="M277.817 222.121C278.807 222.121 279.613 221.379 279.613 220.466C279.613 219.554 278.807 218.812 277.817 218.812C276.827 218.812 276.021 219.554 276.021 220.466C276.021 221.379 276.827 222.121 277.817 222.121Z" fill="#FEFEFE"/>
<path fill-rule="evenodd" clip-rule="evenodd" d="M275.443 215.998C279.86 215.998 283.443 219.312 283.443 223.374C283.443 227.435 279.86 230.749 275.443 230.749C271.027 230.749 267.443 227.435 267.443 223.374C267.443 219.312 271.027 215.998 275.443 215.998ZM275.053 216.204C271.949 216.204 269.428 218.624 269.428 221.593C269.428 224.563 271.291 227.426 275.053 227.251C278.816 227.077 280.679 224.563 280.679 221.593C280.679 218.624 278.158 216.204 275.053 216.204Z" fill="url(#paint7_linear_700_437)"/>
<path fill-rule="evenodd" clip-rule="evenodd" d="M284.67 219.33C287.891 220.404 290.583 222.157 295.273 226.33C293.356 226.527 289.49 226.25 287.636 226.724C286.426 227.032 285.208 227.426 283.994 227.837C286.435 224.926 286.65 223.472 284.67 219.33ZM275.622 229.993C275.528 229.998 275.434 230.007 275.345 230.011C274.928 230.033 274.498 230.038 274.064 230.025L275.622 229.993Z" fill="url(#paint8_linear_700_437)"/>
<path fill-rule="evenodd" clip-rule="evenodd" d="M263.139 220.516L265.934 219.451C263.725 223.96 263.927 225.382 266.579 228.495C266.086 228.316 265.602 228.128 265.127 227.931C262.812 226.961 261.822 226.974 259.497 227.922C256.648 229.09 256.093 229.546 255.273 229.085C254.386 228.584 259.546 224.018 263.139 220.52V220.516Z" fill="url(#paint9_linear_700_437)"/>
</g>
<path fill-rule="evenodd" clip-rule="evenodd" d="M256.075 226.46C260.424 221.491 263.712 219.116 267.725 217.537C270.117 216.597 273.808 217.165 276.464 217.291C283.676 217.626 285.087 218.351 288.966 220.359C292.836 222.363 294.493 224.617 298.955 227.685L297.356 227.587C293.804 225.704 291.385 223.624 288.343 222.081C284.872 220.319 284.411 219.223 276.514 218.798C273.647 218.641 270.534 218.123 267.976 219.048C264.196 220.417 260.796 223.351 256.532 227.748C255.407 228.911 255.022 229.38 254.65 229.278C254.283 229.179 254.507 228.249 256.07 226.46H256.075Z" fill="#242424"/>
<path fill-rule="evenodd" clip-rule="evenodd" d="M267.819 218.507C270.211 217.568 273.804 217.993 276.464 218.114C283.676 218.445 283.828 218.981 287.703 220.99C291.573 222.993 293.476 224.568 297.933 227.636L297.351 227.587C293.799 225.704 291.38 223.624 288.339 222.081C284.867 220.319 284.406 219.223 276.509 218.798C273.642 218.641 270.529 218.123 267.972 219.048C263.869 220.533 260.218 223.857 255.425 228.897L254.65 228.996C258.323 225.015 263.044 220.386 267.815 218.512L267.819 218.507Z" fill="#030303"/>
<path fill-rule="evenodd" clip-rule="evenodd" d="M293.136 226.33C291.215 226.527 289.194 226.348 287.344 226.818C283.264 227.855 279.439 229.796 275.34 230.011C272.12 230.177 268.379 229.295 265.123 227.927C262.807 226.956 261.817 226.97 259.493 227.918C257.446 228.754 256.581 229.228 255.954 229.255C260.218 227.184 261.893 226.147 264.903 227.417C267.004 228.302 270.292 229.886 275.761 229.582C279.757 229.358 283.403 227.412 287.255 226.348C288.769 225.927 291.954 225.829 293.136 226.33Z" fill="#494949"/>
<path fill-rule="evenodd" clip-rule="evenodd" d="M179.238 231.232C182.561 232.525 184.304 233.813 187.507 233.84C184.729 234.721 183.139 234.815 179.435 234.113C177.043 233.661 164.107 231.505 160.882 227.949C159.762 226.715 161.048 224.313 162.647 223.763C163.256 223.553 162.553 226.03 164.429 226.849C168.761 228.741 177.357 230.499 179.238 231.232Z" fill="#B3B3B3"/>
<path fill-rule="evenodd" clip-rule="evenodd" d="M208.814 224.487C205.061 221.321 199.981 217.783 197.518 217.546C196.501 217.447 205.034 223.763 206.812 227.542C200.384 227.542 181.903 217.246 177.289 219.093C171.292 221.491 166.194 225.749 163.798 227.184C162.32 228.07 159.561 225.404 162.495 221.857C166.011 217.604 172.9 216.052 180.273 214.853C186.499 213.842 192.286 214.764 194.208 213.279C196.281 211.673 192.178 207.245 182.194 207.191C170.521 207.129 160.989 205.179 150.302 209.616C161.321 192.481 182.324 199.346 198.467 203.568C210.678 206.762 211.95 212.116 212.335 219.362C212.514 222.761 212.299 227.426 208.819 224.492L208.814 224.487Z" fill="#CCCCCC"/>
<path fill-rule="evenodd" clip-rule="evenodd" d="M210.109 222.792C208.044 220.945 205.531 218.673 202.225 216.633C199.73 215.09 197.482 214.097 195.3 213.874C191.842 213.525 185.576 214.826 183.327 214.987C180.291 215.206 169.106 215.994 167.189 217.702C166.082 218.691 161.899 222.636 161.057 224.34C160.474 225.52 161.926 224.384 163.825 222.891C166.047 221.142 168.828 218.87 168.886 218.843C173.478 216.436 180.501 216.848 185.518 216.146C189.038 215.654 193.101 214.473 196.25 215.233C199.52 216.02 202.982 217.689 205.818 220.068C206.095 220.301 208.519 222.126 209.755 223.19C210.445 223.785 211.269 223.83 210.113 222.792H210.109Z" fill="#B3B3B3"/>
<path fill-rule="evenodd" clip-rule="evenodd" d="M198.57 220.516L191.059 217.657C186.378 217.912 181.939 217.908 178.02 219.031C174.338 220.086 171.596 221.746 166.436 226.334C168.353 226.531 172.219 226.254 174.073 226.728C178.15 227.761 182.27 229.805 186.369 230.02C189.589 230.185 193.325 229.304 196.586 227.936C198.902 226.965 199.892 226.979 202.216 227.927C205.065 229.094 205.621 229.55 206.44 229.09C207.327 228.589 202.167 224.022 198.575 220.524L198.57 220.516Z" fill="#FEFEFE"/>
<mask id="mask2_700_437" style="mask-type:luminance" maskUnits="userSpaceOnUse" x="166" y="217" width="41" height="14">
<path d="M198.57 220.516L191.059 217.657C186.378 217.912 181.939 217.908 178.02 219.031C174.338 220.086 171.596 221.746 166.436 226.334C168.353 226.531 172.219 226.254 174.073 226.728C178.15 227.761 182.27 229.805 186.369 230.02C189.589 230.185 193.325 229.304 196.586 227.936C198.902 226.965 199.892 226.979 202.216 227.927C205.065 229.094 205.621 229.55 206.44 229.09C207.327 228.589 202.167 224.022 198.575 220.524L198.57 220.516Z" fill="white"/>
</mask>
<g mask="url(#mask2_700_437)">
<path fill-rule="evenodd" clip-rule="evenodd" d="M186.266 215.426C181.5 215.426 177.639 218.986 177.639 223.374C177.639 227.761 181.505 231.322 186.266 231.322C191.027 231.322 194.893 227.761 194.893 223.374C194.893 218.986 191.027 215.426 186.266 215.426Z" fill="#414141"/>
<path fill-rule="evenodd" clip-rule="evenodd" d="M186.602 226.665C189.352 226.665 191.596 224.599 191.596 222.063C191.596 219.527 189.352 217.461 186.602 217.461C183.852 217.461 181.607 219.527 181.607 222.063C181.607 224.599 183.852 226.665 186.602 226.665Z" fill="#030303"/>
<path fill-rule="evenodd" clip-rule="evenodd" d="M183.892 222.121C184.882 222.121 185.688 221.379 185.688 220.466C185.688 219.554 184.882 218.812 183.892 218.812C182.902 218.812 182.096 219.554 182.096 220.466C182.096 221.379 182.902 222.121 183.892 222.121Z" fill="#FEFEFE"/>
<path fill-rule="evenodd" clip-rule="evenodd" d="M186.266 215.998C181.849 215.998 178.266 219.312 178.266 223.374C178.266 227.435 181.849 230.749 186.266 230.749C190.682 230.749 194.266 227.435 194.266 223.374C194.266 219.312 190.682 215.998 186.266 215.998ZM186.651 216.204C189.755 216.204 192.277 218.624 192.277 221.593C192.277 224.563 190.414 227.426 186.651 227.251C182.889 227.077 181.025 224.563 181.025 221.593C181.025 218.624 183.543 216.204 186.651 216.204Z" fill="url(#paint10_linear_700_437)"/>
<path fill-rule="evenodd" clip-rule="evenodd" d="M177.039 219.33C173.818 220.404 171.126 222.157 166.436 226.33C168.353 226.527 172.219 226.25 174.073 226.724C175.283 227.032 176.501 227.426 177.715 227.837C175.274 224.926 175.059 223.472 177.039 219.33ZM186.087 229.993C186.181 229.998 186.27 230.007 186.364 230.011C186.781 230.033 187.211 230.038 187.645 230.025L186.087 229.993Z" fill="url(#paint11_linear_700_437)"/>
<path fill-rule="evenodd" clip-rule="evenodd" d="M198.57 220.516L195.775 219.451C197.984 223.96 197.778 225.382 195.13 228.495C195.623 228.316 196.107 228.128 196.582 227.931C198.897 226.961 199.887 226.974 202.212 227.922C205.061 229.09 205.616 229.546 206.436 229.085C207.323 228.584 202.163 224.018 198.57 220.52V220.516Z" fill="url(#paint12_linear_700_437)"/>
</g>
<path fill-rule="evenodd" clip-rule="evenodd" d="M205.634 226.46C201.285 221.491 197.997 219.116 193.984 217.537C191.587 216.597 187.901 217.165 185.24 217.291C178.029 217.626 176.618 218.351 172.739 220.359C168.869 222.363 167.207 224.617 162.75 227.685L164.349 227.587C167.901 225.704 170.32 223.624 173.361 222.081C176.833 220.319 177.294 219.223 185.191 218.798C188.058 218.641 191.171 218.123 193.728 219.048C197.509 220.417 200.909 223.351 205.173 227.748C206.297 228.911 206.687 229.38 207.054 229.278C207.421 229.179 207.197 228.249 205.634 226.46Z" fill="#242424"/>
<path fill-rule="evenodd" clip-rule="evenodd" d="M193.89 218.507C191.498 217.568 187.905 217.993 185.245 218.114C178.033 218.445 177.881 218.981 174.006 220.99C170.136 222.993 168.232 224.568 163.771 227.636L164.353 227.587C167.905 225.704 170.324 223.624 173.366 222.081C176.837 220.319 177.298 219.223 185.195 218.798C188.062 218.641 191.175 218.123 193.733 219.048C197.836 220.533 201.486 223.857 206.279 228.897L207.054 228.996C203.377 225.015 198.66 220.386 193.89 218.512V218.507Z" fill="#030303"/>
<path fill-rule="evenodd" clip-rule="evenodd" d="M168.568 226.33C170.485 226.527 172.51 226.348 174.36 226.818C178.436 227.855 182.266 229.796 186.364 230.011C189.585 230.177 193.321 229.295 196.582 227.927C198.897 226.956 199.887 226.97 202.212 227.918C204.259 228.754 205.123 229.228 205.751 229.255C201.486 227.184 199.811 226.147 196.801 227.417C194.705 228.302 191.413 229.886 185.943 229.582C181.948 229.358 178.302 227.412 174.45 226.348C172.936 225.927 169.751 225.829 168.568 226.33Z" fill="#494949"/>
<path fill-rule="evenodd" clip-rule="evenodd" d="M247.842 200.621C248.774 199.149 250.373 197.49 253.051 196.144L252.084 197.866C255.766 195.567 258.44 195.222 261.875 194.766C259.04 196.3 257.248 197.401 256.155 198.277C259.905 196.555 262.395 194.807 265.952 193.702C276.666 190.37 284.85 191.206 295.506 194.136C301.235 195.71 303.64 196.801 305.396 197.843C303.967 197.405 301.638 197.07 301.638 197.07C307.434 199.369 310.937 205.17 312.276 211.508C308.639 206.436 303.98 202.468 295.779 202.057C290.198 201.779 286.113 204.061 276.411 204.772L280.093 203.22C275.004 204.459 270.238 206.243 265.23 207.679C257.499 209.897 257.84 207.178 253.902 209.235C250.986 210.756 248.895 210.224 248.514 209.978C245.49 208.019 245.154 204.857 247.838 200.625L247.842 200.621Z" fill="#1D1D1D"/>
<path fill-rule="evenodd" clip-rule="evenodd" d="M250.14 200.142C251.672 198.774 254.238 197.374 257.62 196.144C255.573 197.964 252.335 199.659 251.197 202.808C254.785 199.208 256.097 198.707 259.752 197.504L255.295 200.992C263.421 196.01 269.45 193.465 276.688 192.807C285.06 192.051 292.245 193.478 300.128 196.533C295.913 195.714 294.959 195.571 292.034 195.759C302.117 198.085 306.26 198.586 310.838 208.26C305.803 200.773 296.191 198.944 284.276 203.027L287.913 200.46C285.221 199.664 283.215 200.111 281.199 200.397C276.76 201.028 273.208 203.381 267.833 205.152C265.387 205.957 262.879 206.512 260.514 206.52C259.475 206.52 258.516 206.064 257.405 206.239C254.606 206.681 252.478 208.69 249.647 208.211C246.108 207.607 248.424 201.681 250.14 200.147V200.142Z" fill="#292929"/>
<path fill-rule="evenodd" clip-rule="evenodd" d="M253.893 198.13C249.58 201.082 248.496 203.475 250.646 207.433C250.131 203.98 250.005 202.155 253.893 198.13Z" fill="#363636"/>
<path fill-rule="evenodd" clip-rule="evenodd" d="M255.712 199.704C253.871 201.024 250.834 202.978 251.058 206.359C251.121 207.317 252.348 207.089 253.526 206.404C256.487 204.678 256.07 205.469 259.443 205.657C261.808 205.787 264.232 205.246 266.883 204.105C270.346 202.616 273.123 200.348 277.32 198.201C281.683 195.965 286.149 194.373 292.281 194.498C282.906 194.283 279.295 195.205 269.114 201.332C273.293 198.349 277.347 195.24 280.988 193.773C273.23 195.522 270.65 198.957 263.927 202.737C263.506 202.974 269.889 197.195 272.603 195.518C270.207 196.01 259.985 204.195 259.251 204.047C262.099 202.321 264.312 199.785 266.691 197.41C265.938 197.919 260.294 201.14 257.047 203.636C257.602 202.477 262.883 199.029 265.239 197.289C261.365 199.158 260.473 200.044 255.228 202.933C258.946 200.04 260.832 198.438 264.948 196.148C259.958 198.358 256.814 200.156 252.832 203.756C253.692 202.097 254.44 201.077 255.717 199.709L255.712 199.704Z" fill="#363636"/>
<path fill-rule="evenodd" clip-rule="evenodd" d="M276.285 200.406C282.991 198.322 287.326 195.379 294.605 197.016L289.078 197.405C292.227 197.647 301.924 197.213 307.205 203.412C302.354 200.603 297.248 198.774 288.446 200.652L290.82 199.199C285.911 199.199 281.145 199.807 276.281 200.411L276.285 200.406Z" fill="#363636"/>
<path fill-rule="evenodd" clip-rule="evenodd" d="M213.961 200.621C213.029 199.149 211.43 197.49 208.752 196.144L209.719 197.866C206.037 195.567 203.363 195.222 199.928 194.766C202.763 196.3 204.555 197.401 205.648 198.277C201.898 196.555 199.408 194.807 195.851 193.702C185.137 190.37 176.954 191.206 166.297 194.136C160.568 195.71 158.163 196.801 156.407 197.843C157.836 197.405 160.165 197.07 160.165 197.07C154.369 199.369 150.866 205.17 149.527 211.508C153.169 206.436 157.823 202.468 166.024 202.057C171.605 201.779 175.69 204.061 185.392 204.772L181.71 203.22C186.799 204.459 191.565 206.243 196.577 207.679C204.308 209.897 203.968 207.178 207.905 209.235C210.817 210.756 212.913 210.224 213.294 209.978C216.317 208.019 216.653 204.857 213.97 200.625L213.961 200.621Z" fill="#1D1D1D"/>
<path fill-rule="evenodd" clip-rule="evenodd" d="M211.659 200.142C210.127 198.774 207.56 197.374 204.174 196.144C206.221 197.964 209.459 199.659 210.597 202.808C207.009 199.208 205.697 198.707 202.042 197.504L206.503 200.992C198.378 196.01 192.344 193.465 185.11 192.807C176.734 192.051 169.554 193.478 161.67 196.533C165.885 195.714 166.839 195.571 169.764 195.759C159.682 198.085 155.538 198.586 150.96 208.26C155.995 200.773 165.608 198.944 177.522 203.027L173.885 200.46C176.573 199.664 178.584 200.111 180.6 200.397C185.039 201.028 188.591 203.381 193.966 205.152C196.411 205.957 198.92 206.512 201.285 206.52C202.324 206.52 203.287 206.064 204.393 206.239C207.193 206.681 209.321 208.69 212.151 208.211C215.69 207.607 213.374 201.681 211.659 200.147V200.142Z" fill="#292929"/>
<path fill-rule="evenodd" clip-rule="evenodd" d="M207.905 198.13C212.219 201.082 213.303 203.475 211.152 207.433C211.668 203.98 211.789 202.155 207.905 198.13Z" fill="#363636"/>
<path fill-rule="evenodd" clip-rule="evenodd" d="M206.086 199.704C207.927 201.024 210.964 202.978 210.74 206.359C210.678 207.317 209.45 207.089 208.272 206.404C205.312 204.678 205.728 205.469 202.355 205.657C199.995 205.787 197.567 205.246 194.915 204.105C191.453 202.616 188.676 200.348 184.479 198.201C180.116 195.965 175.65 194.373 169.518 194.498C178.893 194.283 182.503 195.205 192.685 201.332C188.505 198.349 184.452 195.24 180.81 193.773C188.568 195.522 191.148 198.957 197.872 202.737C198.293 202.974 191.91 197.195 189.195 195.518C191.592 196.01 201.813 204.195 202.548 204.047C199.699 202.321 197.486 199.785 195.108 197.41C195.86 197.919 201.504 201.14 204.752 203.636C204.196 202.477 198.915 199.029 196.559 197.289C200.434 199.158 201.325 200.044 206.566 202.933C202.848 200.04 200.962 198.438 196.846 196.148C201.836 198.358 204.98 200.156 208.962 203.756C208.102 202.097 207.354 201.077 206.078 199.709L206.086 199.704Z" fill="#363636"/>
<path fill-rule="evenodd" clip-rule="evenodd" d="M185.513 200.406C178.812 198.322 174.472 195.379 167.193 197.016L172.721 197.405C169.572 197.647 159.879 197.213 154.593 203.412C159.444 200.603 164.55 198.774 173.352 200.652L170.978 199.199C175.887 199.199 180.653 199.807 185.518 200.411L185.513 200.406Z" fill="#363636"/>
<path fill-rule="evenodd" clip-rule="evenodd" d="M235.036 202.254C234.265 212.907 233.952 222.484 234.431 232.042C235.045 244.301 234.727 253.211 240.675 262.626C244.429 268.575 242.243 270.493 238.019 274.385C231.959 279.962 229.396 279.246 222.937 274.631C220.259 272.712 217.629 271.075 217.276 267.85C217.074 266.025 217.943 265.171 218.969 263.923C227.784 253.171 224.071 216.003 221.741 202.759L235.036 202.258V202.254Z" fill="white"/>
<path fill-rule="evenodd" clip-rule="evenodd" d="M109.751 249.753C129.693 226.522 126.437 261.467 150.378 272.792C140.439 255.684 138.271 246.663 142.159 214.531C143.65 202.2 143.512 176.249 143.606 162.362C161.173 186.952 193.581 193.259 223.35 193.912C200.94 187.511 162.096 166.262 157.773 142.069C162.938 155.782 169.446 161.056 178.15 167.912C195.072 181.254 218.378 193.487 249.683 194.408C222.982 190.763 186.584 161.963 171.695 137.565C192.703 161.404 216.707 190.276 268.993 190.401C241.965 182.323 220.559 166.892 206.302 152.088C239.842 178.146 254.324 178.826 276.312 186.125C297.656 193.21 314.207 204.597 317.378 220.43C319.232 229.698 307.546 242.212 310.368 259.012C315.402 247.522 317.226 242.588 330.43 245.992C330.43 245.992 335.447 236.228 335.447 234.725C335.447 233.222 345.476 190.906 345.476 190.906L336.701 157.603L326.668 131.062L286.292 86.7418L198.27 77.9753L154.387 85.239L112.255 129.559C108.6 150.858 97.0707 169.5 98.1547 194.225C98.9699 212.854 112.806 238.934 109.747 249.753H109.751Z" fill="#1D1D1D"/>
<path fill-rule="evenodd" clip-rule="evenodd" d="M205.58 55.4375C184.429 68.869 157.657 75.6183 135.512 90.3781C112.609 105.643 94.6564 129.478 92.9856 178.137C102.07 130.333 117.653 112.348 137.572 99.3459C156.255 87.1533 180.595 79.344 205.58 55.4375Z" fill="#363636"/>
<path fill-rule="evenodd" clip-rule="evenodd" d="M184.264 76.4725C167.825 111.239 173.352 139.081 204.398 164.177C219.538 176.415 237.531 185.36 259.833 189.466C238.122 181.429 219.466 169.428 207.139 156.793C187.668 136.836 175.296 117.286 184.259 76.4725H184.264Z" fill="#363636"/>
<path fill-rule="evenodd" clip-rule="evenodd" d="M182.508 84.4966C175.475 109.606 175.735 136.447 206.781 161.543C221.921 173.78 234.521 182.225 259.833 189.466C235.363 181.679 218.337 170.681 206.01 158.045C186.539 138.088 175.296 121.173 182.503 84.4966H182.508Z" fill="#4C4C4C"/>
<path fill-rule="evenodd" clip-rule="evenodd" d="M175.484 82.7298C151.27 114.49 147.52 139.828 178.571 164.924C193.71 177.162 216.281 189.305 238.583 193.411C216.873 185.374 193.639 170.175 181.312 157.54C161.841 137.583 156.739 122.04 175.484 82.7253V82.7298Z" fill="#363636"/>
<path fill-rule="evenodd" clip-rule="evenodd" d="M169.72 91.5098C154.66 119.375 148.654 139.332 179.699 164.428C194.839 176.665 212.895 185.736 238.207 192.977C213.737 185.19 191.256 173.566 178.929 160.93C176.967 158.922 175.144 156.981 173.469 155.076C158.481 138.066 155.117 124.044 169.72 91.5098Z" fill="#4C4C4C"/>
<path fill-rule="evenodd" clip-rule="evenodd" d="M162.445 90.244C131.207 113.489 123.7 146.591 154.745 171.687C169.885 183.924 193.961 190.562 218.019 193.666C194.427 186.505 171.565 174.684 159.243 162.049C139.771 142.091 144.201 121.038 162.445 90.2395V90.244Z" fill="#363636"/>
<path fill-rule="evenodd" clip-rule="evenodd" d="M157.429 96.0138C140.613 115.112 125.33 145.589 156.376 170.685C171.516 182.923 186.436 187.614 211.623 192.476C187.278 187.198 167.928 179.823 155.605 167.192C136.134 147.235 140.94 125.18 157.429 96.0183V96.0138Z" fill="#4C4C4C"/>
<path fill-rule="evenodd" clip-rule="evenodd" d="M326.197 222.707C323.174 161.351 283.6 161.785 241.253 138.312C212.828 122.555 190.217 99.337 201.818 60.9479C181.124 93.2765 189.047 128.794 214.315 149.977C259.891 188.187 310.717 168.758 326.197 222.707Z" fill="#363636"/>
<path fill-rule="evenodd" clip-rule="evenodd" d="M324.195 215.694C314.551 144.095 250.539 169.165 200.783 107.526C228.411 161.597 295.721 154.141 313.163 189.878C294.238 173.624 257.347 167.179 226.96 151.833C202.888 139.681 192.801 118.145 190.781 94.4976C189.908 115.568 200.156 135.127 216.572 149.225C262.413 188.581 309.521 165.26 324.195 215.698V215.694Z" fill="#4C4C4C"/>
<path fill-rule="evenodd" clip-rule="evenodd" d="M194.293 89.9935C194.046 158.962 255.667 152.58 307.891 184.645C257.75 148.59 197.93 150.786 194.293 89.9935Z" fill="#1D1D1D"/>
<path fill-rule="evenodd" clip-rule="evenodd" d="M199.811 65.7024C161.173 115.949 195.556 141.778 241.688 174.38C197.71 140.629 171.153 108.193 199.811 65.7024Z" fill="#2C2C2C"/>
<path fill-rule="evenodd" clip-rule="evenodd" d="M312.657 240.236C333.185 174.433 271.506 197.311 223.771 168.932C208.595 159.911 193.984 143.196 186.02 117.035C192.662 136.147 205.419 150.898 220.411 162.312C260.545 192.865 340.656 172.34 312.657 240.236Z" fill="#3D3D3D"/>
<path fill-rule="evenodd" clip-rule="evenodd" d="M167.758 119.442C162.848 155.344 217.056 184.645 243.497 192.601C205.657 176.41 168.918 148.053 167.758 119.442Z" fill="#4C4C4C"/>
<path fill-rule="evenodd" clip-rule="evenodd" d="M154.714 125.963C144.663 166.503 194.23 185.396 220.671 193.353C183.959 180.297 152.613 161.847 154.714 125.963Z" fill="#4C4C4C"/>
<path fill-rule="evenodd" clip-rule="evenodd" d="M205.079 57.6918C180.582 153.756 317.073 121.038 327.456 210.188C337.521 103.76 220.366 117.004 205.079 57.6918Z" fill="#363636"/>
<path fill-rule="evenodd" clip-rule="evenodd" d="M204.828 69.9603C196.066 141.546 313.785 129.407 325.199 194.663C325.163 114.401 240.734 120.712 208.59 71.2127C228.084 114.253 281.866 124.702 307.394 155.599C273.365 125.287 208.478 127.077 204.828 69.9603Z" fill="#4C4C4C"/>
<path fill-rule="evenodd" clip-rule="evenodd" d="M374.649 203.922C354.399 211.919 347.505 195.518 344.159 170.828C341.776 153.242 340.974 140.338 298.511 127.412C332.379 148.232 328.222 163.905 332.043 180.82C338.757 210.577 359.044 215.385 374.649 203.922Z" fill="#363636"/>
<path fill-rule="evenodd" clip-rule="evenodd" d="M376.128 204.436C338.627 236.425 333.387 194.243 325.364 169.768C319.12 150.728 312.312 139.296 291.98 125.118C319.492 137.382 327.622 157.715 332.016 173.445C337.44 192.852 339.868 225.878 376.123 204.432L376.128 204.436Z" fill="#0E0E0E"/>
<path fill-rule="evenodd" clip-rule="evenodd" d="M374.649 203.922C354.399 211.919 345.996 198.08 342.65 173.391C340.267 155.805 340.974 140.338 298.511 127.412C338.421 144.614 334.721 158.323 338.538 175.238C345.257 204.995 355.72 214.026 374.649 203.922Z" fill="#4C4C4C"/>
<path fill-rule="evenodd" clip-rule="evenodd" d="M322.112 157.352C341.503 182.091 329.252 236.555 359.277 251.48C319.47 242.23 336.531 186.443 322.112 157.352Z" fill="#363636"/>
<path fill-rule="evenodd" clip-rule="evenodd" d="M337.069 242.132C342.305 251.484 338.703 265.099 334.018 276.603C329.279 288.241 325.31 296.864 341.601 304.132C319.819 295.97 327.613 286.989 332.831 268.937C335.55 259.544 336.128 250.563 333.14 244.243L337.069 242.132Z" fill="#0E0E0E"/>
<path fill-rule="evenodd" clip-rule="evenodd" d="M310.251 257.066C308.46 245.003 315.232 237.288 318.077 227.569C320.943 217.765 321.203 207.996 311.765 197.405C321.418 205.859 323.362 216.32 320.683 227.819C318.471 237.315 310.717 246.502 310.256 257.066H310.251Z" fill="#0E0E0E"/>
<path fill-rule="evenodd" clip-rule="evenodd" d="M207.905 58.1032C236.899 48.5361 266.583 56.3544 290.086 67.7776C318.583 81.6296 342.211 130.538 353.839 132.019C330.538 132.135 313.252 91.9346 283.797 77.0137C267.215 68.614 248.147 52.6644 207.905 58.1032Z" fill="#363636"/>
<path fill-rule="evenodd" clip-rule="evenodd" d="M205.486 63.229C217.361 100.053 233.334 109.025 280.115 136.241C250.216 120.605 203.448 103.957 205.486 63.229Z" fill="#0E0E0E"/>
<path fill-rule="evenodd" clip-rule="evenodd" d="M196.725 105.621C208.599 142.445 236.662 144.779 283.439 171.996C253.54 156.359 204.353 145.746 196.725 105.621Z" fill="#0E0E0E"/>
<path fill-rule="evenodd" clip-rule="evenodd" d="M322.112 157.352C338.95 183.795 325.763 238.876 359.277 251.48C322.574 241.788 339.071 186.08 322.112 157.352Z" fill="#4C4C4C"/>
<path fill-rule="evenodd" clip-rule="evenodd" d="M338.578 207.446C343.752 219.612 356.84 215.139 359.519 222.157C361.745 227.985 358.838 229.528 356.047 230.333C350.197 232.028 351.783 233.862 350.363 240.477C345.404 230.789 352.356 227.193 352.325 226.147C352.173 220.69 340.267 222.501 338.578 207.442V207.446Z" fill="#363636"/>
<path fill-rule="evenodd" clip-rule="evenodd" d="M323.434 219.93C325.194 229.38 330.645 231.447 332.043 237.579C333.584 244.333 328.388 244.963 324.643 245.299C320.867 245.639 316.925 244.735 312.254 255.228C315.075 238.379 319.779 241.479 323.586 237.127C324.822 235.714 322.287 230.445 323.434 219.93Z" fill="#363636"/>
<path fill-rule="evenodd" clip-rule="evenodd" d="M338.578 207.446C344.961 221.576 355.492 216.387 358.461 223.289C359.707 226.178 355.814 227.493 353.705 229.582C349.378 233.866 350.345 234.318 350.358 240.482C345.852 230.794 357.261 225.686 357.23 224.644C357.077 219.187 341.772 221.455 338.574 207.446H338.578Z" fill="#4C4C4C"/>
<path fill-rule="evenodd" clip-rule="evenodd" d="M323.434 219.93C323.461 229.761 327.649 230.329 329.629 236.295C331.093 240.71 327.859 242.848 324.119 243.188C320.343 243.527 315.944 245.719 312.258 255.228C315.304 241.023 323.868 243.076 327.062 238.259C328.598 235.942 322.292 230.445 323.434 219.93Z" fill="#4C4C4C"/>
<path fill-rule="evenodd" clip-rule="evenodd" d="M328.572 192.852C326.471 234.117 335.022 250.849 359.617 251.229C337.024 248.47 329.387 226.084 328.572 192.852Z" fill="#0E0E0E"/>
<path fill-rule="evenodd" clip-rule="evenodd" d="M337.333 205.219C338.923 210.881 339.474 213.99 340.495 216.396C343.353 223.137 346.641 220.86 347.147 226.035C348.334 238.236 349.189 244.914 359.089 250.621C348.773 244.386 345.893 240.625 343.03 226.312C342.345 222.899 340.683 221.983 339.259 216.745C338.332 213.341 337.969 209.879 337.333 205.214V205.219Z" fill="#0E0E0E"/>
<path fill-rule="evenodd" clip-rule="evenodd" d="M339.299 245.348C342.009 255.877 339.962 263.158 337.275 271.249C332.128 286.743 322.296 295.733 346.099 304.629C331.846 295.934 334.677 292.392 338.623 281.908C342.945 270.422 346.094 256.471 339.299 245.343V245.348Z" fill="#363636"/>
<path fill-rule="evenodd" clip-rule="evenodd" d="M209.267 60.3709C278.977 53.2727 244.044 83.8927 294.471 111.959C229.692 87.8689 260.187 65.7828 209.267 60.3709Z" fill="#363636"/>
<path fill-rule="evenodd" clip-rule="evenodd" d="M209.267 60.3709C273.866 57.0969 244.622 93.0394 294.471 111.959C232.944 88.6786 268.111 63.0635 209.267 60.3709Z" fill="#4C4C4C"/>
<path fill-rule="evenodd" clip-rule="evenodd" d="M303.685 115.582C283.076 113.842 262.803 107.495 247.533 98.7912C239.381 94.1441 229.674 82.3362 223.359 76.5978C215.309 69.2804 216.147 67.1246 207.448 59.0156C214.767 63.9266 222.266 63.9579 229.697 69.9782C236.08 75.1486 243.206 88.7456 250.104 92.9678C266.901 103.255 285.042 111.811 303.68 115.586L303.685 115.582Z" fill="#363636"/>
<path fill-rule="evenodd" clip-rule="evenodd" d="M355.801 184.971C352.885 127.224 313.467 136.899 263.649 108.944C328.244 122.725 364.195 130.212 355.801 184.971Z" fill="#363636"/>
<path fill-rule="evenodd" clip-rule="evenodd" d="M355.801 184.971C358.909 123.244 311.671 128.955 263.649 108.944C326.287 126.634 362.224 131.133 355.801 184.971Z" fill="#4C4C4C"/>
<path fill-rule="evenodd" clip-rule="evenodd" d="M354.744 184.519C351.828 126.772 322.681 141.573 272.863 113.623C305.678 133.982 323.147 131.871 339.138 146.993C348.495 155.84 353.234 168.981 354.744 184.524V184.519Z" fill="#0E0E0E"/>
<path fill-rule="evenodd" clip-rule="evenodd" d="M316.827 317.537C316.791 319.246 317.714 320.006 316.715 322.667C314.766 327.86 311.94 330.396 310.475 333.764C309.248 336.586 308.822 338.009 308.482 344.503C309.042 341.43 309.75 337.217 311.85 333.505C316.616 325.096 322.287 327.194 330.309 325.118C322.283 325.007 319.953 324.599 316.827 317.537Z" fill="#363636"/>
<path fill-rule="evenodd" clip-rule="evenodd" d="M318.677 305.354C319.573 313.386 323.994 321.495 331.138 324.586C326.722 321.379 324.352 318.047 323.358 313.726C327.922 318.593 334.529 318.624 343.147 314.934C330.641 317.667 324.428 315.354 318.672 305.354H318.677Z" fill="#4C4C4C"/>
<path fill-rule="evenodd" clip-rule="evenodd" d="M256.357 64.7542C273.333 74.2631 289.374 80.8871 302.238 95.7365C308.867 103.389 315.187 111.919 326 119.755C335.187 126.41 344.773 133.405 354.623 132.788C348.965 135.521 334.793 129.72 321.463 123.136C315.084 119.983 309.691 116.306 300.746 110.8C276.917 96.1345 280.854 85.3062 256.353 64.7586L256.357 64.7542Z" fill="#363636"/>
<path fill-rule="evenodd" clip-rule="evenodd" d="M256.357 64.7541C272.272 75.6809 285.073 83.2531 296.348 94.5288C308.527 106.708 326.704 129.581 354.627 132.784C328.724 130.096 302.395 109.861 292.142 98.8762C272.59 77.9306 273.002 75.7793 256.357 64.7496V64.7541Z" fill="#4C4C4C"/>
<path fill-rule="evenodd" clip-rule="evenodd" d="M244.877 60.2323C262.848 64.8481 267.497 79.1696 278.574 93.2586C286.91 103.863 300.263 114.012 317.992 121.624C295.989 112.952 282.099 104.275 275.053 94.6496C266.234 82.6002 265.652 69.6607 244.877 60.2278V60.2323Z" fill="#0E0E0E"/>
<path fill-rule="evenodd" clip-rule="evenodd" d="M204.846 56.7614C213.661 77.5102 220.366 81.7951 242.462 97.4898C225.096 83.0385 217.249 74.4107 207.941 59.3243C218.454 63.8864 226.283 66.0244 231.65 69.9246C245.822 80.2341 242.83 92.9679 273.884 103.823C246.046 92.5385 247.73 77.8591 233.652 68.4441C227.444 64.2934 218.982 60.9255 210.584 59.0202C221.733 59.7179 227.426 58.1972 237.02 58.4163C225.679 56.4394 216.787 58.0988 208.617 57.6605C235.959 48.8716 267.64 52.7539 299.864 72.7468C271.107 53.3085 252.63 44.7612 211.789 54.4938C227.883 46.8857 227.036 36.1155 240.492 34.2817C227.815 33.7987 221.271 48.4288 211.412 51.9309C184.062 50.8799 168.649 55.6656 146.678 72.2951C160.752 62.2807 188.519 51.4524 203.932 54.5698C185.836 64.6915 150.598 73.1449 131.265 92.3551C148.743 79.3262 186.647 66.1899 203.78 56.3768C191.986 68.3457 184.416 73.7308 182.933 99.4443C187.574 74.7059 192.479 74.0976 204.837 56.7525L204.846 56.7614Z" fill="#0E0E0E"/>
<path fill-rule="evenodd" clip-rule="evenodd" d="M151.068 97.1185C124.784 118.945 115.955 187.1 145.93 267.881C101.631 191.908 106.974 125.386 151.068 97.1185Z" fill="#363636"/>
<path fill-rule="evenodd" clip-rule="evenodd" d="M130.217 109.49C119.709 127.381 113.801 143.33 110.741 160.702C104.829 194.283 110.32 216.521 82.1772 234.694C104.73 211.472 92.5781 194.748 102.365 156.842C106.889 139.323 113.568 126.482 130.217 109.49Z" fill="#363636"/>
<path fill-rule="evenodd" clip-rule="evenodd" d="M144.909 316.629C147.561 323.615 151.717 329.832 152.976 336.51C154.535 344.776 153.782 353.082 157.187 358.977C149.67 348.323 150.544 326.366 145.675 322.506C141.129 318.897 141.572 331.139 123.875 331.295C131.825 330.503 141.787 321.876 144.909 316.625V316.629Z" fill="#363636"/>
<path fill-rule="evenodd" clip-rule="evenodd" d="M141.926 307.165C141.03 315.198 134.419 324.819 127.274 327.905C131.691 324.698 134.06 321.366 135.055 317.045C130.49 321.911 122.069 321.867 112.318 315.01C124.824 317.738 136.175 317.166 141.926 307.165Z" fill="#4C4C4C"/>
<path fill-rule="evenodd" clip-rule="evenodd" d="M128.936 272.783C138.432 293.237 136.985 304.11 113.223 314.115C142.338 312.563 142.54 291.054 128.936 272.783Z" fill="#4C4C4C"/>
<path fill-rule="evenodd" clip-rule="evenodd" d="M113.375 171.115C107.279 208.533 115.064 221.307 110.204 241.448C107.315 253.403 93.3932 265.229 96.7571 286.667C97.8277 257.983 115.006 259.683 117.828 239.207C120.372 220.744 111.015 209.173 113.375 171.115Z" fill="#363636"/>
<path fill-rule="evenodd" clip-rule="evenodd" d="M111.409 285.003C116.856 270.587 113.151 266.365 115.073 254.817C116.936 243.612 121.76 237.91 122.589 223.758C127.579 237.632 133.317 249.642 141.021 262.223C135.879 256.154 131.736 250.755 127.122 244.27C121.832 270.681 134.665 278.097 117.756 296.766C127.539 278.464 119.91 274.013 119.118 257.849C117.268 273.043 115.906 278.772 111.413 285.003H111.409Z" fill="#363636"/>
<path fill-rule="evenodd" clip-rule="evenodd" d="M151.068 97.1185C120.636 119.639 110.432 188.021 145.93 267.881C108.108 193.205 112.582 126.504 151.068 97.1185Z" fill="#4C4C4C"/>
<path fill-rule="evenodd" clip-rule="evenodd" d="M130.217 109.49C119.709 127.381 112.591 143.63 109.532 161.002C103.619 194.583 104.883 217.725 82.1772 234.694C107.149 211.168 96.8109 198.067 106.598 160.161C111.122 142.642 114.177 128.293 130.217 109.49Z" fill="#4C4C4C"/>
<path fill-rule="evenodd" clip-rule="evenodd" d="M205.58 55.4376C172.04 81.8443 157.957 78.6329 135.812 93.3928C112.909 108.658 94.6564 129.474 92.9812 178.132C96.6273 127.309 116.139 109.325 136.058 96.3224C154.741 84.1299 180.595 79.3396 205.58 55.4331V55.4376Z" fill="#4C4C4C"/>
<path fill-rule="evenodd" clip-rule="evenodd" d="M113.375 171.115C108.632 214.603 121.214 222.457 115.942 240.768C112.538 252.589 93.3887 265.225 96.7571 286.667C95.7135 257.227 115.006 259.683 117.827 239.207C120.372 220.744 111.015 209.173 113.375 171.115Z" fill="#4C4C4C"/>
<path fill-rule="evenodd" clip-rule="evenodd" d="M152.416 212.737C135.677 198.836 130.056 155.433 149.146 103.989C120.936 152.37 124.336 194.739 152.416 212.737Z" fill="#363636"/>
<path fill-rule="evenodd" clip-rule="evenodd" d="M152.416 212.737C133.035 198.398 126.54 154.847 149.146 103.989C125.061 151.547 127.906 194.024 152.416 212.737Z" fill="#4C4C4C"/>
<path fill-rule="evenodd" clip-rule="evenodd" d="M201.222 54.212C169.146 60.2949 153.084 62.8935 122.213 98.2591C151.57 70.7341 167.14 69.9648 201.222 54.212Z" fill="#363636"/>
<path fill-rule="evenodd" clip-rule="evenodd" d="M198.673 46.2148C164.819 41.8271 143.341 49.4754 118.889 91.7736C129.698 76.0432 142.495 61.8737 156.676 59.0738C173.639 55.7282 181.769 51.3584 198.49 50.4996C213.531 49.7303 216.344 48.5048 198.673 46.2148Z" fill="#363636"/>
<path fill-rule="evenodd" clip-rule="evenodd" d="M221.312 50.2894C226.651 45.7139 232.725 38.6291 238.686 36.2586C249.929 31.7904 284.85 47.0736 299.116 51.1929C275.21 46.5145 245.052 41.9076 221.316 50.2894H221.312Z" fill="#363636"/>
<path fill-rule="evenodd" clip-rule="evenodd" d="M233.096 49.0819C290.7 48.4825 305.687 49.9048 334.162 83.6244C298.861 55.6656 283.049 53.8318 233.096 49.0819Z" fill="#363636"/>
<path fill-rule="evenodd" clip-rule="evenodd" d="M269.504 54.8158C282.695 56.6004 303.694 68.292 320.11 79.3351C340.056 92.7487 343.707 96.0182 345.516 105.317C346.9 112.411 346.166 120.578 348.965 127.98C341.136 118.663 338.565 113.466 332.482 103.188C329.431 98.0354 325.897 93.4062 317.131 85.2524C304.424 73.4401 287.134 60.9121 269.499 54.8158H269.504Z" fill="#363636"/>
<path fill-rule="evenodd" clip-rule="evenodd" d="M207.905 58.1032C236.899 48.5361 264.469 58.9217 287.972 70.3405C316.469 84.1924 328.464 124.804 353.839 132.019C330.538 132.135 315.971 88.4638 286.516 73.5429C269.934 65.1432 246.18 49.6454 207.905 58.1032Z" fill="#4C4C4C"/>
<path fill-rule="evenodd" clip-rule="evenodd" d="M312.258 74.8088C332.204 88.2224 342.197 94.6631 344.011 103.957C345.396 111.051 345.566 120.573 348.97 127.976C342.497 118.659 345.637 114.558 339.891 104.087C332.889 91.322 332.948 90.8389 312.258 74.8043V74.8088Z" fill="#4C4C4C"/>
<path fill-rule="evenodd" clip-rule="evenodd" d="M233.096 49.0818C290.7 50.0747 305.687 51.9354 334.162 83.6244C301.315 52.2306 284.63 51.6223 233.096 49.0818Z" fill="#4C4C4C"/>
<path fill-rule="evenodd" clip-rule="evenodd" d="M221.312 50.2895C226.651 45.7139 233.482 43.7594 239.439 41.3888C250.682 36.9206 284.85 47.0736 299.111 51.193C275.206 43.8533 245.047 37.7168 221.312 50.2895Z" fill="#4C4C4C"/>
<path fill-rule="evenodd" clip-rule="evenodd" d="M198.673 48.0263C163.238 46.112 142.101 51.4256 118.889 91.7737C128.945 74.0797 145.971 57.0433 160.147 54.2478C177.11 50.9023 177.988 50.6026 194.714 49.7483C209.755 48.979 216.465 48.9879 198.673 48.0263Z" fill="#4C4C4C"/>
<path fill-rule="evenodd" clip-rule="evenodd" d="M99.8568 129.259C91.7538 150.039 85.0215 166.597 87.736 193.344C89.0887 206.664 94.5534 206.91 90.0338 224.143C97.8008 206.431 95.0058 194.851 97.3126 176.29C99.6821 157.214 104.157 141.819 113.904 126.544C96.1121 154.432 97.6485 161.619 91.8479 193.975C87.6105 166.602 91.5254 154.879 99.8523 129.259H99.8568Z" fill="#0E0E0E"/>
<path fill-rule="evenodd" clip-rule="evenodd" d="M119.041 132.994C111.575 151.721 110.428 169.089 107.942 187.61C104.775 211.172 104.081 219.357 93.3619 229.537C98.8356 227.766 102.141 223.673 107.109 211.284C108.475 220.372 94.4773 228.334 106.956 248.541C105.577 241.877 104.488 238.397 105.133 233.303C106.495 222.551 110.392 223.163 109.868 208.265C109.581 200.071 109.729 192.463 110.222 185.19C111.458 167.085 114.844 151.023 119.037 132.99L119.041 132.994Z" fill="#0E0E0E"/>
<path fill-rule="evenodd" clip-rule="evenodd" d="M111.409 285.003C116.856 270.587 114.813 266.065 116.735 254.512C118.598 243.308 122.065 245.151 122.889 231C127.879 244.874 132.56 249.642 141.017 262.223C135.874 256.154 129.617 245.321 125.003 238.84C119.866 262.836 131.489 283.075 117.751 296.766C129.196 281.483 121.268 263.453 120.47 247.289C116.506 259.012 116.802 276.053 111.404 284.998L111.409 285.003Z" fill="#4C4C4C"/>
<path fill-rule="evenodd" clip-rule="evenodd" d="M182.037 77.1033C159.897 119.46 169.935 142.199 203.036 167.313C170.185 134.251 167.968 112.549 182.037 77.1033Z" fill="#0E0E0E"/>
<path fill-rule="evenodd" clip-rule="evenodd" d="M176.147 81.4775C137.993 114.03 139.722 152.455 176.3 176.361C139.52 148.277 148.331 110.733 176.147 81.4775Z" fill="#0E0E0E"/>
<path fill-rule="evenodd" clip-rule="evenodd" d="M194.575 67.6033C166.956 93.8177 145.957 90.4855 122.365 125.981L133.545 105.769C122.02 114.446 116.547 121.736 109.375 131.715C117.957 115.13 126.611 107.334 139.682 99.1894C159.207 87.0282 176.658 82.0143 194.575 67.6033Z" fill="#0E0E0E"/>
<path fill-rule="evenodd" clip-rule="evenodd" d="M263.089 317.618C261.584 320.547 259.336 321.451 257.598 323.159C255.914 324.814 253.714 327.838 251.627 329.452C244.738 334.775 239.869 332.91 230.852 332.986C225.392 333.035 219.045 334.574 213.647 332.163C210.888 330.933 207.708 326.983 205.898 325.539C203.78 323.852 201.491 322.873 199.578 320.842C198.853 320.073 198.342 319.241 197.795 318.315C197.795 318.315 235.694 317.649 236.138 317.649H248.111L263.089 317.618Z" fill="#ABABAB"/>
<path fill-rule="evenodd" clip-rule="evenodd" d="M263.291 316.379C261.625 319.626 258.798 320.574 256.872 322.466C255.009 324.3 253.661 326.313 251.349 328.097C243.721 333.992 240.254 331.174 230.27 331.259C224.223 331.313 218.951 333.183 212.976 330.517C209.921 329.153 207.569 325.7 205.563 324.103C202.785 321.889 199.735 320.775 197.433 317.524L198.4 317.13C198.4 317.13 235.376 313.78 235.869 313.78H249.128L263.291 316.383V316.379Z" fill="#B9B9B9"/>
<path fill-rule="evenodd" clip-rule="evenodd" d="M231.341 308.891C234.127 307.728 236.012 307.223 238.109 307.277C240.487 307.335 243.242 308.051 246.66 309.124C249.177 309.916 251.237 311.199 253.495 311.915C256.294 312.801 262.731 313.767 263.542 316.285C262.458 316.924 257.369 317.202 254.655 317.067C251.161 316.893 248.017 315.94 244.079 315.815C239.735 315.672 236.384 317.483 232.062 317.734C228.124 317.962 223.211 316.643 219.157 316.352L212.487 317.215C210.01 317.3 207.515 317.551 204.994 317.586C202.472 317.618 198.234 318.087 197.334 317.403C200.075 314.107 204.42 313.928 209.374 312.188C213.683 310.676 217.562 308.797 221.468 307.966C224.707 307.277 227.797 307.348 231.341 308.896V308.891Z" fill="#B3B3B3"/>
<path fill-rule="evenodd" clip-rule="evenodd" d="M232.823 319.353C229.728 319.635 226.691 319.277 224.339 318.888C222.982 318.664 219.703 317.564 214.938 318.315C212.246 318.74 206.472 319.809 206.49 321.406C206.499 322.095 207.73 323.861 208.362 324.658C210.942 327.905 216.048 329.586 219.726 329.586C222.516 329.586 226.615 328.33 229.441 328.191C232.268 328.052 233.844 327.914 236.357 328.191C238.87 328.468 241.611 329.64 244.263 329.305C246.915 328.969 249.611 327.842 251.838 326.236C254.064 324.631 256.353 321.138 256.245 319.961C256.138 318.807 249.862 317.922 248.792 317.868C246.485 317.761 245.419 316.768 242.409 317.076C239.399 317.389 235.909 319.071 232.814 319.353H232.823Z" fill="#CCCCCC"/>
<path fill-rule="evenodd" clip-rule="evenodd" d="M254.113 313.355C251.681 312.586 249.396 311.217 246.951 310.448C244.254 309.598 241.119 308.636 238.315 308.569C235.847 308.507 233.553 309.388 231.278 310.336C227.918 308.869 224.752 308.502 221.204 309.258C219.166 309.692 217.168 310.399 215.206 311.15C213.043 311.978 210.902 312.863 208.72 313.628C223.081 310.873 219.905 314.263 231.305 314.169C239.578 314.102 239.323 310.801 254.113 313.36V313.355Z" fill="#CCCCCC"/>
<path fill-rule="evenodd" clip-rule="evenodd" d="M263.107 316.092C263.269 316.298 263.394 316.517 263.47 316.75C262.386 317.389 257.302 317.993 254.583 317.859C251.09 317.685 247.945 316.405 244.008 316.28C239.663 316.137 236.335 318.646 232.008 318.897C229.114 319.062 225.688 318.02 222.467 317.34C219.712 316.759 217.791 317.094 215.036 317.439C211.941 317.823 208.277 318.105 204.761 318.141C202.114 318.168 198.777 318.789 197.388 317.729C197.563 317.519 197.621 317.461 197.809 317.273C199.292 317.618 202.75 317.264 204.927 317.237C208.371 317.193 211.726 316.893 215.103 316.499C217.715 316.195 219.851 316.039 222.472 316.334C225.697 316.696 229.123 317.135 232.012 316.969C236.339 316.719 239.663 315.328 244.012 315.471C247.95 315.6 251.094 316.553 254.588 316.723C257.074 316.844 261.54 316.625 263.112 316.097L263.107 316.092Z" fill="#666666"/>
<path fill-rule="evenodd" clip-rule="evenodd" d="M198.011 314.232C197.388 313.664 196.075 314.639 195.762 315.806C195.547 316.616 195.722 317.958 196.282 318.342C197.003 318.834 198.579 318.284 199.323 318.239C201.688 318.092 203.184 318.087 204.295 317.841C203.377 317.564 202.024 317.586 200.631 316.759C199.35 316.003 198.7 314.862 198.011 314.232Z" fill="#666666"/>
<path fill-rule="evenodd" clip-rule="evenodd" d="M263.699 313.592C264.321 313.024 265.634 313.999 265.947 315.167C266.162 315.976 265.987 317.322 265.428 317.703C264.706 318.195 263.13 317.644 262.386 317.6C260.021 317.452 258.525 317.448 257.414 317.202C258.332 316.924 259.685 316.942 261.078 316.119C262.359 315.359 263.009 314.223 263.699 313.592Z" fill="#666666"/>
</g>
</g>
<defs>
<linearGradient id="paint0_linear_700_437" x1="318.534" y1="257.084" x2="335.406" y2="259.157" gradientUnits="userSpaceOnUse">
<stop stop-color="#C1C1C1"/>
<stop offset="0.97" stop-color="#ABABAB"/>
<stop offset="1" stop-color="#B5B5B5"/>
</linearGradient>
<linearGradient id="paint1_linear_700_437" x1="289.302" y1="259.209" x2="314.292" y2="259.209" gradientUnits="userSpaceOnUse">
<stop stop-color="#C1C1C1"/>
<stop offset="1" stop-color="#ABABAB"/>
</linearGradient>
<linearGradient id="paint2_linear_700_437" x1="148.64" y1="256.275" x2="131.445" y2="258.697" gradientUnits="userSpaceOnUse">
<stop stop-color="#C1C1C1"/>
<stop offset="0.97" stop-color="#ABABAB"/>
<stop offset="1" stop-color="#B5B5B5"/>
</linearGradient>
<linearGradient id="paint3_linear_700_437" x1="116.26" y1="31.9827" x2="141.249" y2="31.9827" gradientUnits="userSpaceOnUse">
<stop stop-color="#C1C1C1"/>
<stop offset="1" stop-color="#ABABAB"/>
</linearGradient>
<linearGradient id="paint4_linear_700_437" x1="306.937" y1="324.233" x2="280.239" y2="302.999" gradientUnits="userSpaceOnUse">
<stop stop-color="white"/>
<stop offset="0.79" stop-color="#A3A3A3"/>
</linearGradient>
<linearGradient id="paint5_linear_700_437" x1="156.013" y1="319.375" x2="195.109" y2="296.089" gradientUnits="userSpaceOnUse">
<stop stop-color="white"/>
<stop offset="0.58" stop-color="#A3A3A3"/>
</linearGradient>
<linearGradient id="paint6_linear_700_437" x1="230.852" y1="313.266" x2="230.852" y2="244.359" gradientUnits="userSpaceOnUse">
<stop stop-color="#C1C1C1"/>
<stop offset="0.97" stop-color="#ABABAB"/>
<stop offset="1" stop-color="#B5B5B5"/>
</linearGradient>
<linearGradient id="paint7_linear_700_437" x1="275.443" y1="219.049" x2="275.443" y2="227.538" gradientUnits="userSpaceOnUse">
<stop stop-color="#5A5A5A"/>
<stop offset="1" stop-color="#777777"/>
</linearGradient>
<linearGradient id="paint8_linear_700_437" x1="286.655" y1="224.805" x2="249.19" y2="224.15" gradientUnits="userSpaceOnUse">
<stop stop-color="#C5C5C5"/>
<stop offset="1" stop-color="white"/>
</linearGradient>
<linearGradient id="paint9_linear_700_437" x1="248.554" y1="230.754" x2="271.461" y2="221.947" gradientUnits="userSpaceOnUse">
<stop stop-color="#C5C5C5"/>
<stop offset="1" stop-color="white"/>
</linearGradient>
<linearGradient id="paint10_linear_700_437" x1="186.266" y1="219.21" x2="186.266" y2="227.699" gradientUnits="userSpaceOnUse">
<stop stop-color="#5A5A5A"/>
<stop offset="1" stop-color="#777777"/>
</linearGradient>
<linearGradient id="paint11_linear_700_437" x1="141.388" y1="224.684" x2="178.978" y2="224.684" gradientUnits="userSpaceOnUse">
<stop stop-color="#C5C5C5"/>
<stop offset="1" stop-color="white"/>
</linearGradient>
<linearGradient id="paint12_linear_700_437" x1="210.705" y1="230.096" x2="187.812" y2="220.832" gradientUnits="userSpaceOnUse">
<stop stop-color="#C5C5C5"/>
<stop offset="1" stop-color="white"/>
</linearGradient>
<clipPath id="clip0_700_437">
<rect width="500" height="461" fill="white" transform="translate(-19)"/>
</clipPath>
</defs>
</svg>
