<svg width="263" height="487" viewBox="0 0 263 487" fill="none" xmlns="http://www.w3.org/2000/svg">
<g clip-path="url(#clip0_706_123)">
<path d="M263 432.344C263 461.475 239.466 485.068 210.407 485.068C207.249 485.068 204.187 484.804 201.161 484.231C199.19 483.922 197.263 483.437 195.329 482.872C190.815 481.513 186.522 479.574 182.572 477.113C180.997 476.1 179.458 475.049 178.015 473.903C173.985 470.738 170.432 467.006 167.494 462.79C161.361 454.182 157.807 443.678 157.807 432.344C157.807 403.257 181.341 379.621 210.4 379.621C215.133 379.621 219.691 380.238 224.072 381.42C225.867 381.905 227.618 382.478 229.333 383.176C234.374 385.107 239.048 387.855 243.225 391.175C243.833 391.659 244.419 392.13 244.976 392.622C246.353 393.826 247.694 395.126 248.918 396.485C257.637 405.887 262.985 418.499 262.985 432.337L263 432.344Z" fill="#ABABAB"/>
<path d="M252.918 421.621C252.918 450.752 229.384 474.344 200.325 474.344C197.168 474.344 194.105 474.08 191.079 473.507C189.108 473.198 187.181 472.714 185.247 472.148C180.733 470.789 176.44 468.85 172.49 466.389C170.915 465.376 169.377 464.325 167.933 463.18C167.801 463.047 167.625 462.959 167.494 462.783C161.361 454.174 157.807 443.671 157.807 432.337C157.807 403.25 181.341 379.614 210.4 379.614C215.133 379.614 219.691 380.231 224.072 381.413C225.867 381.898 227.618 382.471 229.333 383.169C234.374 385.1 239.063 387.825 243.225 391.167C249.313 399.776 252.911 410.28 252.911 421.613L252.918 421.621Z" fill="#C2C2C2"/>
<path d="M158.13 163.438C158.034 164.495 157.851 165.582 157.28 166.456C156.496 167.632 155.14 168.256 153.836 168.785C147.953 171.201 141.388 168.579 136.676 164.752C132.866 161.667 129.906 157.65 127.371 153.411C127.137 153.022 126.91 152.64 126.683 152.273C125.349 150.018 124.067 147.388 124.8 144.884C124.895 144.56 125.005 144.237 125.166 143.936C125.305 143.635 125.444 143.334 125.605 143.04C125.789 142.673 125.972 142.306 126.111 141.938C127.906 137.377 125.4 129.642 124.272 125.015C122.821 119.146 121.151 113.292 119.539 107.445C117.883 101.437 116.44 95.1935 114.483 89.2072C113.751 86.9743 112.945 84.7634 112.029 82.6186C108.512 74.3993 81.2263 32.26 81.2263 32.26C80.5376 23.6001 89.8135 20.6767 89.8135 20.6767C89.8135 20.6767 90.8685 21.7564 92.6636 23.6441C100.357 31.7532 121.583 54.7804 130.749 71.0352C131.826 72.945 133.343 76.3311 135.094 80.6868C139.387 91.2565 145.11 107.489 149.726 122.275C150.231 123.913 150.737 125.5 151.198 127.086C152.964 132.933 155.111 139.404 156.576 145.919C157.917 151.884 158.687 157.826 158.137 163.445L158.13 163.438Z" fill="white"/>
<path d="M92.6563 23.5265C92.6563 23.5265 89.9673 20.2946 87.0512 15.9316C84.1497 11.5612 77.8339 1.92432 74.4049 0.183517C74.4049 0.183517 73.6869 0.0145778 72.5732 0.00723267C72.412 0.00723267 72.2435 0.00723267 72.0676 0.0292682C71.0712 0.0880296 69.8403 0.293695 68.5434 0.895999C68.4481 0.94007 68.3382 0.984141 68.2357 1.03556C67.3271 1.47627 66.3746 2.12264 65.51 3.04079C65.4368 3.12159 65.3708 3.20239 65.2976 3.27584C64.6381 3.98097 64.0007 4.83301 63.4072 5.87603C63.4072 5.87603 70.0601 15.5349 71.0052 19.3838C71.0052 19.3838 65.5247 14.6609 63.4072 15.4615L62.4474 16.6808C62.4474 16.6808 67.7667 22.4394 69.8989 25.2159C75.0937 31.9808 84.0252 32.7006 84.0252 32.7006C84.0252 32.7006 93.1399 29.6524 92.649 23.5265H92.6563Z" fill="white"/>
<path d="M65.5174 3.03357C65.4441 3.11437 65.3782 3.19516 65.3049 3.26861C68.624 7.34519 71.1884 11.8625 73.9726 16.3944C74.0239 16.4826 74.1778 16.4238 74.1485 16.321C72.3827 11.2381 69.1662 6.91917 65.5174 3.03357Z" fill="#DEDEDE"/>
<path d="M68.5507 0.888763C68.4555 0.932834 68.3529 0.976906 68.243 1.02832C71.5694 5.11224 74.1265 9.62218 76.9254 14.1468C76.9767 14.235 77.1305 14.1762 77.0866 14.0807C75.3428 9.03456 72.1629 4.74498 68.5507 0.888763Z" fill="#DEDEDE"/>
<path d="M72.5732 0C72.412 0 72.2435 0 72.0676 0.0220355C75.1523 3.91498 77.5848 8.18987 80.2225 12.4648C80.2665 12.5603 80.4203 12.5015 80.3837 12.3987C78.889 7.65367 75.885 3.65055 72.5732 0Z" fill="#DEDEDE"/>
<path d="M84.3256 133.726C83.5269 132.984 82.721 132.235 81.7612 131.574C77.5995 128.717 74.7346 122.797 75.3501 117.751C75.7751 114.291 77.7533 111.221 79.9368 108.503C82.9408 104.772 86.8827 101.246 91.6525 100.945C92.0701 100.915 92.4951 100.915 92.8834 100.769C93.3963 100.57 93.7773 100.137 94.1876 99.7622C100.32 94.1505 108.556 100.893 111.618 106.483C113.575 110.053 114.197 114.445 112.791 118.265C111.53 121.702 108.863 124.28 106.555 127.02C104.299 129.701 103.207 131.2 102.24 134.468C101.632 136.525 99.4557 137.421 97.5287 137.796C94.488 138.383 91.2788 137.979 88.4506 136.723C86.7508 135.974 85.5419 134.85 84.3109 133.704L84.3256 133.726Z" fill="#212121"/>
<path d="M192.999 248.384C193.021 249.927 192.793 251.447 192.127 252.828C190.771 255.612 187.833 257.228 184.983 258.447C176.205 262.179 166.329 263.787 157.053 261.576C145.916 258.925 140.171 249.971 135.988 240.393C134.889 237.859 133.878 235.281 132.91 232.747C127.445 218.519 118.667 208.823 107.002 199.245C106.614 198.922 106.196 198.577 105.808 198.232C97.3529 191.07 90.7367 183.034 82.6551 175.3C82.1055 174.793 82.0103 173.963 82.4279 173.346C83.0727 172.377 84.223 170.834 85.9155 168.924C88.3481 166.207 91.843 162.798 96.437 159.53C98.6424 157.987 101.097 156.445 103.786 155.064C103.83 155.02 103.903 154.998 103.991 154.969C104.401 154.719 104.848 154.491 105.303 154.278C105.442 154.212 105.603 154.139 105.742 154.072C106.387 153.771 99.0381 141.843 98.2101 140.858C97.2649 139.779 96.2025 138.603 96.1659 137.171C96.1659 137.01 96.1659 136.826 96.2612 136.686C96.2831 136.62 96.3271 136.569 96.4004 136.525C96.4956 136.459 96.6275 136.407 96.7447 136.407C96.9279 136.385 97.0891 136.407 97.2503 136.451C97.4774 136.517 97.6899 136.591 97.8951 136.635C98.1002 136.679 98.3054 136.701 98.5398 136.752C98.9501 136.797 99.3898 136.848 99.8513 136.892C100.24 136.936 100.657 136.988 101.09 137.01C101.896 137.054 102.789 137.076 103.727 137.054C103.845 137.054 103.954 137.032 104.072 137.032C104.299 137.032 104.577 137.01 104.826 136.988C104.892 137.01 105.01 136.988 105.105 136.965C105.427 136.965 105.728 136.943 106.072 136.87C106.599 136.826 107.149 136.752 107.677 136.664C108.226 136.569 108.805 136.481 109.354 136.341C110.021 136.18 110.688 135.996 111.377 135.79C112.432 135.467 113.67 134.637 114.798 134.475C115.047 134.409 115.304 134.409 115.553 134.453C116.996 134.711 118.286 136.547 119.092 137.634C119.685 138.442 121.414 140.697 121.664 141.02C122.308 141.872 122.96 142.731 123.847 143.348C124.338 143.686 124.763 143.885 125.181 143.951C125.364 143.98 125.569 143.973 125.781 143.951C126.382 143.929 126.976 143.672 127.708 143.422C130.324 142.247 136.186 139.786 141.813 138.126C145.835 136.907 151.184 134.145 152.312 136.488C153.807 139.617 155.228 142.776 156.584 145.927C162.306 159.199 167.193 172.641 173.538 185.671C182.499 204.137 188.925 223.852 192.508 244.066C192.735 245.49 192.991 246.945 193.013 248.392L192.999 248.384Z" fill="white"/>
<path d="M120.894 140.014C116 143.561 104.724 147.293 96.3857 136.517C96.3198 136.451 96.2465 136.378 96.2025 136.29C96.2685 136.29 96.4517 136.334 96.7301 136.407C97.0085 136.473 97.3968 136.569 97.8804 136.635C98.0856 136.679 98.2907 136.708 98.5252 136.752C99.2359 136.877 100.108 136.958 101.075 137.01C101.881 137.054 102.775 137.076 103.713 137.054C104.951 137.032 106.262 136.914 107.662 136.664C108.856 136.481 110.094 136.202 111.362 135.79C112.49 135.445 113.633 135.004 114.784 134.475C115.033 134.409 115.289 134.409 115.538 134.453C116.982 134.711 118.271 136.547 119.077 137.634C119.671 138.442 120.293 139.22 120.894 140.028V140.014Z" fill="#DEDEDE"/>
<path d="M106.27 104.617C109.113 105.3 111.802 109.193 114.762 113.505C123.722 126.565 122.404 133.293 116.073 138.398C109.743 143.503 100.958 145.449 91.5866 134.02C86.8973 128.306 82.4646 123.091 82.9994 118.977C83.7981 112.844 97.558 102.517 106.27 104.61V104.617Z" fill="white"/>
<path d="M91.3888 131.633C91.3888 131.633 85.7763 127.446 84.3622 132.485C82.9555 137.524 92.8248 142.952 97.4481 139.11C97.4481 139.11 94.1876 132.5 91.3814 131.64L91.3888 131.633Z" fill="white"/>
<path d="M87.5055 134.013C88.3114 133.675 89.4911 133.881 90.3337 134.035C91.2129 134.196 92.2607 134.424 92.9933 134.96C93.2205 135.129 92.9933 135.467 92.7589 135.423C92.0775 135.298 91.4327 135.041 90.766 134.872C90.678 135.357 90.5901 135.856 90.2897 136.253C90.0626 136.562 89.5937 136.327 89.5643 135.996C89.5277 135.563 89.6962 135.129 89.8721 134.725C89.0954 134.659 88.2602 134.747 87.5275 134.556C87.249 134.483 87.2564 134.13 87.5055 134.02V134.013Z" fill="#DEDEDE"/>
<path d="M108.717 116.95C108.717 116.95 110.146 116.641 108.658 114.71C107.325 112.976 106.665 113.747 106.665 113.747C106.665 113.747 105.859 114.254 107.01 115.782C108.16 117.31 108.71 116.943 108.71 116.943L108.717 116.95Z" fill="#212121"/>
<path d="M97.0598 124.442C97.0598 124.442 98.4812 124.134 97.0012 122.202C95.6677 120.468 95.0083 121.24 95.0083 121.24C95.0083 121.24 94.2023 121.746 95.3526 123.274C96.5029 124.802 97.0525 124.435 97.0525 124.435L97.0598 124.442Z" fill="#212121"/>
<path d="M106.966 125.742C107.493 125.279 109.054 124.773 108.922 123.965C108.812 123.289 105.896 120.791 105.42 120.351C103.72 118.742 102.379 117.765 100.555 115.701C100.474 115.613 100.613 115.444 100.723 115.518C104.028 117.706 106.944 121.159 109.838 123.876C109.999 124.023 109.984 124.295 109.794 124.42C108.929 124.956 108.219 125.669 107.369 126.22C107.083 126.403 106.702 125.984 106.973 125.749L106.966 125.742Z" fill="#DEDEDE"/>
<path d="M103.485 111.559C104.042 110.611 105.508 109.509 106.658 109.979C106.871 110.068 106.871 110.398 106.687 110.501C106.262 110.743 105.779 110.773 105.347 111.008C104.878 111.257 104.519 111.632 104.189 112.036C103.881 112.403 103.251 111.977 103.493 111.559H103.485Z" fill="#212121"/>
<path d="M92.0115 120.358C91.7331 118.882 93.7041 117.457 95.0376 117.626C95.3453 117.662 95.4186 118.059 95.2427 118.265C94.8397 118.749 94.173 118.904 93.6747 119.293C93.2351 119.631 93.0007 120.072 92.6636 120.505C92.4951 120.725 92.0555 120.645 92.0042 120.358H92.0115Z" fill="#212121"/>
<path d="M112.505 128.026C112.505 128.026 108.754 131.317 104.416 131.449C104.416 131.449 107.244 133.484 110.248 132.536C113.26 131.589 112.505 128.026 112.505 128.026Z" fill="#C2C2C2"/>
<path d="M18.8449 486.207C25.7615 487.911 34.9714 486.346 42.0712 486.324C47.4199 486.302 52.7758 486.28 58.1465 486.258C63.29 486.236 69.1735 488.792 70.2725 481.814C70.8221 478.083 70.0454 474.285 69.767 470.554C69.745 470.459 69.745 470.393 69.745 470.297C69.4006 464.634 72.2435 458.831 75.8044 453.44C78.7205 449.04 82.1422 444.919 84.648 441.372C94.1363 428.018 102.452 414.569 108.695 399.35C115.15 383.646 120.367 367.34 128.91 352.561C137.109 338.356 148.619 322.6 157.228 305.978C157.617 305.192 158.034 304.414 158.423 303.606C166.9 286.587 172.095 268.716 167.457 250.735C166.563 247.239 165.024 244.08 162.636 241.752C161.808 240.944 160.98 240.048 160.181 239.056C158.848 237.492 157.558 235.743 156.269 233.966C150.158 225.563 144.326 216.646 138.105 222.956C136.449 224.616 134.632 227.884 132.815 231.887C128.104 242.295 123.305 257.794 121.305 263.501C105.684 308.402 92.5904 354.067 76.2147 398.461C75.5259 400.327 74.5588 403.023 73.4378 406.291C69.6937 416.978 63.8835 433.74 58.74 446.704C55.5234 454.784 52.5634 461.417 50.5192 464.156C50.27 464.502 49.9916 464.847 49.6912 465.17C46.3355 469.203 41.6316 472.053 36.7592 474.219C31.5204 476.57 26.0326 478.296 20.8378 480.735C19.6215 481.307 15.2986 485.34 18.8375 486.192L18.8449 486.207Z" fill="white"/>
<path d="M158.437 303.598C162.299 319.324 167.581 334.734 170.93 348.433C175.135 365.658 175.641 383.433 177.524 400.981C179.341 417.955 183.701 433.77 189.24 449.841C189.863 451.633 190.456 453.388 190.962 455.115C192.618 460.344 193.812 465.317 194.545 470.657C194.867 472.846 195.094 475.123 195.255 477.495C195.372 479.038 195.482 480.646 196.332 481.939C197.754 484.128 200.721 484.635 203.337 484.863C216.042 484.863 228.607 485.347 241.378 484.885C242.133 484.841 242.983 484.789 243.562 484.26C244.434 483.474 244.184 481.932 243.357 481.109C242.507 480.257 241.312 479.934 240.184 479.633C234.396 478.134 229.274 475.674 223.574 474.131C221.002 473.441 218.386 472.728 216.269 471.112C214.291 469.57 212.986 467.477 212.136 465.126C210.781 461.395 210.525 457.017 210.415 453.131C210.393 452.096 208.37 386.562 207.638 368.39C206.788 347.346 206.583 326.434 204.766 305.435C203.527 291.339 202.905 276.304 200.216 262.003C199.087 256.016 197.622 250.14 195.6 244.528C193.621 239.071 190.859 233.43 186.133 230.249C185.496 229.823 184.851 229.419 184.14 229.074C175.897 224.953 168.307 226.746 163.259 233.724C162.797 234.326 162.394 234.987 161.976 235.677C161.332 236.779 160.738 237.91 160.181 239.041C150.444 258.565 153.008 281.386 158.43 303.584L158.437 303.598Z" fill="white"/>
<path d="M210.415 453.139C209.887 453.506 209.286 453.829 208.664 454.086C207.447 454.593 206.114 454.872 204.714 455.034C203.608 455.173 202.509 455.195 201.41 455.151C196.171 455.034 190.962 455.129 190.962 455.129C190.456 453.403 189.863 451.655 189.24 449.855C183.701 433.784 179.341 417.963 177.524 400.995C176.674 393.004 176.066 384.946 175.289 376.933C174.359 367.31 173.201 357.798 170.93 348.448C167.574 334.749 162.291 319.339 158.437 303.613L157.243 305.985C148.627 322.608 137.123 338.363 128.925 352.569C120.381 367.354 115.165 383.653 108.71 399.357C102.46 414.577 94.1437 428.026 84.6626 441.379C82.1568 444.927 78.7351 449.048 75.819 453.447C69.1588 453.815 58.7546 446.726 58.7546 446.726C63.8981 433.762 69.7084 417 73.4524 406.313C74.5808 403.045 75.5406 400.349 76.2293 398.483C92.605 354.089 105.698 308.424 121.319 263.523C123.319 257.808 128.119 242.317 132.83 231.909C141.285 233.452 149.206 234.003 156.283 233.981C158.716 233.981 161.06 233.885 163.266 233.753C166.622 233.569 169.714 233.268 172.52 232.901C172.886 232.857 173.252 232.805 173.597 232.739C175.502 232.482 177.275 232.188 178.88 231.887C179.502 231.77 180.096 231.66 180.645 231.542C182.851 231.079 184.719 230.646 186.141 230.271C190.8 233.54 193.629 239.093 195.607 244.55C197.629 250.169 199.102 256.038 200.223 262.025C202.912 276.326 203.527 291.361 204.773 305.457C206.59 326.456 206.795 347.368 207.645 368.412C208.378 386.584 210.4 452.118 210.422 453.153L210.415 453.139Z" fill="#121212"/>
<path d="M70.2799 481.807C69.1808 488.785 63.2973 486.229 58.1538 486.251C52.7758 486.273 47.4272 486.295 42.0785 486.317C34.9787 486.339 25.7688 487.903 18.8522 486.199C15.3133 485.347 19.6362 481.315 20.8524 480.742C26.0399 478.303 31.5351 476.577 36.7738 474.227C41.6462 472.06 46.3501 469.21 49.7059 465.177C49.933 465.111 50.2114 465.067 50.4605 465.016C54.0654 464.443 57.8827 467.227 58.4102 470.863C61.3703 473.375 66.0376 470.282 69.7816 470.539C70.0601 474.271 70.8367 478.068 70.2872 481.8L70.2799 481.807Z" fill="#212121"/>
<path d="M243.562 484.275C242.99 484.804 242.14 484.848 241.378 484.899C228.607 485.362 216.042 484.877 203.337 484.877C200.721 484.65 197.754 484.143 196.332 481.954C195.482 480.668 195.365 479.052 195.255 477.51C195.094 475.138 194.867 472.861 194.545 470.672C198.384 469.842 203.498 473.573 206.693 470.877C207.103 468.094 209.455 465.809 212.136 465.141C212.986 467.491 214.298 469.585 216.269 471.127C218.379 472.736 221.002 473.455 223.574 474.146C229.274 475.688 234.396 478.156 240.184 479.647C241.312 479.949 242.507 480.272 243.357 481.124C244.184 481.954 244.434 483.496 243.562 484.275Z" fill="#212121"/>
<path d="M155.741 271.316C154.847 268.576 151.792 267.1 148.942 266.99C147.198 266.924 145.505 267.247 143.82 267.702C142.721 267.996 141.615 268.327 140.538 268.65C137.922 269.362 135.533 269.436 133.211 269.061C123.613 267.497 115.201 261.878 107.596 256.141C103.669 253.196 99.9686 249.81 95.9241 247.026C91.6745 244.124 90.4802 243.272 92.3632 237.675C92.4292 237.492 92.4805 237.308 92.5464 237.124C96.9572 224.16 106.167 197.152 106.35 196.594C107.501 193.23 108.673 189.799 108.783 186.23C109.193 175.153 95.5724 161.109 85.9082 168.91C84.9191 169.696 83.9812 170.709 83.08 171.973C81.2629 174.573 80.3471 177.68 79.4532 180.743C76.0755 192.576 73.0641 204.526 70.4044 216.551C69.4153 220.994 68.4994 225.46 67.8327 229.956C67.5103 232.005 67.2612 234.054 67.078 236.125C66.6164 241.421 65.7005 249.207 68.1111 254.062C72.0823 262.076 83.4317 267.093 91.2862 269.994C99.9466 273.197 108.834 275.819 117.722 278.375C123.554 280.057 129.525 281.717 135.57 282.98C137.776 283.443 140.098 283.854 142.326 284.178C143.725 284.361 145.124 284.545 146.509 284.662C152.481 285.235 157.624 277.09 155.741 271.309V271.316ZM135.416 271.661C135.482 271.595 135.555 271.595 135.621 271.639C135.555 271.661 135.482 271.661 135.416 271.661Z" fill="white"/>
<path d="M190.815 233.048C190.676 233.437 190.493 233.782 190.288 234.105C188.91 236.199 186.177 237.212 183.649 237.793C176.139 239.497 168.351 239.401 160.657 239.291C152.224 239.152 143.703 239.012 135.577 236.853C134.156 236.463 132.705 236.001 131.606 235.053C130.639 234.223 130.009 233.143 129.503 231.968C129.159 231.16 128.851 230.286 128.573 229.456C124.206 216.859 117.158 207.582 107.002 199.245C106.614 198.922 106.196 198.577 105.808 198.232C101.397 211.174 96.9645 224.16 92.5537 237.124C85.344 236.272 78.2442 234.407 71.5108 231.667C70.2725 231.16 69.0563 230.609 67.8327 229.963C68.4994 225.475 69.4153 221.002 70.4044 216.558C73.0714 204.541 76.0755 192.583 79.4532 180.75C80.3471 177.687 81.2703 174.58 83.08 171.98C83.9739 170.717 84.9191 169.703 85.9082 168.917C88.3407 166.199 91.8357 162.791 96.4297 159.523C98.6351 157.98 101.09 156.438 103.779 155.057C103.823 155.013 103.896 154.991 103.984 154.961C104.394 154.711 104.834 154.476 105.295 154.271C109.64 156.07 112.622 159.038 117.604 159.794C120.96 160.323 125.071 159.772 126.675 156.775C127.225 155.74 127.386 154.623 127.364 153.404C127.342 152.346 127.159 151.252 126.976 150.216C126.587 148.123 125.642 143.334 125.598 143.033C125.781 142.665 125.964 142.298 126.104 141.931C127.899 137.369 125.393 129.635 124.265 125.008C122.814 119.139 121.143 113.285 119.531 107.438C117.876 101.43 116.432 95.1861 114.476 89.1998C116.52 85.6301 121.026 83.2576 125.203 82.0383C128.375 81.0907 131.797 80.4737 135.079 80.6794C139.373 91.2491 145.095 107.482 149.711 122.268C150.217 123.906 150.722 125.492 151.184 127.079C156.811 145.706 164.827 163.533 173.165 181.169C180.169 195.999 185.774 211.152 190.39 226.9C190.962 228.905 191.54 231.094 190.8 233.048H190.815Z" fill="#2B2B2B"/>
<path d="M49.4348 56.7194C26.714 82.4716 0.197827 115.701 0 151.906C0 152.581 1.10637 152.78 1.21627 152.067C4.06644 134.005 9.56164 117.295 18.7349 101.415C27.8203 85.6962 39.4115 71.8211 50.2261 57.3217C50.5704 56.8663 49.8158 56.2861 49.4348 56.7121V56.7194Z" fill="#2B2B2B"/>
<path d="M36.9643 114.864C26.4868 127.615 20.0465 144.641 16.1046 160.514C12.0674 176.791 10.4628 194.221 13.3203 210.814C13.4522 211.593 14.7271 211.409 14.6978 210.63C14.0823 193.92 14.5293 177.511 18.4272 161.161C22.3764 144.612 29.8352 130.296 37.5285 115.305C37.7044 114.959 37.2354 114.533 36.9643 114.871V114.864Z" fill="#2B2B2B"/>
<path d="M129.496 231.961C129.13 231.153 128.844 230.279 128.566 229.449C124.199 216.852 117.15 207.575 106.995 199.238C106.607 198.915 106.189 198.57 105.801 198.224L108.79 186.23C108.79 186.23 126.514 199.583 129.496 231.961Z" fill="#141414"/>
<path d="M175.289 376.852C174.395 367.296 173.201 357.784 170.93 348.433C167.574 334.734 162.291 319.324 158.437 303.598L161.625 288.078C161.625 288.078 175.106 317.091 176.579 342.697C177.18 353.127 176.418 365.658 175.289 376.844V376.852Z" fill="#2B2B2B"/>
<path d="M84.5234 210.101C83.1972 210.682 81.9883 211.666 80.7794 212.467C79.629 213.231 78.508 214.016 77.4456 214.898C76.581 215.61 77.6801 216.8 78.574 216.367C79.9075 215.721 81.1604 214.949 82.4133 214.163C83.5782 213.429 84.8458 212.775 85.8716 211.85C86.89 210.931 85.5932 209.631 84.5234 210.101Z" fill="#FFDA3E"/>
<path d="M90.3776 187.75C89.5717 186.288 88.6924 184.9 87.7619 183.512C87.4249 183.012 86.4944 183.314 86.7288 183.945C87.2564 185.385 87.7985 186.803 88.4433 188.198C89.0588 189.513 89.5424 191.29 90.6927 192.209C91.1909 192.613 92.1068 192.4 92.0701 191.636C92.0042 190.211 91.0517 188.969 90.3776 187.743V187.75Z" fill="#FFDA3E"/>
<path d="M118.213 169.96C115.472 168.932 111.728 168.741 108.819 168.719C108.087 168.719 108.006 169.725 108.651 169.953C111.443 170.937 114.959 172.009 117.934 171.973C119.143 171.958 119.253 170.349 118.205 169.96H118.213Z" fill="#FFDA3E"/>
<path d="M124.675 199.179C123.671 199.084 122.609 199.311 121.598 199.348C120.565 199.385 119.539 199.363 118.506 199.297C117.026 199.201 117.04 201.486 118.506 201.596C120.499 201.75 123.056 202 124.961 201.302C126.118 200.876 125.899 199.297 124.675 199.179Z" fill="#FFDA3E"/>
<path d="M142.157 216.374C141.871 214.935 141.725 213.495 141.388 212.07C141.248 211.475 140.311 211.468 140.179 212.07C139.82 213.657 139.871 215.192 140.076 216.808C140.252 218.218 140.259 219.716 141.446 220.612C141.908 220.958 142.465 220.554 142.633 220.128C143.11 218.938 142.399 217.586 142.164 216.374H142.157Z" fill="#FFDA3E"/>
<path d="M146.7 181.984C145.447 181.235 144.172 181.374 142.772 181.095C141.219 180.78 139.673 180.214 138.259 179.516C137.563 179.171 136.684 180.104 137.365 180.677C139.549 182.491 143.945 184.959 146.7 183.137C147.11 182.866 147.147 182.256 146.7 181.991V181.984Z" fill="#FFDA3E"/>
<path d="M167.186 201.948C166.739 200.31 166.416 198.636 166.006 196.99C165.735 195.903 164.204 196.204 164.138 197.247C164.028 198.988 164.226 200.656 164.599 202.36C164.885 203.682 165.142 205.562 166.512 206.142C166.885 206.304 167.354 206.267 167.567 205.863C168.248 204.585 167.545 203.256 167.186 201.956V201.948Z" fill="#FFDA3E"/>
<path d="M169.193 222.265C167.882 220.811 165.076 220.605 163.229 220.642C162.614 220.657 159.514 220.745 160.276 222.214C160.848 223.33 162.628 223.169 163.698 223.352C165.193 223.609 166.863 224.461 168.365 224.27C169.362 224.145 169.933 223.073 169.193 222.258V222.265Z" fill="#FFDA3E"/>
<path d="M150.341 163.32C149.521 162.005 147.755 161.454 146.407 160.779C145.681 160.411 144.949 160.088 144.201 159.765C143.828 159.603 142.304 159.317 142.164 158.906C142.091 158.685 141.71 158.634 141.659 158.906C141.424 160.308 142.736 161.014 143.762 161.711C144.758 162.395 145.784 163.026 146.824 163.643C147.74 164.187 148.444 164.73 149.535 164.73C150.224 164.73 150.722 163.93 150.341 163.32Z" fill="#FFDA3E"/>
<path d="M138.215 133.205C136.618 135.239 135.951 138.413 135.402 140.903C135.196 141.828 136.493 142.173 136.801 141.292C137.241 140.065 137.695 138.839 138.149 137.612C138.603 136.407 139.307 135.232 139.519 133.961C139.629 133.293 138.75 132.514 138.215 133.197V133.205Z" fill="#FFDA3E"/>
<path d="M134.134 115.459C133.423 114.35 132.104 113.762 130.976 113.138C129.796 112.484 128.522 111.698 127.195 111.426C126.661 111.316 126.367 111.889 126.69 112.3C127.525 113.365 128.829 114.166 129.936 114.93C131.02 115.672 132.097 116.546 133.431 116.693C134.046 116.759 134.449 115.951 134.134 115.459Z" fill="#FFDA3E"/>
<path d="M133.497 97.2575C133.277 95.4139 133.094 93.5702 132.947 91.7193C132.844 90.4118 130.815 90.3751 130.881 91.7193C130.976 93.7025 131.108 95.6783 131.299 97.6542C131.452 99.2554 131.401 101.011 132.251 102.414C132.625 103.023 133.585 102.921 133.775 102.216C134.215 100.614 133.694 98.8955 133.497 97.2649V97.2575Z" fill="#FFDA3E"/>
</g>
<defs>
<clipPath id="clip0_706_123">
<rect width="263" height="487" fill="white"/>
</clipPath>
</defs>
</svg>
