<svg width="311" height="324" viewBox="0 0 311 324" fill="none" xmlns="http://www.w3.org/2000/svg">
<g clip-path="url(#clip0_702_123)">
<path d="M203.07 267.58C203.07 267.58 197.46 280.64 183.42 296.4C169.38 312.15 126.7 323.33 126.7 323.33C126.7 323.33 68.54 321.89 35.31 321.04C2.07002 320.18 1.50002 304.71 1.50002 304.71C-8.80998 280.92 37.6 187.26 37.6 187.26L58.47 193.45C58.47 193.45 60.52 195.55 57.07 228.2C53.64 260.86 42.46 280.92 42.46 280.92C42.46 280.92 42.49 280.91 42.59 280.9C43.39 280.73 48.2 279.62 67.67 273.48C72.99 271.8 78.22 270.73 83.08 270.09C98.16 268.07 109.79 270.03 109.79 270.03L110.1 270.11C110.83 267.41 113.19 262.13 120.67 252.56C130.99 239.38 155.94 233.91 155.94 233.91L203.07 267.57V267.58Z" fill="#121212"/>
<path d="M203.07 267.58C203.07 267.58 302.32 268.03 309.48 290.38C316.64 312.73 284.84 321.89 268.8 323.33C252.76 324.76 198.04 323.33 198.04 323.33V302.42L181.74 298.15L203.08 267.59L203.07 267.58Z" fill="#121212"/>
<path d="M37.6 187.27C37.6 187.27 40.01 176.91 40.57 171.01C41.14 165.1 48.44 115.84 52.32 114.06C56.2 112.27 57.72 118.44 58.42 132.6C59.12 146.76 63.78 168.13 62.68 172.68C61.58 177.23 57.75 180.73 57.75 180.73L58.47 193.46L37.6 187.27Z" fill="white"/>
<path d="M198.03 302.42C198.03 302.42 176.52 294.1 171.09 296.75C165.66 299.4 155.92 305.85 142.93 310.16C129.94 314.46 117.7 319.16 119.62 322.46C121.54 325.76 198.03 322.62 198.03 322.62V302.42Z" fill="white"/>
<path d="M183.13 297.86C183.13 297.86 194.21 286.76 203.07 267.58" stroke="#C9C9C9" stroke-width="0.56" stroke-linecap="round" stroke-linejoin="round"/>
<path d="M199.89 301.56C199.89 301.56 215.65 299.27 229.26 291.68C242.87 284.09 261.18 282.93 263.77 284.44C263.77 284.44 248.95 288.02 242.3 290.63C235.65 293.24 223.14 298.12 219.18 299.03C215.22 299.94 199.9 301.56 199.9 301.56H199.89Z" fill="#0C0C0C"/>
<path d="M198.03 302.42C198.03 302.42 215.08 301.27 228.11 296.26C241.15 291.25 267.5 278.5 286.55 285.66" stroke="#C9C9C9" stroke-width="0.56" stroke-linecap="round" stroke-linejoin="round"/>
<path d="M83.0801 270.1C82.5901 270.52 82.0601 270.9 81.5401 271.24C78.0201 273.62 74.4901 276 70.9701 278.37C67.8201 280.5 64.65 282.63 61.25 284.36C57.73 286.16 53.96 287.48 50.1 288.31C48.02 288.76 40.45 290.76 38.79 289.1C37.45 287.76 39.65 284.34 42.59 280.91C43.39 280.74 48.2 279.63 67.67 273.49C72.99 271.81 78.2201 270.74 83.0801 270.1Z" fill="#0C0C0C"/>
<path d="M42.47 280.93C42.47 280.93 39.8 285.8 33.11 291.34" stroke="#C9C9C9" stroke-width="0.56" stroke-linecap="round" stroke-linejoin="round"/>
<path d="M65.96 118.8C65.96 118.8 57.94 126.53 60.8 136.35C63.66 146.18 65 142.74 65.96 147.9C66.92 153.06 69.21 160.12 76.08 161.08C82.96 162.03 92.7 161.46 99.95 166.81C107.21 172.16 124.48 168.53 124.06 156.5C123.63 144.47 129.17 140.28 128.22 136.36C127.27 132.44 123.83 132.63 122.49 128.62C121.15 124.61 115.85 119.79 111.05 121.72C106.25 123.65 65.95 118.81 65.95 118.81L65.96 118.8Z" fill="#1F1F1F"/>
<path d="M62.18 124.81C60.16 127.51 59.16 130.96 59.45 134.33C59.58 135.85 59.96 137.34 60.33 138.82C60.63 140.02 60.94 141.23 61.47 142.34C62.2 143.88 63.35 145.22 63.9 146.83C64.49 148.53 64.36 150.41 64.82 152.15C65.51 154.75 67.48 156.89 69.8 158.26C72.12 159.64 74.77 160.34 77.41 160.87" stroke="#1F1F1F" stroke-width="0.48" stroke-linecap="round" stroke-linejoin="round"/>
<path d="M61.96 130.88C63.1 135.16 64.2 139.46 64.71 143.85C65.13 147.47 65.2 151.31 67.14 154.4C68.35 156.32 70.21 157.78 72.27 158.73C74.33 159.68 76.6 160.13 78.86 160.3" stroke="#1F1F1F" stroke-width="0.48" stroke-linecap="round" stroke-linejoin="round"/>
<path d="M61.48 126.76C60.64 130.33 60.91 134.06 61.18 137.72C61.27 138.89 61.36 140.08 61.79 141.17C62.12 142.01 62.64 142.76 63.07 143.56C64.94 147.02 65.09 151.31 67.46 154.44C69.43 157.04 72.6 158.4 75.62 159.64" stroke="#1F1F1F" stroke-width="0.48" stroke-linecap="round" stroke-linejoin="round"/>
<path d="M104.76 168.46C108.3 168.87 111.93 169.28 115.41 168.52C118.89 167.76 122.28 165.58 123.53 162.24C124.85 158.71 123.57 154.77 123.87 151.02C124.09 148.27 123.31 145.31 125.08 143.2" stroke="#1F1F1F" stroke-width="0.48" stroke-linecap="round" stroke-linejoin="round"/>
<path d="M70.73 168.03C69.2 170.67 68.65 174.01 69.97 176.74C70.83 178.53 72.4 179.91 73.16 181.75C73.68 183.02 73.78 184.42 74.09 185.75C74.76 188.63 77.05 190.21 79.68 191.23C81.93 192.1 84.31 192.64 86.71 192.83C88.47 192.97 90.35 192.89 91.8 191.89C93.91 190.44 94.44 187.55 96.1 185.6C98.36 182.95 102.33 182.44 104.88 180.07C110.99 174.41 104.81 166.65 99.27 163.72C94.26 161.06 88.47 160.31 82.87 160.06C78.06 159.85 73.4 163.76 70.96 167.63C70.88 167.76 70.8 167.89 70.73 168.02V168.03Z" fill="#1F1F1F"/>
<path d="M78.02 160.52C74.58 162.19 72.17 165.44 70.39 168.81C69.5 170.49 68.71 172.29 68.59 174.19C68.47 176.09 69.11 178.13 70.63 179.28C71.77 180.14 73.32 180.48 74.18 181.62C74.66 182.25 74.84 183.05 75.14 183.79C76.41 187 79.62 189.02 82.87 190.19C84.64 190.83 86.51 191.28 88.4 191.21C90.28 191.14 92.19 190.51 93.56 189.21C94.29 188.52 94.84 187.65 95.56 186.95C96.7 185.83 98.2 185.16 99.56 184.31C102.76 182.31 105.27 179.23 106.57 175.69C106.92 174.75 106.89 173.71 106.76 172.72C106.63 171.78 106.48 170.77 105.83 170.07C105.49 169.7 105.01 169.38 104.97 168.89" stroke="#1F1F1F" stroke-width="0.48" stroke-linecap="round" stroke-linejoin="round"/>
<path d="M89.95 191.4C91.24 190.36 92.2 188.89 93.66 188.12C94.95 187.44 96.46 187.38 97.87 187.01C100.55 186.31 102.81 184.49 104.64 182.41C105.85 181.04 106.93 179.48 107.32 177.69C107.66 176.1 107.43 174.43 106.99 172.86C106.44 170.88 105.58 168.99 104.44 167.28" stroke="#1F1F1F" stroke-width="0.48" stroke-linecap="round" stroke-linejoin="round"/>
<path d="M179.09 129.96C177.98 129.78 168.85 128.23 160.43 125.08C151.45 121.71 130.92 105.32 130.92 105.32C130.92 105.32 132.18 103.97 132.36 97.5099C132.37 97.0099 132.38 96.4799 132.38 95.9099C132.38 88.0599 126.77 66.7399 124.53 43.1699C122.29 19.6099 129.02 17.3599 129.02 17.3599H130.14C150.34 16.2399 155.95 83.5599 162.68 106.01C165.05 113.92 167.81 119.23 170.38 122.79C174.64 128.71 178.41 129.81 179.1 129.97L179.09 129.96Z" fill="white"/>
<path d="M76.49 100.04C74.66 105.53 68.64 107 65.54 107.39C62.44 107.8 50.8 114.89 49.69 114.57C48.8 114.32 47.75 107.45 47.59 103.46H47.58C47.57 103.16 47.56 102.89 47.57 102.63C47.57 102.04 47.58 101.55 47.63 101.22C47.93 99.2399 48.18 98.1399 51.83 94.3599C51.87 94.3099 51.92 94.2599 51.98 94.1999H51.99C53.02 93.1299 54.31 91.8599 55.94 90.2999C63.54 83.0299 71.71 80.7399 71.71 80.7399L79.17 87.6699C79.17 87.6699 78.33 94.5199 76.5 100.02L76.49 100.04Z" fill="white"/>
<path d="M68.25 103.75C68.25 103.75 53.19 113.37 52.37 114.98C51.55 116.59 61.26 114.63 65.28 111.09C69.29 107.55 75.15 104.19 76.26 100.61C77.37 97.0299 68.25 103.75 68.25 103.75Z" fill="white"/>
<path d="M66.42 93.7699C66.14 95.0999 57.0901 99.9 54.0801 101.11C51.6501 102.1 48.89 103.31 47.55 102.64C47.55 102.05 47.5601 101.56 47.6101 101.23C47.9101 99.25 48.1601 98.15 51.8101 94.37C54.0901 93.46 57.39 92.28 60.12 91.81C64.8 90.99 66.7 92.44 66.42 93.78V93.7699Z" fill="white"/>
<path opacity="0.87" d="M66.42 93.7699C66.14 95.0999 57.0901 99.9 54.0801 101.11C51.6501 102.1 48.89 103.31 47.55 102.64C47.55 102.05 47.5601 101.56 47.6101 101.23C47.9101 99.25 48.1601 98.15 51.8101 94.37C54.0901 93.46 57.39 92.28 60.12 91.81C64.8 90.99 66.7 92.44 66.42 93.78V93.7699Z" fill="url(#paint0_linear_702_123)"/>
<path d="M47.56 102.64C47.56 102.64 46.23 108.63 48.1 108.82C49.98 109.02 64.13 102.89 66.2 98.76C68.27 94.63 64.76 95.33 64.76 95.33L47.55 102.63L47.56 102.64Z" fill="white"/>
<path opacity="0.87" d="M47.56 102.64C47.56 102.64 46.23 108.63 48.1 108.82C49.98 109.02 64.13 102.89 66.2 98.76C68.27 94.63 64.76 95.33 64.76 95.33L47.55 102.63L47.56 102.64Z" fill="url(#paint1_linear_702_123)"/>
<path d="M48.1 108.82C48.1 108.82 47.33 114.75 50.94 113.89C54.54 113.03 63.15 107.53 64.5 105.26C65.85 102.99 63.85 101.58 63.85 101.58C63.85 101.58 58.22 104.65 53.58 106.76C48.94 108.86 48.1 108.82 48.1 108.82Z" fill="white"/>
<path opacity="0.87" d="M48.1 108.82C48.1 108.82 47.33 114.75 50.94 113.89C54.54 113.03 63.15 107.53 64.5 105.26C65.85 102.99 63.85 101.58 63.85 101.58C63.85 101.58 58.22 104.65 53.58 106.76C48.94 108.86 48.1 108.82 48.1 108.82Z" fill="url(#paint2_linear_702_123)"/>
<path d="M47.56 102.64C47.56 102.64 58.52 99.0399 64.77 95.3399" stroke="#B5B5B5" stroke-width="0.28" stroke-linecap="round" stroke-linejoin="round"/>
<path d="M48.1 108.82C48.1 108.82 59.5 104.63 63.87 101.28" stroke="#B5B5B5" stroke-width="0.28" stroke-linecap="round" stroke-linejoin="round"/>
<path d="M70.98 89.96C70.98 89.96 66.82 94.98 66.24 104.17" stroke="#B5B5B5" stroke-width="0.28" stroke-linecap="round" stroke-linejoin="round"/>
<path d="M179.09 129.96C177.98 129.78 168.85 128.23 160.43 125.08C151.45 121.71 130.92 105.32 130.92 105.32C130.92 105.32 132.18 103.97 132.36 97.5099C132.37 97.0099 132.38 96.4799 132.38 95.9099C132.38 90.7699 129.98 79.8599 127.69 66.3299C127.15 63.1899 126.64 59.9099 126.14 56.5199C125.52 52.2099 124.96 47.7299 124.52 43.1699C122.28 19.6099 129.01 17.3599 129.01 17.3599H130.13C150.33 16.2399 155.94 83.5599 162.67 106.01C165.04 113.92 167.8 119.23 170.37 122.79C174.63 128.71 178.4 129.81 179.09 129.97V129.96Z" fill="url(#paint3_linear_702_123)"/>
<path d="M71.11 81.6299C71.11 81.6299 115.99 23.1899 124.97 18.4099C133.95 13.6399 140.84 24.3199 140.84 24.3199L135.86 48.7799L126.14 56.5299L78.25 88.2299L71.12 81.6399L71.11 81.6299Z" fill="white"/>
<path d="M127.69 66.3199C127.15 63.1799 126.64 59.8999 126.14 56.5099C126.14 56.5099 135.88 47.3099 139.16 37.1199C139.16 37.1199 144.29 59.9899 127.69 66.3199Z" fill="url(#paint4_linear_702_123)"/>
<path d="M215.48 205.93C214.98 228.7 211.13 252.34 203.57 266.66C203.3 267.15 202.66 267.29 202.2 266.96L156.88 234.59C156.4 234.24 156.35 233.54 156.8 233.14L166.67 224.25C166.96 223.98 167.06 223.58 166.92 223.21C166.04 221.09 162.89 213.63 158.21 205.86C156.2 202.53 153.91 199.14 151.41 196.09C150.34 194.8 149.23 193.57 148.09 192.42C148.08 192.41 148.08 192.4 148.08 192.4C136.86 181.18 127.88 174.45 126.76 164.35C126.63 163.09 126.51 161.88 126.43 160.71L126.32 158.77C125.98 151.6 126.53 146.03 125.65 139.75L125.62 139.58C125.55 139.39 125.37 138.81 125.08 137.98C123.7 134.08 119.97 124.6 115.54 122.83C110.98 121 109.39 121.4 108.94 121.62C108.86 121.66 108.79 121.72 108.74 121.78C102.43 128.05 96.18 134.58 87.48 137.48C81.75 139.39 74.86 138.09 70.28 134.12C67.89 132.04 66.14 129.18 65.48 126.1C65.28 125.14 65.18 124.16 65.2 123.17C65.31 116.85 69.78 111.38 74.03 107.12C76.5 104.65 85.27 97.3399 93.62 92.3399C93.84 92.2099 94.07 92.0699 94.29 91.9399H94.56C95.22 92.3799 96.87 93.7799 98.52 97.7299C98.53 97.7499 98.53 97.7599 98.54 97.7899V97.7599C98.54 97.7599 98.54 97.7399 98.53 97.7299C98.52 97.6199 98.51 97.3699 98.49 97.0499C98.4 95.7399 98.16 93.0199 97.73 91.2999C97.56 90.6599 97.88 89.9999 98.47 89.7099C98.73 89.5899 99 89.4599 99.26 89.3499C103.31 87.4899 106.81 86.7399 108.82 88.0599C114.53 91.8599 116.2 95.6699 116.58 96.7399C116.65 96.9399 116.79 97.0999 116.97 97.2099C118.06 97.8499 121.96 100.14 127.1 103.11C133.34 106.72 141.42 111.31 148.45 115.09C152.64 117.33 156.45 119.29 159.3 120.59C163.54 122.52 167.39 124.32 170.61 125.84L173.85 127.4C176.34 128.59 178.24 129.52 179.38 130.08L180.58 130.66C180.58 130.66 180.62 130.69 180.65 130.7C181.6 131.27 202.4 143.95 210.96 164.99C212.58 168.97 213.75 173.25 214.28 177.8C215.28 186.46 215.68 196.11 215.47 205.92L215.48 205.93Z" fill="white"/>
<path d="M215.48 205.93C203.88 211.76 176.12 225.1 167.16 223.82C167.16 223.82 163.75 215.06 158.22 205.87C155.36 201.12 151.93 196.25 148.1 192.43C148.09 192.42 148.09 192.41 148.09 192.41C148.09 192.41 160.94 183.05 164.92 172.36C164.92 172.36 174.35 174.45 190.16 171.2C205.96 167.96 210.97 165.01 210.97 165.01C212.59 168.99 213.76 173.27 214.29 177.82C215.29 186.48 215.69 196.13 215.48 205.94V205.93Z" fill="#121212"/>
<path d="M159.35 188.59C155.99 192.02 153.37 194.44 151.42 196.1C150.35 194.81 149.24 193.58 148.1 192.43C148.09 192.42 148.09 192.41 148.09 192.41C136.87 181.19 127.89 174.46 126.77 164.36C126.64 163.1 126.52 161.89 126.44 160.72L126.33 158.78C125.99 151.58 126.54 145.99 125.65 139.67C125.65 139.67 125.45 139.03 125.09 137.99C125.09 137.99 144.65 130.99 148.46 115.1L170.62 125.85L173.86 127.41L179.39 130.09L181.67 131.35L162.59 177.05C162.59 177.05 167.94 179.81 159.35 188.6V188.59Z" fill="#121212"/>
<path d="M164.92 177.05C164.92 177.05 178.47 201.67 183.91 220.05" stroke="#FFDA3E" stroke-miterlimit="10"/>
<path d="M160.54 177.78C161.11 177.74 179.64 192.58 191.29 183.36C202.94 174.14 202.79 162.06 202.79 162.06L168.75 158.69L160.54 177.78Z" fill="#0C0C0C"/>
<path d="M102.58 118.12C101.46 119.24 85.24 137.42 97.59 136.29C109.93 135.17 113.3 125.07 111.06 121.7C108.82 118.33 105.45 118.33 105.45 118.33L102.59 118.11L102.58 118.12Z" fill="white"/>
<path d="M97.7501 127.99C97.2401 129.02 96.5501 130.01 96.4201 131.18C96.3401 131.94 96.5301 132.77 97.0701 133.32C97.8601 134.12 99.1601 134.12 100.24 133.85C103.04 133.14 105.15 131.19 106.92 129C107.76 127.95 108.47 126.75 108.71 125.43C109.03 123.67 108.44 121.77 106.72 121.02C105.11 120.32 103.12 120.83 101.92 122.08" stroke="#121212" stroke-width="0.28" stroke-linecap="round" stroke-linejoin="round"/>
<path d="M104.04 120.85C104.04 120.85 99.8401 125.94 100.77 133.25" stroke="#121212" stroke-width="0.28" stroke-linecap="round" stroke-linejoin="round"/>
<path d="M128.65 104C127.84 109.63 122.25 118.12 122.25 118.12C120.98 105.78 116.8 97.29 116.67 97.04H116.66L128.64 104.01L128.65 104Z" fill="url(#paint5_linear_702_123)"/>
<path d="M82.9 99.8C82.9 99.8 88.02 89.58 88.65 89.42C89.28 89.26 92.34 93.05 92.34 93.05L82.89 99.8H82.9Z" fill="white"/>
<path d="M82.9 99.8C82.9 99.8 88.02 89.58 88.65 89.42C89.28 89.26 92.34 93.05 92.34 93.05L82.89 99.8H82.9Z" fill="url(#paint6_linear_702_123)"/>
<path d="M80.21 109.08C80.7 109.57 81.26 109.99 81.86 110.34C83.48 111.3 85.35 111.75 87.22 111.93C89.23 112.12 86 110.2 85.57 109.9C84.11 108.91 83.24 107.5 82.45 105.96C81.87 104.82 80.56 102.78 79.02 103.58C78.19 104.01 78.13 105.19 78.38 106.09C78.71 107.23 79.36 108.25 80.21 109.09V109.08Z" fill="#1F1F1F"/>
<path d="M89 103.81C89.36 104.85 89.35 105.98 89.45 107.08C89.46 107.23 89.53 107.42 89.67 107.41C89.75 107.41 89.82 107.34 89.87 107.27C90.8 106.04 91.11 104.38 90.69 102.9C90.27 101.42 89.12 100.17 87.69 99.62C87.21 99.44 86.33 99.23 85.88 99.57C85.22 100.07 86.12 100.42 86.53 100.73C87.59 101.53 88.56 102.54 89 103.82V103.81Z" fill="#121212"/>
<path d="M98.52 97.73C97.18 96 95.57 94.5 94.03 92.94C93.85 92.76 93.69 92.56 93.61 92.35C93.83 92.22 94.06 92.08 94.28 91.95H94.55C95.21 92.39 96.86 93.79 98.51 97.74L98.52 97.73Z" fill="url(#paint7_linear_702_123)"/>
<path d="M99.79 91.12C99.8 92.05 99.63 92.97 99.46 93.88C99.35 94.55 99.22 95.24 99.1 95.91C98.98 96.56 98.86 97.23 98.61 97.85C98.58 97.57 98.53 97.3 98.49 97.03C98.4 95.72 98.16 93 97.73 91.28C97.56 90.64 97.88 89.98 98.47 89.69C98.73 89.57 99 89.44 99.26 89.33C99.28 89.34 99.29 89.36 99.3 89.38C99.69 89.85 99.79 90.5 99.79 91.12Z" fill="url(#paint8_linear_702_123)"/>
<path d="M66.0701 119.47C67.4301 118.96 68.9101 118.83 70.3601 118.81C76.4801 118.7 82.6201 120.29 87.9101 123.36C88.3401 123.61 88.7701 123.87 89.1401 124.21C89.6301 124.67 90.0001 125.25 90.3501 125.82C90.8001 126.54 91.2501 127.26 91.7001 127.98" stroke="#1F1F1F" stroke-width="0.48" stroke-linecap="round" stroke-linejoin="round"/>
<path d="M66.3401 119.06C66.8601 118.74 67.4601 118.59 68.0601 118.47C72.7601 117.52 77.6501 118.25 82.2301 119.64C84.7001 120.39 87.2201 121.39 88.9301 123.33C90.0201 124.56 90.7101 126.09 91.3801 127.6" stroke="#1F1F1F" stroke-width="0.48" stroke-linecap="round" stroke-linejoin="round"/>
<path d="M65.96 118.8C65.96 118.8 89.54 119.57 91.17 127.35C92.8 135.13 93.08 140.26 93.08 140.26C93.08 140.26 73.51 146.2 67.82 136.35C62.13 126.5 65.95 118.8 65.95 118.8H65.96Z" fill="#1F1F1F"/>
<path d="M103.27 118.46C102.55 120.22 101.06 121.52 99.76 122.91C96.63 126.26 94.44 130.49 93.51 134.99C93.22 136.37 92.75 138.11 91.35 138.31C89.9 138.52 88.93 136.85 88.61 135.43C86.47 126.01 95.99 121.46 103.26 118.47L103.27 118.46Z" fill="#1F1F1F"/>
<path d="M261.28 142.53C261.26 142.6 261.24 142.65 261.21 142.72C260.9 143.55 260.5 144.29 260.05 144.97C259.87 145.27 259.69 145.54 259.55 145.74C259.39 145.95 259.21 146.17 259.05 146.37C256.35 149.41 252.24 150.87 248.31 152.33C240.63 155.18 232.86 157.77 225.07 160.3C210.62 165 195.64 170.7 180.59 173.18C180.22 173.24 179.86 173.29 179.5 173.34C169.4 174.46 135.74 175.58 157.06 134.07C157.06 134.07 207.44 128.06 235.56 127.1C235.87 127.09 236.18 127.08 236.48 127.08C239.52 126.98 242.28 126.96 244.66 127C246.85 127.04 248.71 127.16 250.19 127.34C257.93 128.31 264.12 134.45 261.28 142.54V142.53Z" fill="white"/>
<path d="M181.67 131.34C181.67 131.34 141.21 125.74 137.01 153.63C132.81 181.52 179.31 183.44 210.97 165L181.67 131.34Z" fill="white"/>
<path d="M261.28 142.53C260.97 143.3 260.64 143.96 260.35 144.49C260.26 144.66 260.16 144.82 260.06 144.97C260.02 145.05 259.96 145.13 259.93 145.19C259.78 145.39 259.67 145.58 259.56 145.73C259.4 145.94 259.22 146.16 259.06 146.36C259.03 146.38 259.02 146.39 259.02 146.39C259.02 146.39 245.86 138.61 236.87 127.52C236.81 127.46 236.77 127.41 236.72 127.35C236.64 127.25 236.56 127.16 236.5 127.06C236.48 127.03 236.46 127 236.43 126.97C235.5 125.78 234.66 124.46 233.88 123.02C233.31 121.98 232.77 120.87 232.28 119.71C226.96 107.52 225.53 90.17 225.53 80.19C225.53 67.85 218.8 56.63 218.8 56.63L227.78 48.78C227.78 48.78 244.61 77.95 256.95 107.13C265.09 126.36 263.4 137.31 261.3 142.53H261.28Z" fill="white"/>
<path d="M253.35 130.89C253.35 130.89 246.64 127.45 242.12 126.96C241.69 126.9 241.28 126.89 240.9 126.9C239.31 126.96 237.76 126.97 236.42 126.97C235.49 125.78 234.65 124.46 233.87 123.02C233.3 121.98 232.76 120.87 232.27 119.71C236.51 119.61 246.88 120.57 251.68 127.58C252.36 128.56 252.93 129.66 253.35 130.89Z" fill="url(#paint9_linear_702_123)"/>
<path d="M236.48 127.06C236.48 127.06 246.44 125.5 255.32 132.24" stroke="#B5B5B5" stroke-width="0.28" stroke-linecap="round" stroke-linejoin="round"/>
<path d="M216.87 28.17C216.87 28.17 212.55 23.66 207.68 20.21C202.81 16.78 192.49 2.45 191.06 2.74C190.27 2.9 189.84 4.54 189.99 6.67C190.11 8.45 190.66 10.59 191.77 12.48C193.85 16 199.19 20.96 200.77 22.4C200.49 22.24 196.1 19.95 194.78 20.36C192.92 20.93 189.76 25.52 188.9 29.53C188.05 33.55 188.9 35.41 188.9 35.41C188.9 35.41 188.77 35.44 188.56 35.52H188.55C188.19 35.65 187.63 35.9 187.19 36.31C186.75 36.71 186.44 37.26 186.61 37.98C187.04 39.84 190.72 43.19 192.18 47.25C192.18 47.25 193.3 49.49 197.79 50.62C202.28 51.74 213.5 62.96 219.11 57.35C224.72 51.74 228.09 49.5 228.09 49.5C228.09 49.5 220.24 32.67 216.87 28.18V28.17ZM205 43.14C205 43.14 204.98 43.14 204.93 43.13C204.31 43.01 199.29 42.03 197.48 41.23C196.41 40.76 195.16 39.41 194.24 38.3C193.5 37.39 192.97 36.64 192.97 36.64C192.97 36.64 192.98 36.63 192.99 36.6C193.23 36.07 195.67 30.69 196.4 27.21C196.4 27.21 205.55 29.39 207.33 32.92C207.42 33.1 207.5 33.29 207.55 33.48C208.69 37.12 204.99 43.14 204.99 43.14H205Z" fill="white"/>
<path d="M210.54 27.2L203.66 19.65L201.08 15.64L200.13 13.61C200.13 13.61 199.78 12.78 199.33 11.5C199.3 11.41 199.26 11.31 199.23 11.21C198.15 8.08997 196.65 2.72997 198.03 0.16997C198.03 0.16997 198.21 0.0399698 198.48 0.00996981C198.91 -0.0500302 199.59 0.15997 200.23 1.49997C201.27 3.69997 209.44 20.47 212.52 24.07C215.61 27.67 210.55 27.2 210.55 27.2H210.54Z" fill="white"/>
<path d="M199.33 11.5C199.3 11.41 199.26 11.31 199.23 11.21L199.39 11.63L199.33 11.51V11.5Z" fill="url(#paint10_linear_702_123)"/>
<path d="M211.69 25.3799C210.29 25.5499 202.67 23.0299 200.79 22.4199C199.22 20.9899 193.86 16.0199 191.78 12.4899C190.67 10.5899 190.12 8.45993 190 6.67993C191.01 7.48993 192.36 8.91993 194.03 11.4399C198.07 17.5299 213.3 25.1999 211.69 25.3899V25.3799Z" fill="url(#paint11_linear_702_123)"/>
<path d="M199.23 11.2099C198.15 8.08995 196.65 2.72995 198.03 0.169949C198.03 0.169949 198.21 0.0399487 198.48 0.00994873C199.2 1.81995 199.36 6.23995 200.38 8.90995C201.54 11.9599 208.87 21.1299 209.33 21.6999C206.14 19.3399 199.23 11.2099 199.23 11.2099Z" fill="url(#paint12_linear_702_123)"/>
<path d="M204.93 43.13C204.76 43.26 204.5 43.35 204.28 43.38C201.41 43.73 198.46 43.29 195.81 42.13C194.97 41.76 194.14 41.3 193.57 40.59C193.02 39.92 192.74 39.0599 192.16 38.4199C190.95 37.0799 188.88 37.07 187.25 36.32C187.24 36.32 187.23 36.3099 187.22 36.2999C187.66 35.8999 188.22 35.6499 188.58 35.5099H188.59C189.63 35.5899 190.8 35.81 191.06 35.88C191.59 36.01 192.1 36.19 192.53 36.52C192.96 36.82 193.27 37.2499 193.62 37.6399C193.82 37.8599 194.04 38.09 194.26 38.29C195.18 39.4 196.44 40.75 197.5 41.22C199.31 42.02 204.33 42.9899 204.95 43.1199L204.93 43.13Z" fill="url(#paint13_linear_702_123)"/>
<path d="M207.56 33.4799C207.5 33.2899 207.43 33.0999 207.34 32.9199C205.56 29.3899 196.41 27.2099 196.41 27.2099C195.68 30.6899 193.23 36.0699 193 36.5999C192.89 36.5899 192.78 36.5399 192.67 36.4899C192.11 36.2099 191.55 35.8699 190.98 35.6399C190.61 35.4799 189.73 35.2799 189.34 35.3899C190.01 35.1999 190.57 34.7199 191.01 34.1599C191.44 33.5999 191.74 32.9599 192.04 32.3199C192.53 31.2899 193.02 30.2599 193.4 29.1699C193.61 28.5499 193.8 27.8899 194.23 27.3899C194.72 26.7999 195.5 26.4799 196.27 26.3999C197.04 26.3099 197.82 26.4399 198.57 26.6099C200.16 26.9499 201.71 27.4499 203.17 28.1499C204.28 28.6899 205.36 29.3599 206.18 30.2699C206.98 31.1599 207.53 32.2999 207.56 33.4899V33.4799Z" fill="url(#paint14_linear_702_123)"/>
</g>
<defs>
<linearGradient id="paint0_linear_702_123" x1="41.1374" y1="99.9429" x2="68.4972" y2="94.5911" gradientUnits="userSpaceOnUse">
<stop stop-color="white" stop-opacity="0.3"/>
<stop offset="0.29" stop-color="#F1F1F1" stop-opacity="0.3"/>
<stop offset="0.58" stop-color="#C8C8C8" stop-opacity="0.3"/>
<stop offset="0.79" stop-color="#999999" stop-opacity="0.3"/>
</linearGradient>
<linearGradient id="paint1_linear_702_123" x1="43.0923" y1="109.338" x2="66.1222" y2="96.1958" gradientUnits="userSpaceOnUse">
<stop stop-color="white" stop-opacity="0.3"/>
<stop offset="0.29" stop-color="#F1F1F1" stop-opacity="0.3"/>
<stop offset="0.58" stop-color="#C8C8C8" stop-opacity="0.3"/>
<stop offset="0.79" stop-color="#999999" stop-opacity="0.3"/>
</linearGradient>
<linearGradient id="paint2_linear_702_123" x1="48.4321" y1="106.51" x2="64.2048" y2="108.882" gradientUnits="userSpaceOnUse">
<stop stop-color="white" stop-opacity="0.3"/>
<stop offset="0.29" stop-color="#F1F1F1" stop-opacity="0.3"/>
<stop offset="0.58" stop-color="#C8C8C8" stop-opacity="0.3"/>
<stop offset="0.79" stop-color="#999999" stop-opacity="0.3"/>
</linearGradient>
<linearGradient id="paint3_linear_702_123" x1="140.06" y1="-4.87006" x2="159.54" y2="154.8" gradientUnits="userSpaceOnUse">
<stop stop-color="white" stop-opacity="0.3"/>
<stop offset="0.36" stop-color="#F1F1F1" stop-opacity="0.3"/>
<stop offset="0.72" stop-color="#C8C8C8" stop-opacity="0.3"/>
<stop offset="0.99" stop-color="#999999" stop-opacity="0.3"/>
</linearGradient>
<linearGradient id="paint4_linear_702_123" x1="141.46" y1="65.4199" x2="127.33" y2="41.3599" gradientUnits="userSpaceOnUse">
<stop stop-color="white" stop-opacity="0.3"/>
<stop offset="0.29" stop-color="#F1F1F1" stop-opacity="0.3"/>
<stop offset="0.58" stop-color="#C8C8C8" stop-opacity="0.3"/>
<stop offset="0.79" stop-color="#999999" stop-opacity="0.3"/>
</linearGradient>
<linearGradient id="paint5_linear_702_123" x1="137.55" y1="119.57" x2="105.21" y2="96.83" gradientUnits="userSpaceOnUse">
<stop stop-color="white" stop-opacity="0.3"/>
<stop offset="0.29" stop-color="#F1F1F1" stop-opacity="0.3"/>
<stop offset="0.58" stop-color="#C8C8C8" stop-opacity="0.3"/>
<stop offset="0.79" stop-color="#999999" stop-opacity="0.3"/>
</linearGradient>
<linearGradient id="paint6_linear_702_123" x1="82.9" y1="94.6" x2="92.35" y2="94.6" gradientUnits="userSpaceOnUse">
<stop stop-color="white" stop-opacity="0.3"/>
<stop offset="0.29" stop-color="#F1F1F1" stop-opacity="0.3"/>
<stop offset="0.58" stop-color="#C8C8C8" stop-opacity="0.3"/>
<stop offset="0.79" stop-color="#999999" stop-opacity="0.3"/>
</linearGradient>
<linearGradient id="paint7_linear_702_123" x1="99.3" y1="97.23" x2="94.04" y2="92.61" gradientUnits="userSpaceOnUse">
<stop stop-color="white" stop-opacity="0.3"/>
<stop offset="0.29" stop-color="#F1F1F1" stop-opacity="0.3"/>
<stop offset="0.58" stop-color="#C8C8C8" stop-opacity="0.3"/>
<stop offset="0.79" stop-color="#999999" stop-opacity="0.3"/>
</linearGradient>
<linearGradient id="paint8_linear_702_123" x1="101.04" y1="93.57" x2="98.07" y2="93.61" gradientUnits="userSpaceOnUse">
<stop stop-color="white" stop-opacity="0.3"/>
<stop offset="0.29" stop-color="#F1F1F1" stop-opacity="0.3"/>
<stop offset="0.58" stop-color="#C8C8C8" stop-opacity="0.3"/>
<stop offset="0.79" stop-color="#999999" stop-opacity="0.3"/>
</linearGradient>
<linearGradient id="paint9_linear_702_123" x1="232.26" y1="125.3" x2="253.35" y2="125.3" gradientUnits="userSpaceOnUse">
<stop stop-color="white" stop-opacity="0.3"/>
<stop offset="0.29" stop-color="#F1F1F1" stop-opacity="0.3"/>
<stop offset="0.58" stop-color="#C8C8C8" stop-opacity="0.3"/>
<stop offset="0.79" stop-color="#999999" stop-opacity="0.3"/>
</linearGradient>
<linearGradient id="paint10_linear_702_123" x1="199.54" y1="11.14" x2="199.1" y2="11.66" gradientUnits="userSpaceOnUse">
<stop stop-color="white" stop-opacity="0.3"/>
<stop offset="0.29" stop-color="#F1F1F1" stop-opacity="0.3"/>
<stop offset="0.58" stop-color="#C8C8C8" stop-opacity="0.3"/>
<stop offset="0.79" stop-color="#999999" stop-opacity="0.3"/>
</linearGradient>
<linearGradient id="paint11_linear_702_123" x1="204.7" y1="11.4799" x2="194.49" y2="23.6099" gradientUnits="userSpaceOnUse">
<stop stop-color="white" stop-opacity="0.3"/>
<stop offset="0.29" stop-color="#F1F1F1" stop-opacity="0.3"/>
<stop offset="0.58" stop-color="#C8C8C8" stop-opacity="0.3"/>
<stop offset="0.79" stop-color="#999999" stop-opacity="0.3"/>
</linearGradient>
<linearGradient id="paint12_linear_702_123" x1="205.67" y1="1.86995" x2="200.61" y2="24.1199" gradientUnits="userSpaceOnUse">
<stop stop-color="white" stop-opacity="0.3"/>
<stop offset="0.29" stop-color="#F1F1F1" stop-opacity="0.3"/>
<stop offset="0.58" stop-color="#C8C8C8" stop-opacity="0.3"/>
<stop offset="0.79" stop-color="#999999" stop-opacity="0.3"/>
</linearGradient>
<linearGradient id="paint13_linear_702_123" x1="187.2" y1="39.51" x2="204.93" y2="39.51" gradientUnits="userSpaceOnUse">
<stop stop-color="white" stop-opacity="0.3"/>
<stop offset="0.29" stop-color="#F1F1F1" stop-opacity="0.3"/>
<stop offset="0.58" stop-color="#C8C8C8" stop-opacity="0.3"/>
<stop offset="0.79" stop-color="#999999" stop-opacity="0.3"/>
</linearGradient>
<linearGradient id="paint14_linear_702_123" x1="189.33" y1="31.4799" x2="207.56" y2="31.4799" gradientUnits="userSpaceOnUse">
<stop stop-color="white" stop-opacity="0.3"/>
<stop offset="0.29" stop-color="#F1F1F1" stop-opacity="0.3"/>
<stop offset="0.58" stop-color="#C8C8C8" stop-opacity="0.3"/>
<stop offset="0.79" stop-color="#999999" stop-opacity="0.3"/>
</linearGradient>
<clipPath id="clip0_702_123">
<rect width="310.51" height="323.97" fill="white"/>
</clipPath>
</defs>
</svg>
