<svg width="388" height="413" viewBox="0 0 388 413" fill="none" xmlns="http://www.w3.org/2000/svg">
<g clip-path="url(#clip0_701_439)">
<path d="M138.876 306.123L131.888 315.047C131.303 313.938 128.832 310.769 125.356 306.558C125.356 306.558 125.356 306.558 125.356 306.551C123.641 304.468 121.671 302.122 119.574 299.657C111.694 290.381 101.844 279.217 95.8671 272.818C93.1931 269.956 91.3356 268.075 90.7064 267.693C87.5455 265.753 79.3063 254.229 78.1378 248.407C76.9768 242.585 79.7108 232.657 81.9054 225.03C84.1075 217.394 91.9198 197.179 96.3165 189.806C100.713 182.433 103.732 174.454 103.732 174.454C144.261 153.152 138.876 181.916 135.333 193.56C131.798 205.204 105.889 240.532 102.915 244.758C99.9418 248.984 102.661 250.88 106.406 253.854C110.158 256.829 115.978 266.015 117.529 270.023C119.079 274.032 138.868 306.123 138.868 306.123H138.876Z" fill="white"/>
<path d="M129.693 319.88C129.693 319.88 128.832 332.82 125.379 336.267C121.933 339.713 113.477 346.966 116.84 349.896C120.203 352.833 134.09 351.102 138.868 341.871C143.655 332.64 153.227 329.965 151.414 321.858C149.602 313.751 143.115 315.864 137.872 305.899C132.629 295.933 129.678 319.873 129.678 319.873L129.693 319.88Z" fill="#454545"/>
<path d="M158.238 198.078C154.53 210.501 146.636 226.805 144.568 230.941C142.501 235.085 134.741 248.28 135.258 254.101C135.7 259.047 138.846 267.364 140.336 274.429C140.599 275.673 140.816 276.887 140.943 278.033C141.849 285.668 141.722 327.59 142.628 333.539C143.535 339.489 143.662 340.658 143.662 340.658C143.662 340.658 140.037 343.894 132.539 342.726C132.539 342.726 125.813 306.888 123.746 299.77C122.734 296.301 119.701 287.294 116.825 278.243C113.799 268.727 110.952 259.159 110.817 255.907C110.555 249.568 114.181 226.663 114.96 215.147C115.739 203.63 124.787 177.278 124.787 177.278C124.787 177.278 137.116 169.299 158.245 177.278C158.245 177.278 161.953 185.648 158.245 198.071L158.238 198.078Z" fill="white"/>
<path d="M143.49 339.399C143.49 339.399 141.243 341.272 138.876 340.755C136.501 340.238 131.932 341.19 131.161 343.34C130.382 345.498 126.847 356.19 123.311 359.21C119.776 362.229 101.665 376.113 110.031 379.477C118.398 382.842 132.367 378.181 137.625 368.261C142.883 358.34 148.231 359.12 147.025 350.84C145.819 342.561 143.49 339.391 143.49 339.391V339.399Z" fill="#454545"/>
<path d="M135.333 193.553C133.063 201.03 121.558 218.286 112.832 230.784C111.11 233.264 109.492 235.549 108.076 237.535C105.507 241.146 103.604 243.769 102.915 244.75C99.9417 248.976 102.653 250.872 106.406 253.847C107.634 254.821 109.08 256.462 110.533 258.365C110.533 258.365 101.627 263.827 95.867 272.818C93.3054 270.068 80.1002 260.583 77.958 248.287C76.9393 242.435 79.5084 232.627 81.7106 225C83.9127 217.364 91.9272 197.179 96.3239 189.806C100.721 182.433 103.739 174.446 103.739 174.446C144.269 153.144 138.883 181.909 135.34 193.553H135.333Z" fill="#383838"/>
<path d="M158.238 198.078C154.53 210.501 146.636 226.805 144.568 230.941C142.501 235.085 134.741 248.28 135.258 254.101C135.7 259.047 138.846 267.364 140.336 274.429C140.336 274.429 131.281 274.234 116.825 278.25C113.799 268.735 110.69 259.174 110.555 255.922C110.293 249.583 113.492 227.742 114.271 216.226C115.05 204.709 124.787 177.286 124.787 177.286C124.787 177.286 137.116 169.306 158.246 177.286C158.246 177.286 161.953 185.655 158.246 198.078H158.238Z" fill="#383838"/>
<path d="M146.778 26.2246C146.778 26.2246 153.384 21.4517 159.991 28.9295C166.597 36.4072 163.676 43.9824 163.878 51.123C164.08 58.2636 157.624 74.4104 160.657 81.2813C163.691 88.1521 160.507 91.9884 160.507 91.9884C160.507 91.9884 139.565 98.597 140.291 66.4981C141.018 34.4067 146.778 26.2246 146.778 26.2246Z" fill="#212121"/>
<path d="M81.6132 410.79C37.421 404.488 10.8758 388.289 2.71892 362.641C-2.49426 346.247 -0.187278 325.904 9.57995 302.182C17.3548 283.308 29.8484 262.246 46.7089 239.566C75.3889 201 107.245 170.715 107.567 170.415L108.99 171.921C108.675 172.221 76.9319 202.402 48.3492 240.824C31.5937 263.355 19.1899 284.267 11.4825 302.984C1.90998 326.242 -0.382023 346.097 4.68135 362.019C12.576 386.843 38.5595 402.563 81.8978 408.744C183.008 423.16 232.526 365.301 237.844 262.853C239.844 224.378 234.526 192.946 234.473 192.631L236.511 192.279C236.563 192.593 241.911 224.22 239.911 262.913C238.735 285.661 235.282 306.378 229.657 324.481C207.658 395.265 154.658 421.197 81.6057 410.79H81.6132Z" fill="#FFDA3E"/>
<path d="M119.574 299.657C119.978 297.035 118.195 282.544 118.195 282.544C120.375 289.594 125.214 306.049 125.364 306.566C123.648 304.483 121.671 302.13 119.574 299.665V299.657Z" fill="#DBDBDB"/>
<path d="M118.15 198.093C116.338 205.166 112.84 230.791 112.84 230.791C111.117 233.272 109.499 235.557 108.084 237.542C108.286 222.19 117.956 198.723 118.158 198.101L118.15 198.093Z" fill="#242424"/>
<path d="M212.609 175.308C212.609 175.308 215.561 176.387 219.358 176.514C223.156 176.641 227.268 182.636 228.017 184.254C228.766 185.872 227.095 186.487 227.095 186.487C227.095 186.487 216.145 181.377 212.609 182.373C209.082 183.37 208.46 181.789 208.46 181.789L212.609 175.308Z" fill="white"/>
<path d="M234.241 196.962L210.055 182.673L212.534 178.05L237.26 191.335L234.241 196.962Z" fill="#212121"/>
<path d="M208.452 181.789C208.452 181.789 209.246 184.674 211.501 186.832C213.755 188.989 222.407 193.575 223.096 193.095C223.792 192.623 225.507 186.36 224.376 184.569C223.253 182.778 222.204 185.925 222.204 185.925C222.204 185.925 222.489 180.987 221.133 181.167C219.77 181.354 219.673 184.336 219.673 184.336C219.673 184.336 219.575 180.32 218.332 180.77C217.089 181.219 216.811 183.115 216.811 183.115C216.811 183.115 216.939 179.579 215.62 179.856C214.302 180.133 212.916 184.696 211.995 183.827C211.066 182.958 208.445 181.789 208.445 181.789H208.452Z" fill="white"/>
<path d="M151.594 77.2277C151.594 77.2277 151.512 81.1089 152.8 82.7498C154.096 84.3908 166.08 88.272 168.664 92.408C171.248 96.5515 164.005 116.647 162.2 122.079C160.388 127.511 153.317 138.638 153.145 142.692C152.972 146.745 152.456 156.493 153.227 159.685C154.006 162.877 157.714 174.693 158.231 177.278C158.231 177.278 124.517 183.228 103.732 174.431C103.732 174.431 108.818 157.003 108.735 152.695C108.653 148.379 108.908 132.577 109.424 128.231C109.941 123.885 101.492 114.826 106.323 109.304C111.155 103.782 123.483 92.7452 125.895 90.325C128.307 87.9123 134.172 83.3343 134.172 83.3343C134.172 83.3343 135.565 81.536 136.471 79.011C137.235 76.8755 137.558 74.1707 137.363 72.1176L152.628 66.0785C152.628 66.0785 151.392 74.4779 151.594 77.2052V77.2277Z" fill="#CCCCCC"/>
<path d="M158.927 91.0294C160.335 90.4899 165.032 86.1141 169.226 92.6703C173.413 99.2264 174.627 107.851 174.971 111.904C175.316 115.958 178.679 135.192 179.458 138.383C180.237 141.575 182.222 143.044 186.184 146.663C190.154 150.289 212.572 175.218 214.385 176.679L208.557 182.059C208.557 182.059 175.151 157.617 172.05 153.646C168.949 149.675 166.964 145.794 164.462 137.342C161.961 128.89 154.201 108.27 153.766 104.996C153.332 101.722 151.527 93.8691 158.942 91.0219L158.927 91.0294Z" fill="white"/>
<path d="M156.208 117.771C156.208 117.771 167.803 111.732 176.342 111.649C176.342 111.649 173.323 86.1141 160.732 88.5343C148.141 90.9469 153.617 108.375 156.208 117.778V117.771Z" fill="#CCCCCC"/>
<path d="M152.808 82.7499C152.808 82.7499 142.576 96.0645 131.962 95.3452C121.349 94.6259 134.179 83.3568 134.179 83.3568C134.179 83.3568 134.973 81.9781 135.775 79.8577C136.127 78.9211 136.486 77.8346 136.764 76.6508C137.101 75.2496 137.34 73.7136 137.363 72.1401L153.242 63.7333C153.242 63.7333 150.426 79.1459 152.8 82.7499H152.808Z" fill="white"/>
<path d="M138.943 76.8381C136.389 76.8831 129.228 76.441 124.817 60.2342C119.431 40.4383 128.337 29.5214 136.344 27.1537C144.351 24.786 151.991 27.1912 156.725 37.4338C156.725 37.4338 160.208 45.4285 156.081 60.2492C151.946 75.0623 141.685 76.7857 138.951 76.8381H138.943Z" fill="white"/>
<path d="M143.437 39.794C143.437 39.794 132.577 41.0677 123.281 56.8475C123.281 56.8475 117.536 38.7899 129.468 29.7537C141.4 20.71 150.478 27.4235 153.699 30.9076C153.699 30.9076 158.088 31.6643 158.68 39.8914C159.264 48.1184 165.399 60.0094 153.587 66.5655C153.587 66.5655 154.306 57.327 153.122 55.2365C151.931 53.146 148.306 54.8019 143.437 39.794Z" fill="#212121"/>
<path d="M152.328 51.6175C152.8 50.1639 154.268 49.5046 155.174 50.9881C156.081 52.4717 155.422 58.4509 153.264 59.2151C151.1 59.9869 151.377 54.5622 152.328 51.6175Z" fill="white"/>
<path d="M148.516 72.9269C148.516 72.9269 144.666 80.502 135.775 79.8502C136.127 78.9136 136.486 77.8271 136.771 76.6433C136.966 76.6433 142.246 78.0519 148.523 72.9194L148.516 72.9269Z" fill="#DBDBDB"/>
<path d="M362.93 353.103C362.93 353.103 367.424 360.596 370.705 362.491C373.993 364.387 385.596 371.992 387.566 376.375C388.944 379.447 387.506 383.216 375.918 381.208C364.331 379.208 364.616 370.733 356.174 368.313C350.534 366.695 349.897 365.766 349.897 361.884C349.897 360.761 351.186 358.033 350.729 356.025C350.279 354.017 362.93 353.095 362.93 353.095V353.103Z" fill="white"/>
<path d="M180.087 361.352C180.087 361.352 175.907 368.148 172.619 370.044C169.331 371.94 157.729 379.545 155.759 383.928C154.381 387 155.819 390.769 167.406 388.761C178.993 386.76 178.716 378.286 187.15 375.873C192.79 374.255 193.427 373.326 193.427 369.445C193.427 368.321 191.569 364.829 192.019 362.821C192.476 360.813 180.072 361.36 180.072 361.36L180.087 361.352Z" fill="white"/>
<path d="M310.252 129.407C310.252 129.407 315.772 127.422 315.323 124.807C314.873 122.192 304.087 101.572 301.323 98.5446C293.571 90.0478 284.38 73.8859 283.205 70.0571C282.029 66.2284 245.319 25.1831 243.679 23.1451L237.469 27.7606C237.469 27.7606 260.569 68.3413 264.224 73.354C267.88 78.3591 281.182 108.263 282.56 109.387C283.939 110.51 310.259 129.415 310.259 129.415L310.252 129.407Z" fill="#A8A8A8"/>
<path d="M237.462 27.7531C237.462 27.7531 235.252 24.3964 232.848 24.1941C230.436 23.9918 222.946 22.9802 222.362 21.8863C221.777 20.7924 222.609 19.8932 223.89 20.0056C225.17 20.118 231.23 20.6125 231.178 19.8782C230.773 13.472 216.497 3.1994 216.444 2.07549C216.392 0.951578 217.246 -0.0899128 218.444 0.00749291C218.444 0.00749291 225.388 2.98211 232.264 8.41435C239.14 13.8466 243.671 23.1376 243.671 23.1376L237.462 27.7531Z" fill="white"/>
<path d="M284.695 193.081C284.695 193.081 287.609 198.655 288.785 200.401C289.953 202.147 322.603 253.637 326.483 262.298C330.43 271.102 332.775 275.651 334.64 279.045C336.16 281.81 342.452 298.93 347.208 312.627C351.965 326.316 361.657 349.956 363.29 352.758C364.923 355.561 349.912 355.763 349.912 355.763C349.912 355.763 330.97 323.701 326.266 317.662C321.562 311.623 316.476 300.856 314.97 293.731C313.465 286.605 293.818 267.873 289.676 261.572C285.856 255.765 270.673 234.073 268.052 229.435C265.655 225.187 260.539 225.929 260.539 225.929L256.644 199.329L284.703 193.088L284.695 193.081Z" fill="#383838"/>
<path d="M234.226 192.676C234.226 192.676 232.144 198.603 231.238 200.498C230.331 202.394 212.07 238.711 209.194 248.976C206.632 258.095 199.839 280.513 198.236 285.181C197.217 288.163 192.401 305.539 189.682 319.76C186.963 333.974 180.402 357.741 179.196 360.738C177.99 363.743 192.633 364.462 192.633 364.462C192.633 364.462 207.359 328.444 211.141 321.813C214.916 315.175 218.392 303.808 218.849 296.54C219.298 289.272 234.638 266.03 238.87 260.5C243.102 254.971 253.004 232.567 256.779 228.783C260.554 224.992 262.974 225.284 262.974 225.284L262.899 194.939L234.226 192.691V192.676Z" fill="#383838"/>
<path d="M335.936 155.017C335.936 155.017 341.021 152.118 342.774 154.126C344.527 156.134 353.762 177.473 354.362 181.504C356.054 192.796 362.818 210.074 365.058 213.416C367.297 216.758 375.933 270.743 376.48 273.283L368.9 275.021C368.9 275.021 351.927 231.608 350.347 225.644C348.766 219.68 333.883 190.51 333.883 188.75C333.883 186.989 335.928 155.01 335.928 155.01L335.936 155.017Z" fill="#A8A8A8"/>
<path d="M340.699 141.321C340.699 141.321 345.785 151.646 346.774 154.058C350.167 162.345 351.92 169.508 354.369 181.512C354.369 181.512 343.83 191.267 336.01 193.927C336.01 193.927 328.228 180.478 327.419 180.058C326.61 179.638 311.39 191.589 306.574 196.842C303.241 200.483 302.275 216.653 300.934 219.133C299.593 221.613 239.971 206.035 233.986 192.451C233.986 192.451 249.993 166.489 252.495 162.765C254.989 159.041 281.115 124.612 282.635 122.664C284.148 120.716 280.433 105.588 280.433 105.588C280.433 105.588 290.343 95.1803 298.177 94.8356C298.177 94.8356 308.589 105.4 310.357 106.614C312.124 107.821 324.738 118.37 327.629 123.061C330.52 127.751 340.707 141.313 340.707 141.313L340.699 141.321Z" fill="#A8A8A8"/>
<path d="M368.9 275.029C368.9 275.029 370.113 278.842 368.735 280.791C367.357 282.746 363.357 289.055 363.837 290.194C364.316 291.333 365.552 291.28 366.286 290.239C367.02 289.205 370.503 284.305 371.05 284.807C375.798 289.205 374.705 306.573 375.551 307.33C376.398 308.087 377.761 308.117 378.45 307.135C378.45 307.135 380.562 299.987 380.712 291.318C380.862 282.649 376.487 273.283 376.487 273.283L368.907 275.021L368.9 275.029Z" fill="white"/>
<path d="M349.208 134.929C349.208 134.929 342.325 137.739 339.366 142.31C339.366 142.31 330.835 150.477 323.906 140.886C316.978 131.303 325.824 125.361 325.824 125.361C325.824 125.361 330.603 125.676 338.332 118.52C346.07 111.372 349.208 134.922 349.208 134.922V134.929Z" fill="white"/>
<path d="M380.884 106.292C380.884 106.292 387.116 120.229 365.275 131.385C343.433 142.542 337.793 130.329 337.321 129.572C336.849 128.815 329.591 118.625 354.174 101.849C354.174 101.849 372.518 89.6881 380.877 106.3L380.884 106.292Z" fill="white"/>
<path d="M371.214 127.886C371.214 127.886 373.664 128.291 372.435 129.789C371.214 131.288 362.983 133.236 362.309 133.431C362.309 133.431 361.537 133.566 361.649 133.019C361.762 132.472 371.207 127.886 371.207 127.886H371.214Z" fill="white"/>
<path d="M354.571 102.029C354.571 102.029 355.245 99.676 353.35 100.126C351.448 100.575 345.868 107.289 345.673 107.566C345.673 107.566 345.223 108.195 345.77 108.323C346.317 108.457 354.571 102.021 354.571 102.021V102.029Z" fill="white"/>
<path d="M368.054 129.887L364.346 129.677C364.346 129.677 369.896 126.223 370.57 125.384C371.244 124.544 372.885 124.357 373.349 123.72C373.814 123.083 372.42 106.689 358.616 102.074C358.616 102.074 356.174 105.093 355.23 104.419C354.287 103.745 348.467 108.068 348.467 108.068L349.238 105.468C349.238 105.468 358.571 97.1584 360.421 96.2143C362.885 94.9555 373.199 87.3054 384.083 107.851C385.326 110.203 385.903 112.856 385.663 115.523C385.393 118.52 384.27 122.132 380.764 124.095C376.128 126.695 368.061 129.887 368.061 129.887H368.054Z" fill="#1A1A1A"/>
<path d="M336.303 120.888C336.303 120.888 333.322 130.748 345.868 135.431C345.868 135.431 339.156 136.151 335.591 130.981C332.026 125.811 336.303 120.895 336.303 120.895V120.888Z" fill="#E6E6E6"/>
</g>
<defs>
<clipPath id="clip0_701_439">
<rect width="388" height="413" fill="white"/>
</clipPath>
</defs>
</svg>
